<svg xmlns="http://www.w3.org/2000/svg" version="1.1" baseProfile="full" width="900" height="500" style="user-select: none; position: absolute; left: 0px; top: 0px;"><g><rect width="900" height="500" x="0" y="0" id="0" style="fill: rgb(255, 255, 255);"></rect></g><g><path d="M 90 440.5 L 810 440.5" fill="none" stroke="#ccc" stroke-width="1" paint-order="fill" stroke-opacity="1" stroke-dasharray="" stroke-linecap="butt" stroke-linejoin="miter" stroke-miterlimit="10" clip-path="none"></path><path d="M 90 376.5 L 810 376.5" fill="none" stroke="#ccc" stroke-width="1" paint-order="fill" stroke-opacity="1" stroke-dasharray="" stroke-linecap="butt" stroke-linejoin="miter" stroke-miterlimit="10" clip-path="none"></path><path d="M 90 313.5 L 810 313.5" fill="none" stroke="#ccc" stroke-width="1" paint-order="fill" stroke-opacity="1" stroke-dasharray="" stroke-linecap="butt" stroke-linejoin="miter" stroke-miterlimit="10" clip-path="none"></path><path d="M 90 250.5 L 810 250.5" fill="none" stroke="#ccc" stroke-width="1" paint-order="fill" stroke-opacity="1" stroke-dasharray="" stroke-linecap="butt" stroke-linejoin="miter" stroke-miterlimit="10" clip-path="none"></path><path d="M 90 186.5 L 810 186.5" fill="none" stroke="#ccc" stroke-width="1" paint-order="fill" stroke-opacity="1" stroke-dasharray="" stroke-linecap="butt" stroke-linejoin="miter" stroke-miterlimit="10" clip-path="none"></path><path d="M 90 123.5 L 810 123.5" fill="none" stroke="#ccc" stroke-width="1" paint-order="fill" stroke-opacity="1" stroke-dasharray="" stroke-linecap="butt" stroke-linejoin="miter" stroke-miterlimit="10" clip-path="none"></path><path d="M 90 60.5 L 810 60.5" fill="none" stroke="#ccc" stroke-width="1" paint-order="fill" stroke-opacity="1" stroke-dasharray="" stroke-linecap="butt" stroke-linejoin="miter" stroke-miterlimit="10" clip-path="none"></path><path d="M 99 433.5463 C 99 433.5463 107.9839 432.4607 117 431.8574 C 125.9839 431.2563 126.0255 431.8286 135 431.1376 C 144.0255 430.4426 143.971 429.6256 153 429.0856 C 161.971 428.549 162.0383 429.597 171 428.9842 C 180.0383 428.3662 180.1585 428.5403 189 426.624 C 198.1585 424.639 198.0021 423.9095 207 421.1816 C 216.0021 418.4523 215.8208 417.5349 225 415.7096 C 233.8208 413.9555 234.2142 415.8884 243 414.0228 C 252.2142 412.0662 251.8799 410.6131 261 408.0652 C 269.8799 405.5844 269.905 405.4178 279 403.9654 C 287.905 402.5435 288.7098 405.2627 297 402.3167 C 306.7098 398.8661 306.0149 396.7683 315 391.1721 C 324.0149 385.5573 323.3255 383.7808 333 379.8946 C 341.3255 376.5502 348.4832 384.694 351 376.711 C 366.4832 327.6 361.9637 253.3366 369 265.7067 C 379.9637 284.9811 375.1549 412.0178 387 440 C 393.1549 440 390.0419 386.0314 405 350.7507 C 408.0419 343.5759 415.9407 358.6206 423 355.089 C 433.9407 349.6156 430.8915 342.7606 441 332.7408 C 448.8915 324.9186 450.508 326.671 459 319.4049 C 468.508 311.2694 466.5263 306.7498 477 301.9376 C 484.5263 298.4795 486.0276 302.0835 495 302.8643 C 504.0276 303.65 504.5819 306.9172 513 305.0704 C 522.5819 302.9684 528.4545 304.4506 531 294.9667 C 546.4545 237.3859 538.5873 180.9191 549 170.941 C 556.5873 163.6703 552.2576 227.541 567 260.469 C 570.2576 267.745 583.2678 242.7107 585 251.349 C 601.2678 332.4762 596.7903 440 603 440 C 614.7903 384.0878 612 80.6298 621 80.6298 C 630 80.6298 629.3018 426.0219 639 440 C 647.3018 440 644.4815 192.9612 657 132.5167 C 662.4815 106.05 659.6438 215.4198 675 266.1774 C 677.6438 274.9162 684.1431 251.2238 693 251.5094 C 702.1431 251.8043 708.8161 255.9042 711 267.3386 C 726.8161 350.1494 720.651 440 729 440 C 738.651 432.7088 731.6665 312.5338 747 240.1411 C 749.6665 227.552 753.5493 257.7846 765 270.0366 C 771.5493 277.0442 776.9184 271.3369 783 278.6604 C 794.9184 293.0128 801 313.3882 801 313.3882 L 801 440 L 783 440 L 765 440 L 747 440 L 729 440 L 711 440 L 693 440 L 675 440 L 657 440 L 639 440 L 621 440 L 603 440 L 585 440 L 567 440 L 549 440 L 531 440 L 513 440 L 495 440 L 477 440 L 459 440 L 441 440 L 423 440 L 405 440 L 387 440 L 369 440 L 351 440 L 333 440 L 315 440 L 297 440 L 279 440 L 261 440 L 243 440 L 225 440 L 207 440 L 189 440 L 171 440 L 153 440 L 135 440 L 117 440 L 99 440 Z" fill="#c23531" fill-opacity="0" stroke="none" clip-path="url(#zr2322-clip-0)"></path><path d="M 90.5 440 L 90.5 60" fill="none" stroke="#333" stroke-width="1" paint-order="fill" stroke-opacity="1" stroke-dasharray="" stroke-linecap="round" stroke-linejoin="miter" stroke-miterlimit="10" clip-path="none"></path><path d="M 90 440.5 L 810 440.5" fill="none" stroke="#333" stroke-width="1" paint-order="fill" stroke-opacity="1" stroke-dasharray="" stroke-linecap="round" stroke-linejoin="miter" stroke-miterlimit="10" clip-path="none"></path><path d="M 90 60.5 L 810 60.5" fill="none" stroke="#333" stroke-width="1" paint-order="fill" stroke-opacity="1" stroke-dasharray="" stroke-linecap="round" stroke-linejoin="miter" stroke-miterlimit="10" clip-path="none"></path><path d="M 90 440.5 L 85 440.5" fill="none" stroke="#333" stroke-width="1" paint-order="fill" stroke-opacity="1" stroke-dasharray="" stroke-linecap="butt" stroke-linejoin="miter" stroke-miterlimit="10" clip-path="none"></path><path d="M 90 376.5 L 85 376.5" fill="none" stroke="#333" stroke-width="1" paint-order="fill" stroke-opacity="1" stroke-dasharray="" stroke-linecap="butt" stroke-linejoin="miter" stroke-miterlimit="10" clip-path="none"></path><path d="M 90 313.5 L 85 313.5" fill="none" stroke="#333" stroke-width="1" paint-order="fill" stroke-opacity="1" stroke-dasharray="" stroke-linecap="butt" stroke-linejoin="miter" stroke-miterlimit="10" clip-path="none"></path><path d="M 90 250.5 L 85 250.5" fill="none" stroke="#333" stroke-width="1" paint-order="fill" stroke-opacity="1" stroke-dasharray="" stroke-linecap="butt" stroke-linejoin="miter" stroke-miterlimit="10" clip-path="none"></path><path d="M 90 186.5 L 85 186.5" fill="none" stroke="#333" stroke-width="1" paint-order="fill" stroke-opacity="1" stroke-dasharray="" stroke-linecap="butt" stroke-linejoin="miter" stroke-miterlimit="10" clip-path="none"></path><path d="M 90 123.5 L 85 123.5" fill="none" stroke="#333" stroke-width="1" paint-order="fill" stroke-opacity="1" stroke-dasharray="" stroke-linecap="butt" stroke-linejoin="miter" stroke-miterlimit="10" clip-path="none"></path><path d="M 90 60.5 L 85 60.5" fill="none" stroke="#333" stroke-width="1" paint-order="fill" stroke-opacity="1" stroke-dasharray="" stroke-linecap="butt" stroke-linejoin="miter" stroke-miterlimit="10" clip-path="none"></path><path d="M 90.5 440 L 90.5 445" fill="none" stroke="#333" stroke-width="1" paint-order="fill" stroke-opacity="1" stroke-dasharray="" stroke-linecap="butt" stroke-linejoin="miter" stroke-miterlimit="10" clip-path="none"></path><path d="M 126.5 440 L 126.5 445" fill="none" stroke="#333" stroke-width="1" paint-order="fill" stroke-opacity="1" stroke-dasharray="" stroke-linecap="butt" stroke-linejoin="miter" stroke-miterlimit="10" clip-path="none"></path><path d="M 162.5 440 L 162.5 445" fill="none" stroke="#333" stroke-width="1" paint-order="fill" stroke-opacity="1" stroke-dasharray="" stroke-linecap="butt" stroke-linejoin="miter" stroke-miterlimit="10" clip-path="none"></path><path d="M 198.5 440 L 198.5 445" fill="none" stroke="#333" stroke-width="1" paint-order="fill" stroke-opacity="1" stroke-dasharray="" stroke-linecap="butt" stroke-linejoin="miter" stroke-miterlimit="10" clip-path="none"></path><path d="M 234.5 440 L 234.5 445" fill="none" stroke="#333" stroke-width="1" paint-order="fill" stroke-opacity="1" stroke-dasharray="" stroke-linecap="butt" stroke-linejoin="miter" stroke-miterlimit="10" clip-path="none"></path><path d="M 270.5 440 L 270.5 445" fill="none" stroke="#333" stroke-width="1" paint-order="fill" stroke-opacity="1" stroke-dasharray="" stroke-linecap="butt" stroke-linejoin="miter" stroke-miterlimit="10" clip-path="none"></path><path d="M 306.5 440 L 306.5 445" fill="none" stroke="#333" stroke-width="1" paint-order="fill" stroke-opacity="1" stroke-dasharray="" stroke-linecap="butt" stroke-linejoin="miter" stroke-miterlimit="10" clip-path="none"></path><path d="M 342.5 440 L 342.5 445" fill="none" stroke="#333" stroke-width="1" paint-order="fill" stroke-opacity="1" stroke-dasharray="" stroke-linecap="butt" stroke-linejoin="miter" stroke-miterlimit="10" clip-path="none"></path><path d="M 378.5 440 L 378.5 445" fill="none" stroke="#333" stroke-width="1" paint-order="fill" stroke-opacity="1" stroke-dasharray="" stroke-linecap="butt" stroke-linejoin="miter" stroke-miterlimit="10" clip-path="none"></path><path d="M 414.5 440 L 414.5 445" fill="none" stroke="#333" stroke-width="1" paint-order="fill" stroke-opacity="1" stroke-dasharray="" stroke-linecap="butt" stroke-linejoin="miter" stroke-miterlimit="10" clip-path="none"></path><path d="M 450.5 440 L 450.5 445" fill="none" stroke="#333" stroke-width="1" paint-order="fill" stroke-opacity="1" stroke-dasharray="" stroke-linecap="butt" stroke-linejoin="miter" stroke-miterlimit="10" clip-path="none"></path><path d="M 486.5 440 L 486.5 445" fill="none" stroke="#333" stroke-width="1" paint-order="fill" stroke-opacity="1" stroke-dasharray="" stroke-linecap="butt" stroke-linejoin="miter" stroke-miterlimit="10" clip-path="none"></path><path d="M 522.5 440 L 522.5 445" fill="none" stroke="#333" stroke-width="1" paint-order="fill" stroke-opacity="1" stroke-dasharray="" stroke-linecap="butt" stroke-linejoin="miter" stroke-miterlimit="10" clip-path="none"></path><path d="M 558.5 440 L 558.5 445" fill="none" stroke="#333" stroke-width="1" paint-order="fill" stroke-opacity="1" stroke-dasharray="" stroke-linecap="butt" stroke-linejoin="miter" stroke-miterlimit="10" clip-path="none"></path><path d="M 594.5 440 L 594.5 445" fill="none" stroke="#333" stroke-width="1" paint-order="fill" stroke-opacity="1" stroke-dasharray="" stroke-linecap="butt" stroke-linejoin="miter" stroke-miterlimit="10" clip-path="none"></path><path d="M 630.5 440 L 630.5 445" fill="none" stroke="#333" stroke-width="1" paint-order="fill" stroke-opacity="1" stroke-dasharray="" stroke-linecap="butt" stroke-linejoin="miter" stroke-miterlimit="10" clip-path="none"></path><path d="M 666.5 440 L 666.5 445" fill="none" stroke="#333" stroke-width="1" paint-order="fill" stroke-opacity="1" stroke-dasharray="" stroke-linecap="butt" stroke-linejoin="miter" stroke-miterlimit="10" clip-path="none"></path><path d="M 702.5 440 L 702.5 445" fill="none" stroke="#333" stroke-width="1" paint-order="fill" stroke-opacity="1" stroke-dasharray="" stroke-linecap="butt" stroke-linejoin="miter" stroke-miterlimit="10" clip-path="none"></path><path d="M 738.5 440 L 738.5 445" fill="none" stroke="#333" stroke-width="1" paint-order="fill" stroke-opacity="1" stroke-dasharray="" stroke-linecap="butt" stroke-linejoin="miter" stroke-miterlimit="10" clip-path="none"></path><path d="M 774.5 440 L 774.5 445" fill="none" stroke="#333" stroke-width="1" paint-order="fill" stroke-opacity="1" stroke-dasharray="" stroke-linecap="butt" stroke-linejoin="miter" stroke-miterlimit="10" clip-path="none"></path><path d="M 810.5 440 L 810.5 445" fill="none" stroke="#333" stroke-width="1" paint-order="fill" stroke-opacity="1" stroke-dasharray="" stroke-linecap="butt" stroke-linejoin="miter" stroke-miterlimit="10" clip-path="none"></path><text transform="matrix(1,2.4492937051703357e-16,-2.4492937051703357e-16,1,82,440)" fill="#333" fill-opacity="1" stroke="none" clip-path="none" style="font: 12px &quot;Microsoft YaHei&quot;;"><tspan dominant-baseline="middle" text-anchor="end" x="0" y="0">0</tspan></text><text transform="matrix(1,2.4492937051703357e-16,-2.4492937051703357e-16,1,82,376.6666564941406)" fill="#333" fill-opacity="1" stroke="none" clip-path="none" style="font: 12px &quot;Microsoft YaHei&quot;;"><tspan dominant-baseline="middle" text-anchor="end" x="0" y="0">30,000</tspan></text><text transform="matrix(1,2.4492937051703357e-16,-2.4492937051703357e-16,1,82,313.3333435058594)" fill="#333" fill-opacity="1" stroke="none" clip-path="none" style="font: 12px &quot;Microsoft YaHei&quot;;"><tspan dominant-baseline="middle" text-anchor="end" x="0" y="0">60,000</tspan></text><text transform="matrix(1,2.4492937051703357e-16,-2.4492937051703357e-16,1,82,250)" fill="#333" fill-opacity="1" stroke="none" clip-path="none" style="font: 12px &quot;Microsoft YaHei&quot;;"><tspan dominant-baseline="middle" text-anchor="end" x="0" y="0">90,000</tspan></text><text transform="matrix(1,2.4492937051703357e-16,-2.4492937051703357e-16,1,82,186.6666717529297)" fill="#333" fill-opacity="1" stroke="none" clip-path="none" style="font: 12px &quot;Microsoft YaHei&quot;;"><tspan dominant-baseline="middle" text-anchor="end" x="0" y="0">120,000</tspan></text><text transform="matrix(1,2.4492937051703357e-16,-2.4492937051703357e-16,1,82,123.33334350585938)" fill="#333" fill-opacity="1" stroke="none" clip-path="none" style="font: 12px &quot;Microsoft YaHei&quot;;"><tspan dominant-baseline="middle" text-anchor="end" x="0" y="0">150,000</tspan></text><text transform="matrix(1,2.4492937051703357e-16,-2.4492937051703357e-16,1,82,60)" fill="#333" fill-opacity="1" stroke="none" clip-path="none" style="font: 12px &quot;Microsoft YaHei&quot;;"><tspan dominant-baseline="middle" text-anchor="end" x="0" y="0">180,000</tspan></text><text transform="matrix(0.8660253882408142,-0.5,0.5,0.8660253882408142,99,448)" fill="#333" fill-opacity="1" stroke="none" clip-path="none" style="font: 12px &quot;Microsoft YaHei&quot;;"><tspan dominant-baseline="middle" text-anchor="end" x="0" y="0">2022-04-21</tspan></text><text transform="matrix(0.8660253882408142,-0.5,0.5,0.8660253882408142,135,448)" fill="#333" fill-opacity="1" stroke="none" clip-path="none" style="font: 12px &quot;Microsoft YaHei&quot;;"><tspan dominant-baseline="middle" text-anchor="end" x="0" y="0">2022-04-23</tspan></text><text transform="matrix(0.8660253882408142,-0.5,0.5,0.8660253882408142,171,448)" fill="#333" fill-opacity="1" stroke="none" clip-path="none" style="font: 12px &quot;Microsoft YaHei&quot;;"><tspan dominant-baseline="middle" text-anchor="end" x="0" y="0">2022-04-25</tspan></text><text transform="matrix(0.8660253882408142,-0.5,0.5,0.8660253882408142,207,448)" fill="#333" fill-opacity="1" stroke="none" clip-path="none" style="font: 12px &quot;Microsoft YaHei&quot;;"><tspan dominant-baseline="middle" text-anchor="end" x="0" y="0">2022-04-27</tspan></text><text transform="matrix(0.8660253882408142,-0.5,0.5,0.8660253882408142,243,448)" fill="#333" fill-opacity="1" stroke="none" clip-path="none" style="font: 12px &quot;Microsoft YaHei&quot;;"><tspan dominant-baseline="middle" text-anchor="end" x="0" y="0">2022-04-29</tspan></text><text transform="matrix(0.8660253882408142,-0.5,0.5,0.8660253882408142,279,448)" fill="#333" fill-opacity="1" stroke="none" clip-path="none" style="font: 12px &quot;Microsoft YaHei&quot;;"><tspan dominant-baseline="middle" text-anchor="end" x="0" y="0">2022-05-01</tspan></text><text transform="matrix(0.8660253882408142,-0.5,0.5,0.8660253882408142,315,448)" fill="#333" fill-opacity="1" stroke="none" clip-path="none" style="font: 12px &quot;Microsoft YaHei&quot;;"><tspan dominant-baseline="middle" text-anchor="end" x="0" y="0">2022-05-03</tspan></text><text transform="matrix(0.8660253882408142,-0.5,0.5,0.8660253882408142,351,448)" fill="#333" fill-opacity="1" stroke="none" clip-path="none" style="font: 12px &quot;Microsoft YaHei&quot;;"><tspan dominant-baseline="middle" text-anchor="end" x="0" y="0">2022-05-05</tspan></text><text transform="matrix(0.8660253882408142,-0.5,0.5,0.8660253882408142,387,448)" fill="#333" fill-opacity="1" stroke="none" clip-path="none" style="font: 12px &quot;Microsoft YaHei&quot;;"><tspan dominant-baseline="middle" text-anchor="end" x="0" y="0">2022-05-07</tspan></text><text transform="matrix(0.8660253882408142,-0.5,0.5,0.8660253882408142,423,448)" fill="#333" fill-opacity="1" stroke="none" clip-path="none" style="font: 12px &quot;Microsoft YaHei&quot;;"><tspan dominant-baseline="middle" text-anchor="end" x="0" y="0">2022-05-09</tspan></text><text transform="matrix(0.8660253882408142,-0.5,0.5,0.8660253882408142,459,448)" fill="#333" fill-opacity="1" stroke="none" clip-path="none" style="font: 12px &quot;Microsoft YaHei&quot;;"><tspan dominant-baseline="middle" text-anchor="end" x="0" y="0">2022-05-11</tspan></text><text transform="matrix(0.8660253882408142,-0.5,0.5,0.8660253882408142,495,448)" fill="#333" fill-opacity="1" stroke="none" clip-path="none" style="font: 12px &quot;Microsoft YaHei&quot;;"><tspan dominant-baseline="middle" text-anchor="end" x="0" y="0">2022-05-13</tspan></text><text transform="matrix(0.8660253882408142,-0.5,0.5,0.8660253882408142,531,448)" fill="#333" fill-opacity="1" stroke="none" clip-path="none" style="font: 12px &quot;Microsoft YaHei&quot;;"><tspan dominant-baseline="middle" text-anchor="end" x="0" y="0">2022-05-15</tspan></text><text transform="matrix(0.8660253882408142,-0.5,0.5,0.8660253882408142,567,448)" fill="#333" fill-opacity="1" stroke="none" clip-path="none" style="font: 12px &quot;Microsoft YaHei&quot;;"><tspan dominant-baseline="middle" text-anchor="end" x="0" y="0">2022-05-17</tspan></text><text transform="matrix(0.8660253882408142,-0.5,0.5,0.8660253882408142,603,448)" fill="#333" fill-opacity="1" stroke="none" clip-path="none" style="font: 12px &quot;Microsoft YaHei&quot;;"><tspan dominant-baseline="middle" text-anchor="end" x="0" y="0">2022-05-19</tspan></text><text transform="matrix(0.8660253882408142,-0.5,0.5,0.8660253882408142,639,448)" fill="#333" fill-opacity="1" stroke="none" clip-path="none" style="font: 12px &quot;Microsoft YaHei&quot;;"><tspan dominant-baseline="middle" text-anchor="end" x="0" y="0">2022-05-21</tspan></text><text transform="matrix(0.8660253882408142,-0.5,0.5,0.8660253882408142,675,448)" fill="#333" fill-opacity="1" stroke="none" clip-path="none" style="font: 12px &quot;Microsoft YaHei&quot;;"><tspan dominant-baseline="middle" text-anchor="end" x="0" y="0">2022-05-23</tspan></text><text transform="matrix(0.8660253882408142,-0.5,0.5,0.8660253882408142,711,448)" fill="#333" fill-opacity="1" stroke="none" clip-path="none" style="font: 12px &quot;Microsoft YaHei&quot;;"><tspan dominant-baseline="middle" text-anchor="end" x="0" y="0">2022-05-25</tspan></text><text transform="matrix(0.8660253882408142,-0.5,0.5,0.8660253882408142,747,448)" fill="#333" fill-opacity="1" stroke="none" clip-path="none" style="font: 12px &quot;Microsoft YaHei&quot;;"><tspan dominant-baseline="middle" text-anchor="end" x="0" y="0">2022-05-27</tspan></text><text transform="matrix(0.8660253882408142,-0.5,0.5,0.8660253882408142,783,448)" fill="#333" fill-opacity="1" stroke="none" clip-path="none" style="font: 12px &quot;Microsoft YaHei&quot;;"><tspan dominant-baseline="middle" text-anchor="end" x="0" y="0">2022-05-29</tspan></text><path d="M 99 433.5463 C 99 433.5463 107.9839 432.4607 117 431.8574 C 125.9839 431.2563 126.0255 431.8286 135 431.1376 C 144.0255 430.4426 143.971 429.6256 153 429.0856 C 161.971 428.549 162.0383 429.597 171 428.9842 C 180.0383 428.3662 180.1585 428.5403 189 426.624 C 198.1585 424.639 198.0021 423.9095 207 421.1816 C 216.0021 418.4523 215.8208 417.5349 225 415.7096 C 233.8208 413.9555 234.2142 415.8884 243 414.0228 C 252.2142 412.0662 251.8799 410.6131 261 408.0652 C 269.8799 405.5844 269.905 405.4178 279 403.9654 C 287.905 402.5435 288.7098 405.2627 297 402.3167 C 306.7098 398.8661 306.0149 396.7683 315 391.1721 C 324.0149 385.5573 323.3255 383.7808 333 379.8946 C 341.3255 376.5502 348.4832 384.694 351 376.711 C 366.4832 327.6 361.9637 253.3366 369 265.7067 C 379.9637 284.9811 375.1549 412.0178 387 440 C 393.1549 440 390.0419 386.0314 405 350.7507 C 408.0419 343.5759 415.9407 358.6206 423 355.089 C 433.9407 349.6156 430.8915 342.7606 441 332.7408 C 448.8915 324.9186 450.508 326.671 459 319.4049 C 468.508 311.2694 466.5263 306.7498 477 301.9376 C 484.5263 298.4795 486.0276 302.0835 495 302.8643 C 504.0276 303.65 504.5819 306.9172 513 305.0704 C 522.5819 302.9684 528.4545 304.4506 531 294.9667 C 546.4545 237.3859 538.5873 180.9191 549 170.941 C 556.5873 163.6703 552.2576 227.541 567 260.469 C 570.2576 267.745 583.2678 242.7107 585 251.349 C 601.2678 332.4762 596.7903 440 603 440 C 614.7903 384.0878 612 80.6298 621 80.6298 C 630 80.6298 629.3018 426.0219 639 440 C 647.3018 440 644.4815 192.9612 657 132.5167 C 662.4815 106.05 659.6438 215.4198 675 266.1774 C 677.6438 274.9162 684.1431 251.2238 693 251.5094 C 702.1431 251.8043 708.8161 255.9042 711 267.3386 C 726.8161 350.1494 720.651 440 729 440 C 738.651 432.7088 731.6665 312.5338 747 240.1411 C 749.6665 227.552 753.5493 257.7846 765 270.0366 C 771.5493 277.0442 776.9184 271.3369 783 278.6604 C 794.9184 293.0128 801 313.3882 801 313.3882" fill="none" stroke="#c23531" stroke-width="1" paint-order="fill" stroke-opacity="1" stroke-dasharray="" stroke-linecap="butt" stroke-linejoin="bevel" stroke-miterlimit="10" clip-path="url(#zr2322-clip-0)"></path><path d="M 1 0 A 1 1 0 1 0 1 0.0001" fill="#fff" fill-opacity="1" stroke="#c23531" stroke-width="0.5" paint-order="fill" stroke-opacity="1" stroke-dasharray="" stroke-linecap="butt" stroke-linejoin="miter" stroke-miterlimit="10" transform="matrix(2,0,0,2,99,433.54632568359375)" clip-path="none"></path><text transform="matrix(1,0,0,1,0,0)" fill="#c23531" fill-opacity="1" stroke="none" clip-path="none" style="font: 12px &quot;Microsoft YaHei&quot;;"><tspan dominant-baseline="middle" text-anchor="middle" x="99" y="420.04632568359375">3057</tspan></text><path d="M 1 0 A 1 1 0 1 0 1 0.0001" fill="#fff" fill-opacity="1" stroke="#c23531" stroke-width="0.5" paint-order="fill" stroke-opacity="1" stroke-dasharray="" stroke-linecap="butt" stroke-linejoin="miter" stroke-miterlimit="10" transform="matrix(2,0,0,2,117,431.8574523925781)" clip-path="none"></path><text transform="matrix(1,0,0,1,0,0)" fill="#c23531" fill-opacity="1" stroke="none" clip-path="none" style="font: 12px &quot;Microsoft YaHei&quot;;"><tspan dominant-baseline="middle" text-anchor="middle" x="117" y="418.3574523925781">3857</tspan></text><path d="M 1 0 A 1 1 0 1 0 1 0.0001" fill="#fff" fill-opacity="1" stroke="#c23531" stroke-width="0.5" paint-order="fill" stroke-opacity="1" stroke-dasharray="" stroke-linecap="butt" stroke-linejoin="miter" stroke-miterlimit="10" transform="matrix(2,0,0,2,135,431.1375427246094)" clip-path="none"></path><text transform="matrix(1,0,0,1,0,0)" fill="#c23531" fill-opacity="1" stroke="none" clip-path="none" style="font: 12px &quot;Microsoft YaHei&quot;;"><tspan dominant-baseline="middle" text-anchor="middle" x="135" y="417.6375427246094">4198</tspan></text><path d="M 1 0 A 1 1 0 1 0 1 0.0001" fill="#fff" fill-opacity="1" stroke="#c23531" stroke-width="0.5" paint-order="fill" stroke-opacity="1" stroke-dasharray="" stroke-linecap="butt" stroke-linejoin="miter" stroke-miterlimit="10" transform="matrix(2,0,0,2,153,429.0855407714844)" clip-path="none"></path><text transform="matrix(1,0,0,1,0,0)" fill="#c23531" fill-opacity="1" stroke="none" clip-path="none" style="font: 12px &quot;Microsoft YaHei&quot;;"><tspan dominant-baseline="middle" text-anchor="middle" x="153" y="415.5855407714844">5170</tspan></text><path d="M 1 0 A 1 1 0 1 0 1 0.0001" fill="#fff" fill-opacity="1" stroke="#c23531" stroke-width="0.5" paint-order="fill" stroke-opacity="1" stroke-dasharray="" stroke-linecap="butt" stroke-linejoin="miter" stroke-miterlimit="10" transform="matrix(2,0,0,2,171,428.9842224121094)" clip-path="none"></path><text transform="matrix(1,0,0,1,0,0)" fill="#c23531" fill-opacity="1" stroke="none" clip-path="none" style="font: 12px &quot;Microsoft YaHei&quot;;"><tspan dominant-baseline="middle" text-anchor="middle" x="171" y="415.4842224121094">5218</tspan></text><path d="M 1 0 A 1 1 0 1 0 1 0.0001" fill="#fff" fill-opacity="1" stroke="#c23531" stroke-width="0.5" paint-order="fill" stroke-opacity="1" stroke-dasharray="" stroke-linecap="butt" stroke-linejoin="miter" stroke-miterlimit="10" transform="matrix(2,0,0,2,189,426.6239929199219)" clip-path="none"></path><text transform="matrix(1,0,0,1,0,0)" fill="#c23531" fill-opacity="1" stroke="none" clip-path="none" style="font: 12px &quot;Microsoft YaHei&quot;;"><tspan dominant-baseline="middle" text-anchor="middle" x="189" y="413.1239929199219">6336</tspan></text><path d="M 1 0 A 1 1 0 1 0 1 0.0001" fill="#fff" fill-opacity="1" stroke="#c23531" stroke-width="0.5" paint-order="fill" stroke-opacity="1" stroke-dasharray="" stroke-linecap="butt" stroke-linejoin="miter" stroke-miterlimit="10" transform="matrix(2,0,0,2,207,421.1815490722656)" clip-path="none"></path><text transform="matrix(1,0,0,1,0,0)" fill="#c23531" fill-opacity="1" stroke="none" clip-path="none" style="font: 12px &quot;Microsoft YaHei&quot;;"><tspan dominant-baseline="middle" text-anchor="middle" x="207" y="407.6815490722656">8914</tspan></text><path d="M 1 0 A 1 1 0 1 0 1 0.0001" fill="#fff" fill-opacity="1" stroke="#c23531" stroke-width="0.5" paint-order="fill" stroke-opacity="1" stroke-dasharray="" stroke-linecap="butt" stroke-linejoin="miter" stroke-miterlimit="10" transform="matrix(2,0,0,2,225,415.7095642089844)" clip-path="none"></path><text transform="matrix(1,0,0,1,0,0)" fill="#c23531" fill-opacity="1" stroke="none" clip-path="none" style="font: 12px &quot;Microsoft YaHei&quot;;"><tspan dominant-baseline="middle" text-anchor="middle" x="225" y="402.2095642089844">11506</tspan></text><path d="M 1 0 A 1 1 0 1 0 1 0.0001" fill="#fff" fill-opacity="1" stroke="#c23531" stroke-width="0.5" paint-order="fill" stroke-opacity="1" stroke-dasharray="" stroke-linecap="butt" stroke-linejoin="miter" stroke-miterlimit="10" transform="matrix(2,0,0,2,243,414.02276611328125)" clip-path="none"></path><text transform="matrix(1,0,0,1,0,0)" fill="#c23531" fill-opacity="1" stroke="none" clip-path="none" style="font: 12px &quot;Microsoft YaHei&quot;;"><tspan dominant-baseline="middle" text-anchor="middle" x="243" y="400.52276611328125">12305</tspan></text><path d="M 1 0 A 1 1 0 1 0 1 0.0001" fill="#fff" fill-opacity="1" stroke="#c23531" stroke-width="0.5" paint-order="fill" stroke-opacity="1" stroke-dasharray="" stroke-linecap="butt" stroke-linejoin="miter" stroke-miterlimit="10" transform="matrix(2,0,0,2,261,408.0652160644531)" clip-path="none"></path><text transform="matrix(1,0,0,1,0,0)" fill="#c23531" fill-opacity="1" stroke="none" clip-path="none" style="font: 12px &quot;Microsoft YaHei&quot;;"><tspan dominant-baseline="middle" text-anchor="middle" x="261" y="394.5652160644531">15127</tspan></text><path d="M 1 0 A 1 1 0 1 0 1 0.0001" fill="#fff" fill-opacity="1" stroke="#c23531" stroke-width="0.5" paint-order="fill" stroke-opacity="1" stroke-dasharray="" stroke-linecap="butt" stroke-linejoin="miter" stroke-miterlimit="10" transform="matrix(2,0,0,2,279,403.9654541015625)" clip-path="none"></path><text transform="matrix(1,0,0,1,0,0)" fill="#c23531" fill-opacity="1" stroke="none" clip-path="none" style="font: 12px &quot;Microsoft YaHei&quot;;"><tspan dominant-baseline="middle" text-anchor="middle" x="279" y="390.4654541015625">17069</tspan></text><path d="M 1 0 A 1 1 0 1 0 1 0.0001" fill="#fff" fill-opacity="1" stroke="#c23531" stroke-width="0.5" paint-order="fill" stroke-opacity="1" stroke-dasharray="" stroke-linecap="butt" stroke-linejoin="miter" stroke-miterlimit="10" transform="matrix(2,0,0,2,297,402.3166809082031)" clip-path="none"></path><text transform="matrix(1,0,0,1,0,0)" fill="#c23531" fill-opacity="1" stroke="none" clip-path="none" style="font: 12px &quot;Microsoft YaHei&quot;;"><tspan dominant-baseline="middle" text-anchor="middle" x="297" y="388.8166809082031">17850</tspan></text><path d="M 1 0 A 1 1 0 1 0 1 0.0001" fill="#fff" fill-opacity="1" stroke="#c23531" stroke-width="0.5" paint-order="fill" stroke-opacity="1" stroke-dasharray="" stroke-linecap="butt" stroke-linejoin="miter" stroke-miterlimit="10" transform="matrix(2,0,0,2,315,391.172119140625)" clip-path="none"></path><text transform="matrix(1,0,0,1,0,0)" fill="#c23531" fill-opacity="1" stroke="none" clip-path="none" style="font: 12px &quot;Microsoft YaHei&quot;;"><tspan dominant-baseline="middle" text-anchor="middle" x="315" y="377.672119140625">23129</tspan></text><path d="M 1 0 A 1 1 0 1 0 1 0.0001" fill="#fff" fill-opacity="1" stroke="#c23531" stroke-width="0.5" paint-order="fill" stroke-opacity="1" stroke-dasharray="" stroke-linecap="butt" stroke-linejoin="miter" stroke-miterlimit="10" transform="matrix(2,0,0,2,333,379.8945617675781)" clip-path="none"></path><text transform="matrix(1,0,0,1,0,0)" fill="#c23531" fill-opacity="1" stroke="none" clip-path="none" style="font: 12px &quot;Microsoft YaHei&quot;;"><tspan dominant-baseline="middle" text-anchor="middle" x="333" y="366.3945617675781">28471</tspan></text><path d="M 1 0 A 1 1 0 1 0 1 0.0001" fill="#fff" fill-opacity="1" stroke="#c23531" stroke-width="0.5" paint-order="fill" stroke-opacity="1" stroke-dasharray="" stroke-linecap="butt" stroke-linejoin="miter" stroke-miterlimit="10" transform="matrix(2,0,0,2,351,376.71099853515625)" clip-path="none"></path><text transform="matrix(1,0,0,1,0,0)" fill="#c23531" fill-opacity="1" stroke="none" clip-path="none" style="font: 12px &quot;Microsoft YaHei&quot;;"><tspan dominant-baseline="middle" text-anchor="middle" x="351" y="363.21099853515625">29979</tspan></text><path d="M 1 0 A 1 1 0 1 0 1 0.0001" fill="#fff" fill-opacity="1" stroke="#c23531" stroke-width="0.5" paint-order="fill" stroke-opacity="1" stroke-dasharray="" stroke-linecap="butt" stroke-linejoin="miter" stroke-miterlimit="10" transform="matrix(2,0,0,2,369,265.7066650390625)" clip-path="none"></path><text transform="matrix(1,0,0,1,0,0)" fill="#c23531" fill-opacity="1" stroke="none" clip-path="none" style="font: 12px &quot;Microsoft YaHei&quot;;"><tspan dominant-baseline="middle" text-anchor="middle" x="369" y="252.2066650390625">82560</tspan></text><path d="M 1 0 A 1 1 0 1 0 1 0.0001" fill="#fff" fill-opacity="1" stroke="#c23531" stroke-width="0.5" paint-order="fill" stroke-opacity="1" stroke-dasharray="" stroke-linecap="butt" stroke-linejoin="miter" stroke-miterlimit="10" transform="matrix(2,0,0,2,387,440)" clip-path="none"></path><text transform="matrix(1,0,0,1,0,0)" fill="#c23531" fill-opacity="1" stroke="none" clip-path="none" style="font: 12px &quot;Microsoft YaHei&quot;;"><tspan dominant-baseline="middle" text-anchor="middle" x="387" y="426.5">0</tspan></text><path d="M 1 0 A 1 1 0 1 0 1 0.0001" fill="#fff" fill-opacity="1" stroke="#c23531" stroke-width="0.5" paint-order="fill" stroke-opacity="1" stroke-dasharray="" stroke-linecap="butt" stroke-linejoin="miter" stroke-miterlimit="10" transform="matrix(2,0,0,2,405,350.75067138671875)" clip-path="none"></path><text transform="matrix(1,0,0,1,0,0)" fill="#c23531" fill-opacity="1" stroke="none" clip-path="none" style="font: 12px &quot;Microsoft YaHei&quot;;"><tspan dominant-baseline="middle" text-anchor="middle" x="405" y="337.25067138671875">42276</tspan></text><path d="M 1 0 A 1 1 0 1 0 1 0.0001" fill="#fff" fill-opacity="1" stroke="#c23531" stroke-width="0.5" paint-order="fill" stroke-opacity="1" stroke-dasharray="" stroke-linecap="butt" stroke-linejoin="miter" stroke-miterlimit="10" transform="matrix(2,0,0,2,423,355.0889892578125)" clip-path="none"></path><text transform="matrix(1,0,0,1,0,0)" fill="#c23531" fill-opacity="1" stroke="none" clip-path="none" style="font: 12px &quot;Microsoft YaHei&quot;;"><tspan dominant-baseline="middle" text-anchor="middle" x="423" y="341.5889892578125">40221</tspan></text><path d="M 1 0 A 1 1 0 1 0 1 0.0001" fill="#fff" fill-opacity="1" stroke="#c23531" stroke-width="0.5" paint-order="fill" stroke-opacity="1" stroke-dasharray="" stroke-linecap="butt" stroke-linejoin="miter" stroke-miterlimit="10" transform="matrix(2,0,0,2,441,332.74078369140625)" clip-path="none"></path><text transform="matrix(1,0,0,1,0,0)" fill="#c23531" fill-opacity="1" stroke="none" clip-path="none" style="font: 12px &quot;Microsoft YaHei&quot;;"><tspan dominant-baseline="middle" text-anchor="middle" x="441" y="319.24078369140625">50807</tspan></text><path d="M 1 0 A 1 1 0 1 0 1 0.0001" fill="#fff" fill-opacity="1" stroke="#c23531" stroke-width="0.5" paint-order="fill" stroke-opacity="1" stroke-dasharray="" stroke-linecap="butt" stroke-linejoin="miter" stroke-miterlimit="10" transform="matrix(2,0,0,2,459,319.4048767089844)" clip-path="none"></path><text transform="matrix(1,0,0,1,0,0)" fill="#c23531" fill-opacity="1" stroke="none" clip-path="none" style="font: 12px &quot;Microsoft YaHei&quot;;"><tspan dominant-baseline="middle" text-anchor="middle" x="459" y="305.9048767089844">57124</tspan></text><path d="M 1 0 A 1 1 0 1 0 1 0.0001" fill="#fff" fill-opacity="1" stroke="#c23531" stroke-width="0.5" paint-order="fill" stroke-opacity="1" stroke-dasharray="" stroke-linecap="butt" stroke-linejoin="miter" stroke-miterlimit="10" transform="matrix(2,0,0,2,477,301.93756103515625)" clip-path="none"></path><text transform="matrix(1,0,0,1,0,0)" fill="#c23531" fill-opacity="1" stroke="none" clip-path="none" style="font: 12px &quot;Microsoft YaHei&quot;;"><tspan dominant-baseline="middle" text-anchor="middle" x="477" y="288.43756103515625">65398</tspan></text><path d="M 1 0 A 1 1 0 1 0 1 0.0001" fill="#fff" fill-opacity="1" stroke="#c23531" stroke-width="0.5" paint-order="fill" stroke-opacity="1" stroke-dasharray="" stroke-linecap="butt" stroke-linejoin="miter" stroke-miterlimit="10" transform="matrix(2,0,0,2,495,302.86431884765625)" clip-path="none"></path><text transform="matrix(1,0,0,1,0,0)" fill="#c23531" fill-opacity="1" stroke="none" clip-path="none" style="font: 12px &quot;Microsoft YaHei&quot;;"><tspan dominant-baseline="middle" text-anchor="middle" x="495" y="289.36431884765625">64959</tspan></text><path d="M 1 0 A 1 1 0 1 0 1 0.0001" fill="#fff" fill-opacity="1" stroke="#c23531" stroke-width="0.5" paint-order="fill" stroke-opacity="1" stroke-dasharray="" stroke-linecap="butt" stroke-linejoin="miter" stroke-miterlimit="10" transform="matrix(2,0,0,2,513,305.0704345703125)" clip-path="none"></path><text transform="matrix(1,0,0,1,0,0)" fill="#c23531" fill-opacity="1" stroke="none" clip-path="none" style="font: 12px &quot;Microsoft YaHei&quot;;"><tspan dominant-baseline="middle" text-anchor="middle" x="513" y="291.5704345703125">63914</tspan></text><path d="M 1 0 A 1 1 0 1 0 1 0.0001" fill="#fff" fill-opacity="1" stroke="#c23531" stroke-width="0.5" paint-order="fill" stroke-opacity="1" stroke-dasharray="" stroke-linecap="butt" stroke-linejoin="miter" stroke-miterlimit="10" transform="matrix(2,0,0,2,531,294.9666748046875)" clip-path="none"></path><text transform="matrix(1,0,0,1,0,0)" fill="#c23531" fill-opacity="1" stroke="none" clip-path="none" style="font: 12px &quot;Microsoft YaHei&quot;;"><tspan dominant-baseline="middle" text-anchor="middle" x="531" y="281.4666748046875">68700</tspan></text><path d="M 1 0 A 1 1 0 1 0 1 0.0001" fill="#fff" fill-opacity="1" stroke="#c23531" stroke-width="0.5" paint-order="fill" stroke-opacity="1" stroke-dasharray="" stroke-linecap="butt" stroke-linejoin="miter" stroke-miterlimit="10" transform="matrix(2,0,0,2,549,170.9409942626953)" clip-path="none"></path><text transform="matrix(1,0,0,1,0,0)" fill="#c23531" fill-opacity="1" stroke="none" clip-path="none" style="font: 12px &quot;Microsoft YaHei&quot;;"><tspan dominant-baseline="middle" text-anchor="middle" x="549" y="157.4409942626953">127449</tspan></text><path d="M 1 0 A 1 1 0 1 0 1 0.0001" fill="#fff" fill-opacity="1" stroke="#c23531" stroke-width="0.5" paint-order="fill" stroke-opacity="1" stroke-dasharray="" stroke-linecap="butt" stroke-linejoin="miter" stroke-miterlimit="10" transform="matrix(2,0,0,2,567,260.468994140625)" clip-path="none"></path><text transform="matrix(1,0,0,1,0,0)" fill="#c23531" fill-opacity="1" stroke="none" clip-path="none" style="font: 12px &quot;Microsoft YaHei&quot;;"><tspan dominant-baseline="middle" text-anchor="middle" x="567" y="246.968994140625">85041</tspan></text><path d="M 1 0 A 1 1 0 1 0 1 0.0001" fill="#fff" fill-opacity="1" stroke="#c23531" stroke-width="0.5" paint-order="fill" stroke-opacity="1" stroke-dasharray="" stroke-linecap="butt" stroke-linejoin="miter" stroke-miterlimit="10" transform="matrix(2,0,0,2,585,251.3489990234375)" clip-path="none"></path><text transform="matrix(1,0,0,1,0,0)" fill="#c23531" fill-opacity="1" stroke="none" clip-path="none" style="font: 12px &quot;Microsoft YaHei&quot;;"><tspan dominant-baseline="middle" text-anchor="middle" x="585" y="237.8489990234375">89361</tspan></text><path d="M 1 0 A 1 1 0 1 0 1 0.0001" fill="#fff" fill-opacity="1" stroke="#c23531" stroke-width="0.5" paint-order="fill" stroke-opacity="1" stroke-dasharray="" stroke-linecap="butt" stroke-linejoin="miter" stroke-miterlimit="10" transform="matrix(2,0,0,2,603,440)" clip-path="none"></path><text transform="matrix(1,0,0,1,0,0)" fill="#c23531" fill-opacity="1" stroke="none" clip-path="none" style="font: 12px &quot;Microsoft YaHei&quot;;"><tspan dominant-baseline="middle" text-anchor="middle" x="603" y="426.5">0</tspan></text><path d="M 1 0 A 1 1 0 1 0 1 0.0001" fill="#fff" fill-opacity="1" stroke="#c23531" stroke-width="0.5" paint-order="fill" stroke-opacity="1" stroke-dasharray="" stroke-linecap="butt" stroke-linejoin="miter" stroke-miterlimit="10" transform="matrix(2,0,0,2,621,80.62977600097656)" clip-path="none"></path><text transform="matrix(1,0,0,1,0,0)" fill="#c23531" fill-opacity="1" stroke="none" clip-path="none" style="font: 12px &quot;Microsoft YaHei&quot;;"><tspan dominant-baseline="middle" text-anchor="middle" x="621" y="67.12977600097656">170228</tspan></text><path d="M 1 0 A 1 1 0 1 0 1 0.0001" fill="#fff" fill-opacity="1" stroke="#c23531" stroke-width="0.5" paint-order="fill" stroke-opacity="1" stroke-dasharray="" stroke-linecap="butt" stroke-linejoin="miter" stroke-miterlimit="10" transform="matrix(2,0,0,2,639,440)" clip-path="none"></path><text transform="matrix(1,0,0,1,0,0)" fill="#c23531" fill-opacity="1" stroke="none" clip-path="none" style="font: 12px &quot;Microsoft YaHei&quot;;"><tspan dominant-baseline="middle" text-anchor="middle" x="639" y="426.5">0</tspan></text><path d="M 1 0 A 1 1 0 1 0 1 0.0001" fill="#fff" fill-opacity="1" stroke="#c23531" stroke-width="0.5" paint-order="fill" stroke-opacity="1" stroke-dasharray="" stroke-linecap="butt" stroke-linejoin="miter" stroke-miterlimit="10" transform="matrix(2,0,0,2,657,132.51666259765625)" clip-path="none"></path><text transform="matrix(1,0,0,1,0,0)" fill="#c23531" fill-opacity="1" stroke="none" clip-path="none" style="font: 12px &quot;Microsoft YaHei&quot;;"><tspan dominant-baseline="middle" text-anchor="middle" x="657" y="119.01666259765625">145650</tspan></text><path d="M 1 0 A 1 1 0 1 0 1 0.0001" fill="#fff" fill-opacity="1" stroke="#c23531" stroke-width="0.5" paint-order="fill" stroke-opacity="1" stroke-dasharray="" stroke-linecap="butt" stroke-linejoin="miter" stroke-miterlimit="10" transform="matrix(2,0,0,2,675,266.17742919921875)" clip-path="none"></path><text transform="matrix(1,0,0,1,0,0)" fill="#c23531" fill-opacity="1" stroke="none" clip-path="none" style="font: 12px &quot;Microsoft YaHei&quot;;"><tspan dominant-baseline="middle" text-anchor="middle" x="675" y="252.67742919921875">82337</tspan></text><path d="M 1 0 A 1 1 0 1 0 1 0.0001" fill="#fff" fill-opacity="1" stroke="#c23531" stroke-width="0.5" paint-order="fill" stroke-opacity="1" stroke-dasharray="" stroke-linecap="butt" stroke-linejoin="miter" stroke-miterlimit="10" transform="matrix(2,0,0,2,693,251.5094451904297)" clip-path="none"></path><text transform="matrix(1,0,0,1,0,0)" fill="#c23531" fill-opacity="1" stroke="none" clip-path="none" style="font: 12px &quot;Microsoft YaHei&quot;;"><tspan dominant-baseline="middle" text-anchor="middle" x="693" y="238.0094451904297">89285</tspan></text><path d="M 1 0 A 1 1 0 1 0 1 0.0001" fill="#fff" fill-opacity="1" stroke="#c23531" stroke-width="0.5" paint-order="fill" stroke-opacity="1" stroke-dasharray="" stroke-linecap="butt" stroke-linejoin="miter" stroke-miterlimit="10" transform="matrix(2,0,0,2,711,267.33856201171875)" clip-path="none"></path><text transform="matrix(1,0,0,1,0,0)" fill="#c23531" fill-opacity="1" stroke="none" clip-path="none" style="font: 12px &quot;Microsoft YaHei&quot;;"><tspan dominant-baseline="middle" text-anchor="middle" x="711" y="253.83856201171875">81787</tspan></text><path d="M 1 0 A 1 1 0 1 0 1 0.0001" fill="#fff" fill-opacity="1" stroke="#c23531" stroke-width="0.5" paint-order="fill" stroke-opacity="1" stroke-dasharray="" stroke-linecap="butt" stroke-linejoin="miter" stroke-miterlimit="10" transform="matrix(2,0,0,2,729,440)" clip-path="none"></path><text transform="matrix(1,0,0,1,0,0)" fill="#c23531" fill-opacity="1" stroke="none" clip-path="none" style="font: 12px &quot;Microsoft YaHei&quot;;"><tspan dominant-baseline="middle" text-anchor="middle" x="729" y="426.5">0</tspan></text><path d="M 1 0 A 1 1 0 1 0 1 0.0001" fill="#fff" fill-opacity="1" stroke="#c23531" stroke-width="0.5" paint-order="fill" stroke-opacity="1" stroke-dasharray="" stroke-linecap="butt" stroke-linejoin="miter" stroke-miterlimit="10" transform="matrix(2,0,0,2,747,240.14111328125)" clip-path="none"></path><text transform="matrix(1,0,0,1,0,0)" fill="#c23531" fill-opacity="1" stroke="none" clip-path="none" style="font: 12px &quot;Microsoft YaHei&quot;;"><tspan dominant-baseline="middle" text-anchor="middle" x="747" y="226.64111328125">94670</tspan></text><path d="M 1 0 A 1 1 0 1 0 1 0.0001" fill="#fff" fill-opacity="1" stroke="#c23531" stroke-width="0.5" paint-order="fill" stroke-opacity="1" stroke-dasharray="" stroke-linecap="butt" stroke-linejoin="miter" stroke-miterlimit="10" transform="matrix(2,0,0,2,765,270.03656005859375)" clip-path="none"></path><text transform="matrix(1,0,0,1,0,0)" fill="#c23531" fill-opacity="1" stroke="none" clip-path="none" style="font: 12px &quot;Microsoft YaHei&quot;;"><tspan dominant-baseline="middle" text-anchor="middle" x="765" y="256.53656005859375">80509</tspan></text><path d="M 1 0 A 1 1 0 1 0 1 0.0001" fill="#fff" fill-opacity="1" stroke="#c23531" stroke-width="0.5" paint-order="fill" stroke-opacity="1" stroke-dasharray="" stroke-linecap="butt" stroke-linejoin="miter" stroke-miterlimit="10" transform="matrix(2,0,0,2,783,278.6604309082031)" clip-path="none"></path><text transform="matrix(1,0,0,1,0,0)" fill="#c23531" fill-opacity="1" stroke="none" clip-path="none" style="font: 12px &quot;Microsoft YaHei&quot;;"><tspan dominant-baseline="middle" text-anchor="middle" x="783" y="265.1604309082031">76424</tspan></text><path d="M 1 0 A 1 1 0 1 0 1 0.0001" fill="#fff" fill-opacity="1" stroke="#c23531" stroke-width="0.5" paint-order="fill" stroke-opacity="1" stroke-dasharray="" stroke-linecap="butt" stroke-linejoin="miter" stroke-miterlimit="10" transform="matrix(2,0,0,2,801,313.3882141113281)" clip-path="none"></path><text transform="matrix(1,0,0,1,0,0)" fill="#c23531" fill-opacity="1" stroke="none" clip-path="none" style="font: 12px &quot;Microsoft YaHei&quot;;"><tspan dominant-baseline="middle" text-anchor="middle" x="801" y="299.8882141113281">59974</tspan></text><path d="M -5 -5 L 83.5 -5 L 83.5 17.2 L -5 17.2 L -5 -5 Z" fill="#ffffff" fill-opacity="1" stroke="#ccc" stroke-width="0" paint-order="fill" stroke-opacity="1" stroke-dasharray="" stroke-linecap="butt" stroke-linejoin="miter" stroke-miterlimit="10" transform="matrix(1,0,0,1,410.75,5)" clip-path="none"></path><path d="M 0 7 L 25 7" fill="#000" fill-opacity="1" stroke="#c23531" stroke-width="1" paint-order="fill" stroke-opacity="1" stroke-dasharray="" stroke-linecap="butt" stroke-linejoin="miter" stroke-miterlimit="10" transform="matrix(1,0,0,1,411.25,4.099999904632568)" clip-path="none"></path><path d="M 18.1 7 A 5.6 5.6 0 1 0 18.1 7.0006" fill="#fff" fill-opacity="1" stroke="#c23531" stroke-width="1" paint-order="fill" stroke-opacity="1" stroke-dasharray="" stroke-linecap="butt" stroke-linejoin="miter" stroke-miterlimit="10" transform="matrix(1,0,0,1,411.25,4.099999904632568)" clip-path="none"></path><text transform="matrix(1,0,0,1,411.25,4.099999904632568)" fill="#333" fill-opacity="1" stroke="none" clip-path="none" style="font: 12px &quot;Microsoft YaHei&quot;;"><tspan dominant-baseline="middle" text-anchor="start" x="30" y="7">新增确诊</tspan></text><path d="M -5 -5 L 218.3018 -5 L 218.3018 23 L -5 23 L -5 -5 Z" fill="#ffffff" fill-opacity="1" stroke="#ccc" stroke-width="0" paint-order="fill" stroke-opacity="1" stroke-dasharray="" stroke-linecap="butt" stroke-linejoin="miter" stroke-miterlimit="10" transform="matrix(1,0,0,1,5,5)" clip-path="none"></path><text transform="matrix(1,0,0,1,5,5)" fill="#333" fill-opacity="1" stroke="none" clip-path="none" style="font: bolder 18px &quot;Microsoft YaHei&quot;;"><tspan dominant-baseline="middle" text-anchor="start" x="0" y="9">4月21日后台湾新增折线图</tspan></text><defs><clipPath id="zr2322-clip-0"><path d="M 89 59.5 L 810 59.5 L 810 440.5 L 89 440.5 L 89 59.5 Z" fill="#000" fill-opacity="1" stroke="none"></path></clipPath></defs></g></svg>