<svg xmlns="http://www.w3.org/2000/svg" version="1.1" baseProfile="full" width="900" height="500" style="user-select: none; position: absolute; left: 0px; top: 0px;">
<g>
<rect width="900" height="500" x="0" y="0" id="0" style="fill: rgb(255, 255, 255);">
</rect>
</g>
<g>
<path d="M 90 440.5 L 810 440.5" fill="none" stroke="#ccc" stroke-width="1" paint-order="fill" stroke-opacity="1" stroke-dasharray="" stroke-linecap="butt" stroke-linejoin="miter" stroke-miterlimit="10" clip-path="none">
</path>
<path d="M 90 376.5 L 810 376.5" fill="none" stroke="#ccc" stroke-width="1" paint-order="fill" stroke-opacity="1" stroke-dasharray="" stroke-linecap="butt" stroke-linejoin="miter" stroke-miterlimit="10" clip-path="none">
</path>
<path d="M 90 313.5 L 810 313.5" fill="none" stroke="#ccc" stroke-width="1" paint-order="fill" stroke-opacity="1" stroke-dasharray="" stroke-linecap="butt" stroke-linejoin="miter" stroke-miterlimit="10" clip-path="none">
</path>
<path d="M 90 250.5 L 810 250.5" fill="none" stroke="#ccc" stroke-width="1" paint-order="fill" stroke-opacity="1" stroke-dasharray="" stroke-linecap="butt" stroke-linejoin="miter" stroke-miterlimit="10" clip-path="none">
</path>
<path d="M 90 186.5 L 810 186.5" fill="none" stroke="#ccc" stroke-width="1" paint-order="fill" stroke-opacity="1" stroke-dasharray="" stroke-linecap="butt" stroke-linejoin="miter" stroke-miterlimit="10" clip-path="none">
</path>
<path d="M 90 123.5 L 810 123.5" fill="none" stroke="#ccc" stroke-width="1" paint-order="fill" stroke-opacity="1" stroke-dasharray="" stroke-linecap="butt" stroke-linejoin="miter" stroke-miterlimit="10" clip-path="none">
</path>
<path d="M 90 60.5 L 810 60.5" fill="none" stroke="#ccc" stroke-width="1" paint-order="fill" stroke-opacity="1" stroke-dasharray="" stroke-linecap="butt" stroke-linejoin="miter" stroke-miterlimit="10" clip-path="none">
</path>
<path d="M 90.5 440 L 90.5 60" fill="none" stroke="#333" stroke-width="1" paint-order="fill" stroke-opacity="1" stroke-dasharray="" stroke-linecap="round" stroke-linejoin="miter" stroke-miterlimit="10" clip-path="none">
</path>
<path d="M 90 440.5 L 810 440.5" fill="none" stroke="#333" stroke-width="1" paint-order="fill" stroke-opacity="1" stroke-dasharray="" stroke-linecap="round" stroke-linejoin="miter" stroke-miterlimit="10" clip-path="none">
</path>
<path d="M 90 440.5 L 85 440.5" fill="none" stroke="#333" stroke-width="1" paint-order="fill" stroke-opacity="1" stroke-dasharray="" stroke-linecap="butt" stroke-linejoin="miter" stroke-miterlimit="10" clip-path="none">
</path>
<path d="M 90 376.5 L 85 376.5" fill="none" stroke="#333" stroke-width="1" paint-order="fill" stroke-opacity="1" stroke-dasharray="" stroke-linecap="butt" stroke-linejoin="miter" stroke-miterlimit="10" clip-path="none">
</path>
<path d="M 90 313.5 L 85 313.5" fill="none" stroke="#333" stroke-width="1" paint-order="fill" stroke-opacity="1" stroke-dasharray="" stroke-linecap="butt" stroke-linejoin="miter" stroke-miterlimit="10" clip-path="none">
</path>
<path d="M 90 250.5 L 85 250.5" fill="none" stroke="#333" stroke-width="1" paint-order="fill" stroke-opacity="1" stroke-dasharray="" stroke-linecap="butt" stroke-linejoin="miter" stroke-miterlimit="10" clip-path="none">
</path>
<path d="M 90 186.5 L 85 186.5" fill="none" stroke="#333" stroke-width="1" paint-order="fill" stroke-opacity="1" stroke-dasharray="" stroke-linecap="butt" stroke-linejoin="miter" stroke-miterlimit="10" clip-path="none">
</path>
<path d="M 90 123.5 L 85 123.5" fill="none" stroke="#333" stroke-width="1" paint-order="fill" stroke-opacity="1" stroke-dasharray="" stroke-linecap="butt" stroke-linejoin="miter" stroke-miterlimit="10" clip-path="none">
</path>
<path d="M 90 60.5 L 85 60.5" fill="none" stroke="#333" stroke-width="1" paint-order="fill" stroke-opacity="1" stroke-dasharray="" stroke-linecap="butt" stroke-linejoin="miter" stroke-miterlimit="10" clip-path="none">
</path>
<path d="M 90.5 440 L 90.5 445" fill="none" stroke="#333" stroke-width="1" paint-order="fill" stroke-opacity="1" stroke-dasharray="" stroke-linecap="butt" stroke-linejoin="miter" stroke-miterlimit="10" clip-path="none">
</path>
<path d="M 147.5 440 L 147.5 445" fill="none" stroke="#333" stroke-width="1" paint-order="fill" stroke-opacity="1" stroke-dasharray="" stroke-linecap="butt" stroke-linejoin="miter" stroke-miterlimit="10" clip-path="none">
</path>
<path d="M 205.5 440 L 205.5 445" fill="none" stroke="#333" stroke-width="1" paint-order="fill" stroke-opacity="1" stroke-dasharray="" stroke-linecap="butt" stroke-linejoin="miter" stroke-miterlimit="10" clip-path="none">
</path>
<path d="M 263.5 440 L 263.5 445" fill="none" stroke="#333" stroke-width="1" paint-order="fill" stroke-opacity="1" stroke-dasharray="" stroke-linecap="butt" stroke-linejoin="miter" stroke-miterlimit="10" clip-path="none">
</path>
<path d="M 320.5 440 L 320.5 445" fill="none" stroke="#333" stroke-width="1" paint-order="fill" stroke-opacity="1" stroke-dasharray="" stroke-linecap="butt" stroke-linejoin="miter" stroke-miterlimit="10" clip-path="none">
</path>
<path d="M 378.5 440 L 378.5 445" fill="none" stroke="#333" stroke-width="1" paint-order="fill" stroke-opacity="1" stroke-dasharray="" stroke-linecap="butt" stroke-linejoin="miter" stroke-miterlimit="10" clip-path="none">
</path>
<path d="M 435.5 440 L 435.5 445" fill="none" stroke="#333" stroke-width="1" paint-order="fill" stroke-opacity="1" stroke-dasharray="" stroke-linecap="butt" stroke-linejoin="miter" stroke-miterlimit="10" clip-path="none">
</path>
<path d="M 493.5 440 L 493.5 445" fill="none" stroke="#333" stroke-width="1" paint-order="fill" stroke-opacity="1" stroke-dasharray="" stroke-linecap="butt" stroke-linejoin="miter" stroke-miterlimit="10" clip-path="none">
</path>
<path d="M 551.5 440 L 551.5 445" fill="none" stroke="#333" stroke-width="1" paint-order="fill" stroke-opacity="1" stroke-dasharray="" stroke-linecap="butt" stroke-linejoin="miter" stroke-miterlimit="10" clip-path="none">
</path>
<path d="M 608.5 440 L 608.5 445" fill="none" stroke="#333" stroke-width="1" paint-order="fill" stroke-opacity="1" stroke-dasharray="" stroke-linecap="butt" stroke-linejoin="miter" stroke-miterlimit="10" clip-path="none">
</path>
<path d="M 666.5 440 L 666.5 445" fill="none" stroke="#333" stroke-width="1" paint-order="fill" stroke-opacity="1" stroke-dasharray="" stroke-linecap="butt" stroke-linejoin="miter" stroke-miterlimit="10" clip-path="none">
</path>
<path d="M 723.5 440 L 723.5 445" fill="none" stroke="#333" stroke-width="1" paint-order="fill" stroke-opacity="1" stroke-dasharray="" stroke-linecap="butt" stroke-linejoin="miter" stroke-miterlimit="10" clip-path="none">
</path>
<path d="M 781.5 440 L 781.5 445" fill="none" stroke="#333" stroke-width="1" paint-order="fill" stroke-opacity="1" stroke-dasharray="" stroke-linecap="butt" stroke-linejoin="miter" stroke-miterlimit="10" clip-path="none">
</path>
<path d="M 810.5 440 L 810.5 445" fill="none" stroke="#333" stroke-width="1" paint-order="fill" stroke-opacity="1" stroke-dasharray="" stroke-linecap="butt" stroke-linejoin="miter" stroke-miterlimit="10" clip-path="none">
</path>
<text transform="matrix(1,2.4492937051703357e-16,-2.4492937051703357e-16,1,82,440)" fill="#333" fill-opacity="1" stroke="none" clip-path="none" style="font: 12px &quot;Microsoft YaHei&quot;;">
<tspan dominant-baseline="middle" text-anchor="end" x="0" y="0">0</tspan>
</text>
<text transform="matrix(1,2.4492937051703357e-16,-2.4492937051703357e-16,1,82,376.6666564941406)" fill="#333" fill-opacity="1" stroke="none" clip-path="none" style="font: 12px &quot;Microsoft YaHei&quot;;">
<tspan dominant-baseline="middle" text-anchor="end" x="0" y="0">3,000</tspan>
</text>
<text transform="matrix(1,2.4492937051703357e-16,-2.4492937051703357e-16,1,82,313.3333435058594)" fill="#333" fill-opacity="1" stroke="none" clip-path="none" style="font: 12px &quot;Microsoft YaHei&quot;;">
<tspan dominant-baseline="middle" text-anchor="end" x="0" y="0">6,000</tspan>
</text>
<text transform="matrix(1,2.4492937051703357e-16,-2.4492937051703357e-16,1,82,250)" fill="#333" fill-opacity="1" stroke="none" clip-path="none" style="font: 12px &quot;Microsoft YaHei&quot;;">
<tspan dominant-baseline="middle" text-anchor="end" x="0" y="0">9,000</tspan>
</text>
<text transform="matrix(1,2.4492937051703357e-16,-2.4492937051703357e-16,1,82,186.6666717529297)" fill="#333" fill-opacity="1" stroke="none" clip-path="none" style="font: 12px &quot;Microsoft YaHei&quot;;">
<tspan dominant-baseline="middle" text-anchor="end" x="0" y="0">12,000</tspan>
</text>
<text transform="matrix(1,2.4492937051703357e-16,-2.4492937051703357e-16,1,82,123.33334350585938)" fill="#333" fill-opacity="1" stroke="none" clip-path="none" style="font: 12px &quot;Microsoft YaHei&quot;;">
<tspan dominant-baseline="middle" text-anchor="end" x="0" y="0">15,000</tspan>
</text>
<text transform="matrix(1,2.4492937051703357e-16,-2.4492937051703357e-16,1,82,60)" fill="#333" fill-opacity="1" stroke="none" clip-path="none" style="font: 12px &quot;Microsoft YaHei&quot;;">
<tspan dominant-baseline="middle" text-anchor="end" x="0" y="0">18,000</tspan>
</text>
<text transform="matrix(0.8660253882408142,-0.5,0.5,0.8660253882408142,104.4000015258789,448)" fill="#333" fill-opacity="1" stroke="none" clip-path="none" style="font: 12px &quot;Microsoft YaHei&quot;;">
<tspan dominant-baseline="middle" text-anchor="end" x="0" y="0">2021-05-05</tspan>
</text>
<text transform="matrix(0.8660253882408142,-0.5,0.5,0.8660253882408142,162,448)" fill="#333" fill-opacity="1" stroke="none" clip-path="none" style="font: 12px &quot;Microsoft YaHei&quot;;">
<tspan dominant-baseline="middle" text-anchor="end" x="0" y="0">2021-05-15</tspan>
</text>
<text transform="matrix(0.8660253882408142,-0.5,0.5,0.8660253882408142,219.60000610351562,448)" fill="#333" fill-opacity="1" stroke="none" clip-path="none" style="font: 12px &quot;Microsoft YaHei&quot;;">
<tspan dominant-baseline="middle" text-anchor="end" x="0" y="0">2021-05-25</tspan>
</text>
<text transform="matrix(0.8660253882408142,-0.5,0.5,0.8660253882408142,277.20001220703125,448)" fill="#333" fill-opacity="1" stroke="none" clip-path="none" style="font: 12px &quot;Microsoft YaHei&quot;;">
<tspan dominant-baseline="middle" text-anchor="end" x="0" y="0">2021-06-04</tspan>
</text>
<text transform="matrix(0.8660253882408142,-0.5,0.5,0.8660253882408142,334.79998779296875,448)" fill="#333" fill-opacity="1" stroke="none" clip-path="none" style="font: 12px &quot;Microsoft YaHei&quot;;">
<tspan dominant-baseline="middle" text-anchor="end" x="0" y="0">2021-06-14</tspan>
</text>
<text transform="matrix(0.8660253882408142,-0.5,0.5,0.8660253882408142,392.3999938964844,448)" fill="#333" fill-opacity="1" stroke="none" clip-path="none" style="font: 12px &quot;Microsoft YaHei&quot;;">
<tspan dominant-baseline="middle" text-anchor="end" x="0" y="0">2021-06-24</tspan>
</text>
<text transform="matrix(0.8660253882408142,-0.5,0.5,0.8660253882408142,450,448)" fill="#333" fill-opacity="1" stroke="none" clip-path="none" style="font: 12px &quot;Microsoft YaHei&quot;;">
<tspan dominant-baseline="middle" text-anchor="end" x="0" y="0">2021-07-04</tspan>
</text>
<text transform="matrix(0.8660253882408142,-0.5,0.5,0.8660253882408142,507.6000061035156,448)" fill="#333" fill-opacity="1" stroke="none" clip-path="none" style="font: 12px &quot;Microsoft YaHei&quot;;">
<tspan dominant-baseline="middle" text-anchor="end" x="0" y="0">2021-07-14</tspan>
</text>
<text transform="matrix(0.8660253882408142,-0.5,0.5,0.8660253882408142,565.2000122070312,448)" fill="#333" fill-opacity="1" stroke="none" clip-path="none" style="font: 12px &quot;Microsoft YaHei&quot;;">
<tspan dominant-baseline="middle" text-anchor="end" x="0" y="0">2021-07-24</tspan>
</text>
<text transform="matrix(0.8660253882408142,-0.5,0.5,0.8660253882408142,622.7999877929688,448)" fill="#333" fill-opacity="1" stroke="none" clip-path="none" style="font: 12px &quot;Microsoft YaHei&quot;;">
<tspan dominant-baseline="middle" text-anchor="end" x="0" y="0">2021-08-03</tspan>
</text>
<text transform="matrix(0.8660253882408142,-0.5,0.5,0.8660253882408142,680.4000244140625,448)" fill="#333" fill-opacity="1" stroke="none" clip-path="none" style="font: 12px &quot;Microsoft YaHei&quot;;">
<tspan dominant-baseline="middle" text-anchor="end" x="0" y="0">2021-08-13</tspan>
</text>
<text transform="matrix(0.8660253882408142,-0.5,0.5,0.8660253882408142,738,448)" fill="#333" fill-opacity="1" stroke="none" clip-path="none" style="font: 12px &quot;Microsoft YaHei&quot;;">
<tspan dominant-baseline="middle" text-anchor="end" x="0" y="0">2021-08-23</tspan>
</text>
<text transform="matrix(0.8660253882408142,-0.5,0.5,0.8660253882408142,795.5999755859375,448)" fill="#333" fill-opacity="1" stroke="none" clip-path="none" style="font: 12px &quot;Microsoft YaHei&quot;;">
<tspan dominant-baseline="middle" text-anchor="end" x="0" y="0">2021-09-02</tspan>
</text>
<path d="M 0 -1 L 1 1 L -1 1 Z" fill="black" fill-opacity="0.8" stroke="none" transform="matrix(5,0,0,5,104.4000015258789,439.7466735839844)" clip-path="none">
</path>
<text transform="matrix(1,0,0,1,0,0)" fill="black" fill-opacity="0.8" stroke="none" clip-path="none" style="font: 12px &quot;Microsoft YaHei&quot;;">
<tspan dominant-baseline="middle" text-anchor="start" x="114.4000015258789" y="439.7466735839844">12</tspan>
</text>
<path d="M 0 -1 L 1 1 L -1 1 Z" fill="black" fill-opacity="0.8" stroke="none" transform="matrix(5,0,0,5,133.1999969482422,439.7466735839844)" clip-path="none">
</path>
<text transform="matrix(1,0,0,1,0,0)" fill="black" fill-opacity="0.8" stroke="none" clip-path="none" style="font: 12px &quot;Microsoft YaHei&quot;;">
<tspan dominant-baseline="middle" text-anchor="start" x="143.1999969482422" y="439.7466735839844">12</tspan>
</text>
<path d="M 0 -1 L 1 1 L -1 1 Z" fill="black" fill-opacity="0.8" stroke="none" transform="matrix(5,0,0,5,162,439.7466735839844)" clip-path="none">
</path>
<text transform="matrix(1,0,0,1,0,0)" fill="black" fill-opacity="0.8" stroke="none" clip-path="none" style="font: 12px &quot;Microsoft YaHei&quot;;">
<tspan dominant-baseline="middle" text-anchor="start" x="172" y="439.7466735839844">12</tspan>
</text>
<path d="M 0 -1 L 1 1 L -1 1 Z" fill="black" fill-opacity="0.8" stroke="none" transform="matrix(5,0,0,5,190.8000030517578,439.6833190917969)" clip-path="none">
</path>
<text transform="matrix(1,0,0,1,0,0)" fill="black" fill-opacity="0.8" stroke="none" clip-path="none" style="font: 12px &quot;Microsoft YaHei&quot;;">
<tspan dominant-baseline="middle" text-anchor="start" x="200.8000030517578" y="439.6833190917969">15</tspan>
</text>
<path d="M 0 -1 L 1 1 L -1 1 Z" fill="black" fill-opacity="0.8" stroke="none" transform="matrix(5,0,0,5,219.60000610351562,439.0289001464844)" clip-path="none">
</path>
<text transform="matrix(1,0,0,1,0,0)" fill="black" fill-opacity="0.8" stroke="none" clip-path="none" style="font: 12px &quot;Microsoft YaHei&quot;;">
<tspan dominant-baseline="middle" text-anchor="start" x="229.60000610351562" y="439.0289001464844">46</tspan>
</text>
<path d="M 0 -1 L 1 1 L -1 1 Z" fill="black" fill-opacity="0.8" stroke="none" transform="matrix(5,0,0,5,248.39999389648438,437.6988830566406)" clip-path="none">
</path>
<text transform="matrix(1,0,0,1,0,0)" fill="black" fill-opacity="0.8" stroke="none" clip-path="none" style="font: 12px &quot;Microsoft YaHei&quot;;">
<tspan dominant-baseline="middle" text-anchor="start" x="258.3999938964844" y="437.6988830566406">109</tspan>
</text>
<path d="M 0 -1 L 1 1 L -1 1 Z" fill="black" fill-opacity="0.8" stroke="none" transform="matrix(5,0,0,5,277.20001220703125,435.2711181640625)" clip-path="none">
</path>
<text transform="matrix(1,0,0,1,0,0)" fill="black" fill-opacity="0.8" stroke="none" clip-path="none" style="font: 12px &quot;Microsoft YaHei&quot;;">
<tspan dominant-baseline="middle" text-anchor="start" x="287.20001220703125" y="435.2711181640625">224</tspan>
</text>
<path d="M 0 -1 L 1 1 L -1 1 Z" fill="black" fill-opacity="0.8" stroke="none" transform="matrix(5,0,0,5,306,432.9700012207031)" clip-path="none">
</path>
<text transform="matrix(1,0,0,1,0,0)" fill="black" fill-opacity="0.8" stroke="none" clip-path="none" style="font: 12px &quot;Microsoft YaHei&quot;;">
<tspan dominant-baseline="middle" text-anchor="start" x="316" y="432.9700012207031">333</tspan>
</text>
<path d="M 0 -1 L 1 1 L -1 1 Z" fill="black" fill-opacity="0.8" stroke="none" transform="matrix(5,0,0,5,334.79998779296875,430.28887939453125)" clip-path="none">
</path>
<text transform="matrix(1,0,0,1,0,0)" fill="black" fill-opacity="0.8" stroke="none" clip-path="none" style="font: 12px &quot;Microsoft YaHei&quot;;">
<tspan dominant-baseline="middle" text-anchor="start" x="344.79998779296875" y="430.28887939453125">460</tspan>
</text>
<path d="M 0 -1 L 1 1 L -1 1 Z" fill="black" fill-opacity="0.8" stroke="none" transform="matrix(5,0,0,5,363.6000061035156,428.6422119140625)" clip-path="none">
</path>
<text transform="matrix(1,0,0,1,0,0)" fill="black" fill-opacity="0.8" stroke="none" clip-path="none" style="font: 12px &quot;Microsoft YaHei&quot;;">
<tspan dominant-baseline="middle" text-anchor="start" x="373.6000061035156" y="428.6422119140625">538</tspan>
</text>
<path d="M 0 -1 L 1 1 L -1 1 Z" fill="black" fill-opacity="0.8" stroke="none" transform="matrix(5,0,0,5,392.3999938964844,427.227783203125)" clip-path="none">
</path>
<text transform="matrix(1,0,0,1,0,0)" fill="black" fill-opacity="0.8" stroke="none" clip-path="none" style="font: 12px &quot;Microsoft YaHei&quot;;">
<tspan dominant-baseline="middle" text-anchor="start" x="402.3999938964844" y="427.227783203125">605</tspan>
</text>
<path d="M 0 -1 L 1 1 L -1 1 Z" fill="black" fill-opacity="0.8" stroke="none" transform="matrix(5,0,0,5,421.20001220703125,426.4255676269531)" clip-path="none">
</path>
<text transform="matrix(1,0,0,1,0,0)" fill="black" fill-opacity="0.8" stroke="none" clip-path="none" style="font: 12px &quot;Microsoft YaHei&quot;;">
<tspan dominant-baseline="middle" text-anchor="start" x="431.20001220703125" y="426.4255676269531">643</tspan>
</text>
<path d="M 0 -1 L 1 1 L -1 1 Z" fill="black" fill-opacity="0.8" stroke="none" transform="matrix(5,0,0,5,450,425.4755554199219)" clip-path="none">
</path>
<text transform="matrix(1,0,0,1,0,0)" fill="black" fill-opacity="0.8" stroke="none" clip-path="none" style="font: 12px &quot;Microsoft YaHei&quot;;">
<tspan dominant-baseline="middle" text-anchor="start" x="460" y="425.4755554199219">688</tspan>
</text>
<path d="M 0 -1 L 1 1 L -1 1 Z" fill="black" fill-opacity="0.8" stroke="none" transform="matrix(5,0,0,5,478.79998779296875,424.46221923828125)" clip-path="none">
</path>
<text transform="matrix(1,0,0,1,0,0)" fill="black" fill-opacity="0.8" stroke="none" clip-path="none" style="font: 12px &quot;Microsoft YaHei&quot;;">
<tspan dominant-baseline="middle" text-anchor="start" x="488.79998779296875" y="424.46221923828125">736</tspan>
</text>
<path d="M 0 -1 L 1 1 L -1 1 Z" fill="black" fill-opacity="0.8" stroke="none" transform="matrix(5,0,0,5,507.6000061035156,424.10333251953125)" clip-path="none">
</path>
<text transform="matrix(1,0,0,1,0,0)" fill="black" fill-opacity="0.8" stroke="none" clip-path="none" style="font: 12px &quot;Microsoft YaHei&quot;;">
<tspan dominant-baseline="middle" text-anchor="start" x="517.6000061035156" y="424.10333251953125">753</tspan>
</text>
<path d="M 0 -1 L 1 1 L -1 1 Z" fill="black" fill-opacity="0.8" stroke="none" transform="matrix(5,0,0,5,536.4000244140625,423.6811218261719)" clip-path="none">
</path>
<text transform="matrix(1,0,0,1,0,0)" fill="black" fill-opacity="0.8" stroke="none" clip-path="none" style="font: 12px &quot;Microsoft YaHei&quot;;">
<tspan dominant-baseline="middle" text-anchor="start" x="546.4000244140625" y="423.6811218261719">773</tspan>
</text>
<path d="M 0 -1 L 1 1 L -1 1 Z" fill="black" fill-opacity="0.8" stroke="none" transform="matrix(5,0,0,5,565.2000122070312,423.40667724609375)" clip-path="none">
</path>
<text transform="matrix(1,0,0,1,0,0)" fill="black" fill-opacity="0.8" stroke="none" clip-path="none" style="font: 12px &quot;Microsoft YaHei&quot;;">
<tspan dominant-baseline="middle" text-anchor="start" x="575.2000122070312" y="423.40667724609375">786</tspan>
</text>
<path d="M 0 -1 L 1 1 L -1 1 Z" fill="black" fill-opacity="0.8" stroke="none" transform="matrix(5,0,0,5,594,423.38555908203125)" clip-path="none">
</path>
<text transform="matrix(1,0,0,1,0,0)" fill="black" fill-opacity="0.8" stroke="none" clip-path="none" style="font: 12px &quot;Microsoft YaHei&quot;;">
<tspan dominant-baseline="middle" text-anchor="start" x="604" y="423.38555908203125">787</tspan>
</text>
<path d="M 0 -1 L 1 1 L -1 1 Z" fill="black" fill-opacity="0.8" stroke="none" transform="matrix(5,0,0,5,622.7999877929688,423.3011169433594)" clip-path="none">
</path>
<text transform="matrix(1,0,0,1,0,0)" fill="black" fill-opacity="0.8" stroke="none" clip-path="none" style="font: 12px &quot;Microsoft YaHei&quot;;">
<tspan dominant-baseline="middle" text-anchor="start" x="632.7999877929688" y="423.3011169433594">791</tspan>
</text>
<path d="M 0 -1 L 1 1 L -1 1 Z" fill="black" fill-opacity="0.8" stroke="none" transform="matrix(5,0,0,5,651.5999755859375,422.9211120605469)" clip-path="none">
</path>
<text transform="matrix(1,0,0,1,0,0)" fill="black" fill-opacity="0.8" stroke="none" clip-path="none" style="font: 12px &quot;Microsoft YaHei&quot;;">
<tspan dominant-baseline="middle" text-anchor="start" x="661.5999755859375" y="422.9211120605469">809</tspan>
</text>
<path d="M 0 -1 L 1 1 L -1 1 Z" fill="black" fill-opacity="0.8" stroke="none" transform="matrix(5,0,0,5,680.4000244140625,422.7099914550781)" clip-path="none">
</path>
<text transform="matrix(1,0,0,1,0,0)" fill="black" fill-opacity="0.8" stroke="none" clip-path="none" style="font: 12px &quot;Microsoft YaHei&quot;;">
<tspan dominant-baseline="middle" text-anchor="start" x="690.4000244140625" y="422.7099914550781">819</tspan>
</text>
<path d="M 0 -1 L 1 1 L -1 1 Z" fill="black" fill-opacity="0.8" stroke="none" transform="matrix(5,0,0,5,709.2000122070312,422.5622253417969)" clip-path="none">
</path>
<text transform="matrix(1,0,0,1,0,0)" fill="black" fill-opacity="0.8" stroke="none" clip-path="none" style="font: 12px &quot;Microsoft YaHei&quot;;">
<tspan dominant-baseline="middle" text-anchor="start" x="719.2000122070312" y="422.5622253417969">826</tspan>
</text>
<path d="M 0 -1 L 1 1 L -1 1 Z" fill="black" fill-opacity="0.8" stroke="none" transform="matrix(5,0,0,5,738,422.5199890136719)" clip-path="none">
</path>
<text transform="matrix(1,0,0,1,0,0)" fill="black" fill-opacity="0.8" stroke="none" clip-path="none" style="font: 12px &quot;Microsoft YaHei&quot;;">
<tspan dominant-baseline="middle" text-anchor="start" x="748" y="422.5199890136719">828</tspan>
</text>
<path d="M 0 -1 L 1 1 L -1 1 Z" fill="black" fill-opacity="0.8" stroke="none" transform="matrix(5,0,0,5,766.7999877929688,422.4144592285156)" clip-path="none">
</path>
<text transform="matrix(1,0,0,1,0,0)" fill="black" fill-opacity="0.8" stroke="none" clip-path="none" style="font: 12px &quot;Microsoft YaHei&quot;;">
<tspan dominant-baseline="middle" text-anchor="start" x="776.7999877929688" y="422.4144592285156">833</tspan>
</text>
<path d="M 0 -1 L 1 1 L -1 1 Z" fill="black" fill-opacity="0.8" stroke="none" transform="matrix(5,0,0,5,795.5999755859375,422.3299865722656)" clip-path="none">
</path>
<text transform="matrix(1,0,0,1,0,0)" fill="black" fill-opacity="0.8" stroke="none" clip-path="none" style="font: 12px &quot;Microsoft YaHei&quot;;">
<tspan dominant-baseline="middle" text-anchor="start" x="805.5999755859375" y="422.3299865722656">837</tspan>
</text>
<path d="M 1 0 A 1 1 0 1 0 1 0.0001" fill="green" fill-opacity="0.8" stroke="none" transform="matrix(5,0,0,5,104.4000015258789,417.32666015625)" clip-path="none">
</path>
<text transform="matrix(1,0,0,1,0,0)" fill="green" fill-opacity="0.8" stroke="none" clip-path="none" style="font: 12px &quot;Microsoft YaHei&quot;;">
<tspan dominant-baseline="middle" text-anchor="start" x="114.4000015258789" y="417.32666015625">1074</tspan>
</text>
<path d="M 1 0 A 1 1 0 1 0 1 0.0001" fill="green" fill-opacity="0.8" stroke="none" transform="matrix(5,0,0,5,133.1999969482422,416.9255676269531)" clip-path="none">
</path>
<text transform="matrix(1,0,0,1,0,0)" fill="green" fill-opacity="0.8" stroke="none" clip-path="none" style="font: 12px &quot;Microsoft YaHei&quot;;">
<tspan dominant-baseline="middle" text-anchor="start" x="143.1999969482422" y="416.9255676269531">1093</tspan>
</text>
<path d="M 1 0 A 1 1 0 1 0 1 0.0001" fill="green" fill-opacity="0.8" stroke="none" transform="matrix(5,0,0,5,162,416.44000244140625)" clip-path="none">
</path>
<text transform="matrix(1,0,0,1,0,0)" fill="green" fill-opacity="0.8" stroke="none" clip-path="none" style="font: 12px &quot;Microsoft YaHei&quot;;">
<tspan dominant-baseline="middle" text-anchor="start" x="172" y="416.44000244140625">1116</tspan>
</text>
<path d="M 1 0 A 1 1 0 1 0 1 0.0001" fill="green" fill-opacity="0.8" stroke="none" transform="matrix(5,0,0,5,190.8000030517578,416.08111572265625)" clip-path="none">
</path>
<text transform="matrix(1,0,0,1,0,0)" fill="green" fill-opacity="0.8" stroke="none" clip-path="none" style="font: 12px &quot;Microsoft YaHei&quot;;">
<tspan dominant-baseline="middle" text-anchor="start" x="200.8000030517578" y="416.08111572265625">1133</tspan>
</text>
<path d="M 1 0 A 1 1 0 1 0 1 0.0001" fill="green" fill-opacity="0.8" stroke="none" transform="matrix(5,0,0,5,219.60000610351562,416.08111572265625)" clip-path="none">
</path>
<text transform="matrix(1,0,0,1,0,0)" fill="green" fill-opacity="0.8" stroke="none" clip-path="none" style="font: 12px &quot;Microsoft YaHei&quot;;">
<tspan dominant-baseline="middle" text-anchor="start" x="229.60000610351562" y="416.08111572265625">1133</tspan>
</text>
<path d="M 1 0 A 1 1 0 1 0 1 0.0001" fill="green" fill-opacity="0.8" stroke="none" transform="matrix(5,0,0,5,248.39999389648438,416.08111572265625)" clip-path="none">
</path>
<text transform="matrix(1,0,0,1,0,0)" fill="green" fill-opacity="0.8" stroke="none" clip-path="none" style="font: 12px &quot;Microsoft YaHei&quot;;">
<tspan dominant-baseline="middle" text-anchor="start" x="258.3999938964844" y="416.08111572265625">1133</tspan>
</text>
<path d="M 1 0 A 1 1 0 1 0 1 0.0001" fill="green" fill-opacity="0.8" stroke="none" transform="matrix(5,0,0,5,277.20001220703125,416.08111572265625)" clip-path="none">
</path>
<text transform="matrix(1,0,0,1,0,0)" fill="green" fill-opacity="0.8" stroke="none" clip-path="none" style="font: 12px &quot;Microsoft YaHei&quot;;">
<tspan dominant-baseline="middle" text-anchor="start" x="287.20001220703125" y="416.08111572265625">1133</tspan>
</text>
<path d="M 1 0 A 1 1 0 1 0 1 0.0001" fill="green" fill-opacity="0.8" stroke="none" transform="matrix(5,0,0,5,306,416.08111572265625)" clip-path="none">
</path>
<text transform="matrix(1,0,0,1,0,0)" fill="green" fill-opacity="0.8" stroke="none" clip-path="none" style="font: 12px &quot;Microsoft YaHei&quot;;">
<tspan dominant-baseline="middle" text-anchor="start" x="316" y="416.08111572265625">1133</tspan>
</text>
<path d="M 1 0 A 1 1 0 1 0 1 0.0001" fill="green" fill-opacity="0.8" stroke="none" transform="matrix(5,0,0,5,334.79998779296875,416.08111572265625)" clip-path="none">
</path>
<text transform="matrix(1,0,0,1,0,0)" fill="green" fill-opacity="0.8" stroke="none" clip-path="none" style="font: 12px &quot;Microsoft YaHei&quot;;">
<tspan dominant-baseline="middle" text-anchor="start" x="344.79998779296875" y="416.08111572265625">1133</tspan>
</text>
<path d="M 1 0 A 1 1 0 1 0 1 0.0001" fill="green" fill-opacity="0.8" stroke="none" transform="matrix(5,0,0,5,363.6000061035156,416.08111572265625)" clip-path="none">
</path>
<text transform="matrix(1,0,0,1,0,0)" fill="green" fill-opacity="0.8" stroke="none" clip-path="none" style="font: 12px &quot;Microsoft YaHei&quot;;">
<tspan dominant-baseline="middle" text-anchor="start" x="373.6000061035156" y="416.08111572265625">1133</tspan>
</text>
<path d="M 1 0 A 1 1 0 1 0 1 0.0001" fill="green" fill-opacity="0.8" stroke="none" transform="matrix(5,0,0,5,392.3999938964844,243.9199981689453)" clip-path="none">
</path>
<text transform="matrix(1,0,0,1,0,0)" fill="green" fill-opacity="0.8" stroke="none" clip-path="none" style="font: 12px &quot;Microsoft YaHei&quot;;">
<tspan dominant-baseline="middle" text-anchor="start" x="402.3999938964844" y="243.9199981689453">9288</tspan>
</text>
<path d="M 1 0 A 1 1 0 1 0 1 0.0001" fill="green" fill-opacity="0.8" stroke="none" transform="matrix(5,0,0,5,421.20001220703125,227.07333374023438)" clip-path="none">
</path>
<text transform="matrix(1,0,0,1,0,0)" fill="green" fill-opacity="0.8" stroke="none" clip-path="none" style="font: 12px &quot;Microsoft YaHei&quot;;">
<tspan dominant-baseline="middle" text-anchor="start" x="431.20001220703125" y="227.07333374023438">10086</tspan>
</text>
<path d="M 1 0 A 1 1 0 1 0 1 0.0001" fill="green" fill-opacity="0.8" stroke="none" transform="matrix(5,0,0,5,450,210.56443786621094)" clip-path="none">
</path>
<text transform="matrix(1,0,0,1,0,0)" fill="green" fill-opacity="0.8" stroke="none" clip-path="none" style="font: 12px &quot;Microsoft YaHei&quot;;">
<tspan dominant-baseline="middle" text-anchor="start" x="460" y="210.56443786621094">10868</tspan>
</text>
<path d="M 1 0 A 1 1 0 1 0 1 0.0001" fill="green" fill-opacity="0.8" stroke="none" transform="matrix(5,0,0,5,478.79998779296875,193.04222106933594)" clip-path="none">
</path>
<text transform="matrix(1,0,0,1,0,0)" fill="green" fill-opacity="0.8" stroke="none" clip-path="none" style="font: 12px &quot;Microsoft YaHei&quot;;">
<tspan dominant-baseline="middle" text-anchor="start" x="488.79998779296875" y="193.04222106933594">11698</tspan>
</text>
<path d="M 1 0 A 1 1 0 1 0 1 0.0001" fill="green" fill-opacity="0.8" stroke="none" transform="matrix(5,0,0,5,507.6000061035156,187.42666625976562)" clip-path="none">
</path>
<text transform="matrix(1,0,0,1,0,0)" fill="green" fill-opacity="0.8" stroke="none" clip-path="none" style="font: 12px &quot;Microsoft YaHei&quot;;">
<tspan dominant-baseline="middle" text-anchor="start" x="517.6000061035156" y="187.42666625976562">11964</tspan>
</text>
<path d="M 1 0 A 1 1 0 1 0 1 0.0001" fill="green" fill-opacity="0.8" stroke="none" transform="matrix(5,0,0,5,536.4000244140625,179.32000732421875)" clip-path="none">
</path>
<text transform="matrix(1,0,0,1,0,0)" fill="green" fill-opacity="0.8" stroke="none" clip-path="none" style="font: 12px &quot;Microsoft YaHei&quot;;">
<tspan dominant-baseline="middle" text-anchor="start" x="546.4000244140625" y="179.32000732421875">12348</tspan>
</text>
<path d="M 1 0 A 1 1 0 1 0 1 0.0001" fill="green" fill-opacity="0.8" stroke="none" transform="matrix(5,0,0,5,565.2000122070312,175.20333862304688)" clip-path="none">
</path>
<text transform="matrix(1,0,0,1,0,0)" fill="green" fill-opacity="0.8" stroke="none" clip-path="none" style="font: 12px &quot;Microsoft YaHei&quot;;">
<tspan dominant-baseline="middle" text-anchor="start" x="575.2000122070312" y="175.20333862304688">12543</tspan>
</text>
<path d="M 1 0 A 1 1 0 1 0 1 0.0001" fill="green" fill-opacity="0.8" stroke="none" transform="matrix(5,0,0,5,594,169.7566680908203)" clip-path="none">
</path>
<text transform="matrix(1,0,0,1,0,0)" fill="green" fill-opacity="0.8" stroke="none" clip-path="none" style="font: 12px &quot;Microsoft YaHei&quot;;">
<tspan dominant-baseline="middle" text-anchor="start" x="604" y="169.7566680908203">12801</tspan>
</text>
<path d="M 1 0 A 1 1 0 1 0 1 0.0001" fill="green" fill-opacity="0.8" stroke="none" transform="matrix(5,0,0,5,622.7999877929688,167.054443359375)" clip-path="none">
</path>
<text transform="matrix(1,0,0,1,0,0)" fill="green" fill-opacity="0.8" stroke="none" clip-path="none" style="font: 12px &quot;Microsoft YaHei&quot;;">
<tspan dominant-baseline="middle" text-anchor="start" x="632.7999877929688" y="167.054443359375">12929</tspan>
</text>
<path d="M 1 0 A 1 1 0 1 0 1 0.0001" fill="green" fill-opacity="0.8" stroke="none" transform="matrix(5,0,0,5,651.5999755859375,164.16221618652344)" clip-path="none">
</path>
<text transform="matrix(1,0,0,1,0,0)" fill="green" fill-opacity="0.8" stroke="none" clip-path="none" style="font: 12px &quot;Microsoft YaHei&quot;;">
<tspan dominant-baseline="middle" text-anchor="start" x="661.5999755859375" y="164.16221618652344">13066</tspan>
</text>
<path d="M 1 0 A 1 1 0 1 0 1 0.0001" fill="green" fill-opacity="0.8" stroke="none" transform="matrix(5,0,0,5,680.4000244140625,162.5577850341797)" clip-path="none">
</path>
<text transform="matrix(1,0,0,1,0,0)" fill="green" fill-opacity="0.8" stroke="none" clip-path="none" style="font: 12px &quot;Microsoft YaHei&quot;;">
<tspan dominant-baseline="middle" text-anchor="start" x="690.4000244140625" y="162.5577850341797">13142</tspan>
</text>
<path d="M 1 0 A 1 1 0 1 0 1 0.0001" fill="green" fill-opacity="0.8" stroke="none" transform="matrix(5,0,0,5,709.2000122070312,154.0500030517578)" clip-path="none">
</path>
<text transform="matrix(1,0,0,1,0,0)" fill="green" fill-opacity="0.8" stroke="none" clip-path="none" style="font: 12px &quot;Microsoft YaHei&quot;;">
<tspan dominant-baseline="middle" text-anchor="start" x="719.2000122070312" y="154.0500030517578">13545</tspan>
</text>
<path d="M 1 0 A 1 1 0 1 0 1 0.0001" fill="green" fill-opacity="0.8" stroke="none" transform="matrix(5,0,0,5,738,152.86778259277344)" clip-path="none">
</path>
<text transform="matrix(1,0,0,1,0,0)" fill="green" fill-opacity="0.8" stroke="none" clip-path="none" style="font: 12px &quot;Microsoft YaHei&quot;;">
<tspan dominant-baseline="middle" text-anchor="start" x="748" y="152.86778259277344">13601</tspan>
</text>
<path d="M 1 0 A 1 1 0 1 0 1 0.0001" fill="green" fill-opacity="0.8" stroke="none" transform="matrix(5,0,0,5,766.7999877929688,151.32666015625)" clip-path="none">
</path>
<text transform="matrix(1,0,0,1,0,0)" fill="green" fill-opacity="0.8" stroke="none" clip-path="none" style="font: 12px &quot;Microsoft YaHei&quot;;">
<tspan dominant-baseline="middle" text-anchor="start" x="776.7999877929688" y="151.32666015625">13674</tspan>
</text>
<path d="M 1 0 A 1 1 0 1 0 1 0.0001" fill="green" fill-opacity="0.8" stroke="none" transform="matrix(5,0,0,5,795.5999755859375,150.94667053222656)" clip-path="none">
</path>
<text transform="matrix(1,0,0,1,0,0)" fill="green" fill-opacity="0.8" stroke="none" clip-path="none" style="font: 12px &quot;Microsoft YaHei&quot;;">
<tspan dominant-baseline="middle" text-anchor="start" x="805.5999755859375" y="150.94667053222656">13692</tspan>
</text>
<path d="M -1 -1 L 1 -1 L 1 1 L -1 1 L -1 -1 Z" fill="red" fill-opacity="0.8" stroke="none" transform="matrix(5,0,0,5,104.4000015258789,415.5111083984375)" clip-path="none">
</path>
<text transform="matrix(1,0,0,1,0,0)" fill="red" fill-opacity="0.8" stroke="none" clip-path="none" style="font: 12px &quot;Microsoft YaHei&quot;;">
<tspan dominant-baseline="middle" text-anchor="start" x="114.4000015258789" y="415.5111083984375">1160</tspan>
</text>
<path d="M -1 -1 L 1 -1 L 1 1 L -1 1 L -1 -1 Z" fill="red" fill-opacity="0.8" stroke="none" transform="matrix(5,0,0,5,133.1999969482422,414.45556640625)" clip-path="none">
</path>
<text transform="matrix(1,0,0,1,0,0)" fill="red" fill-opacity="0.8" stroke="none" clip-path="none" style="font: 12px &quot;Microsoft YaHei&quot;;">
<tspan dominant-baseline="middle" text-anchor="start" x="143.1999969482422" y="414.45556640625">1210</tspan>
</text>
<path d="M -1 -1 L 1 -1 L 1 1 L -1 1 L -1 -1 Z" fill="red" fill-opacity="0.8" stroke="none" transform="matrix(5,0,0,5,162,408.8611145019531)" clip-path="none">
</path>
<text transform="matrix(1,0,0,1,0,0)" fill="red" fill-opacity="0.8" stroke="none" clip-path="none" style="font: 12px &quot;Microsoft YaHei&quot;;">
<tspan dominant-baseline="middle" text-anchor="start" x="172" y="408.8611145019531">1475</tspan>
</text>
<path d="M -1 -1 L 1 -1 L 1 1 L -1 1 L -1 -1 Z" fill="red" fill-opacity="0.8" stroke="none" transform="matrix(5,0,0,5,190.8000030517578,380.3611145019531)" clip-path="none">
</path>
<text transform="matrix(1,0,0,1,0,0)" fill="red" fill-opacity="0.8" stroke="none" clip-path="none" style="font: 12px &quot;Microsoft YaHei&quot;;">
<tspan dominant-baseline="middle" text-anchor="start" x="200.8000030517578" y="380.3611145019531">2825</tspan>
</text>
<path d="M -1 -1 L 1 -1 L 1 1 L -1 1 L -1 -1 Z" fill="red" fill-opacity="0.8" stroke="none" transform="matrix(5,0,0,5,219.60000610351562,311.4122314453125)" clip-path="none">
</path>
<text transform="matrix(1,0,0,1,0,0)" fill="red" fill-opacity="0.8" stroke="none" clip-path="none" style="font: 12px &quot;Microsoft YaHei&quot;;">
<tspan dominant-baseline="middle" text-anchor="start" x="229.60000610351562" y="311.4122314453125">6091</tspan>
</text>
<path d="M -1 -1 L 1 -1 L 1 1 L -1 1 L -1 -1 Z" fill="red" fill-opacity="0.8" stroke="none" transform="matrix(5,0,0,5,248.39999389648438,267.73333740234375)" clip-path="none">
</path>
<text transform="matrix(1,0,0,1,0,0)" fill="red" fill-opacity="0.8" stroke="none" clip-path="none" style="font: 12px &quot;Microsoft YaHei&quot;;">
<tspan dominant-baseline="middle" text-anchor="start" x="258.3999938964844" y="267.73333740234375">8160</tspan>
</text>
<path d="M -1 -1 L 1 -1 L 1 1 L -1 1 L -1 -1 Z" fill="red" fill-opacity="0.8" stroke="none" transform="matrix(5,0,0,5,277.20001220703125,208.7066650390625)" clip-path="none">
</path>
<text transform="matrix(1,0,0,1,0,0)" fill="red" fill-opacity="0.8" stroke="none" clip-path="none" style="font: 12px &quot;Microsoft YaHei&quot;;">
<tspan dominant-baseline="middle" text-anchor="start" x="287.20001220703125" y="208.7066650390625">10956</tspan>
</text>
<path d="M -1 -1 L 1 -1 L 1 1 L -1 1 L -1 -1 Z" fill="red" fill-opacity="0.8" stroke="none" transform="matrix(5,0,0,5,306,187.34222412109375)" clip-path="none">
</path>
<text transform="matrix(1,0,0,1,0,0)" fill="red" fill-opacity="0.8" stroke="none" clip-path="none" style="font: 12px &quot;Microsoft YaHei&quot;;">
<tspan dominant-baseline="middle" text-anchor="start" x="316" y="187.34222412109375">11968</tspan>
</text>
<path d="M -1 -1 L 1 -1 L 1 1 L -1 1 L -1 -1 Z" fill="red" fill-opacity="0.8" stroke="none" transform="matrix(5,0,0,5,334.79998779296875,160.4677734375)" clip-path="none">
</path>
<text transform="matrix(1,0,0,1,0,0)" fill="red" fill-opacity="0.8" stroke="none" clip-path="none" style="font: 12px &quot;Microsoft YaHei&quot;;">
<tspan dominant-baseline="middle" text-anchor="start" x="344.79998779296875" y="160.4677734375">13241</tspan>
</text>
<path d="M -1 -1 L 1 -1 L 1 1 L -1 1 L -1 -1 Z" fill="red" fill-opacity="0.8" stroke="none" transform="matrix(5,0,0,5,363.6000061035156,146.63999938964844)" clip-path="none">
</path>
<text transform="matrix(1,0,0,1,0,0)" fill="red" fill-opacity="0.8" stroke="none" clip-path="none" style="font: 12px &quot;Microsoft YaHei&quot;;">
<tspan dominant-baseline="middle" text-anchor="start" x="373.6000061035156" y="146.63999938964844">13896</tspan>
</text>
<path d="M -1 -1 L 1 -1 L 1 1 L -1 1 L -1 -1 Z" fill="red" fill-opacity="0.8" stroke="none" transform="matrix(5,0,0,5,392.3999938964844,136.2322235107422)" clip-path="none">
</path>
<text transform="matrix(1,0,0,1,0,0)" fill="red" fill-opacity="0.8" stroke="none" clip-path="none" style="font: 12px &quot;Microsoft YaHei&quot;;">
<tspan dominant-baseline="middle" text-anchor="start" x="402.3999938964844" y="136.2322235107422">14389</tspan>
</text>
<path d="M -1 -1 L 1 -1 L 1 1 L -1 1 L -1 -1 Z" fill="red" fill-opacity="0.8" stroke="none" transform="matrix(5,0,0,5,421.20001220703125,128.65333557128906)" clip-path="none">
</path>
<text transform="matrix(1,0,0,1,0,0)" fill="red" fill-opacity="0.8" stroke="none" clip-path="none" style="font: 12px &quot;Microsoft YaHei&quot;;">
<tspan dominant-baseline="middle" text-anchor="start" x="431.20001220703125" y="128.65333557128906">14748</tspan>
</text>
<path d="M -1 -1 L 1 -1 L 1 1 L -1 1 L -1 -1 Z" fill="red" fill-opacity="0.8" stroke="none" transform="matrix(5,0,0,5,450,122.69999694824219)" clip-path="none">
</path>
<text transform="matrix(1,0,0,1,0,0)" fill="red" fill-opacity="0.8" stroke="none" clip-path="none" style="font: 12px &quot;Microsoft YaHei&quot;;">
<tspan dominant-baseline="middle" text-anchor="start" x="460" y="122.69999694824219">15030</tspan>
</text>
<path d="M -1 -1 L 1 -1 L 1 1 L -1 1 L -1 -1 Z" fill="red" fill-opacity="0.8" stroke="none" transform="matrix(5,0,0,5,478.79998779296875,118.73110961914062)" clip-path="none">
</path>
<text transform="matrix(1,0,0,1,0,0)" fill="red" fill-opacity="0.8" stroke="none" clip-path="none" style="font: 12px &quot;Microsoft YaHei&quot;;">
<tspan dominant-baseline="middle" text-anchor="start" x="488.79998779296875" y="118.73110961914062">15218</tspan>
</text>
<path d="M -1 -1 L 1 -1 L 1 1 L -1 1 L -1 -1 Z" fill="red" fill-opacity="0.8" stroke="none" transform="matrix(5,0,0,5,507.6000061035156,116.40888977050781)" clip-path="none">
</path>
<text transform="matrix(1,0,0,1,0,0)" fill="red" fill-opacity="0.8" stroke="none" clip-path="none" style="font: 12px &quot;Microsoft YaHei&quot;;">
<tspan dominant-baseline="middle" text-anchor="start" x="517.6000061035156" y="116.40888977050781">15328</tspan>
</text>
<path d="M -1 -1 L 1 -1 L 1 1 L -1 1 L -1 -1 Z" fill="red" fill-opacity="0.8" stroke="none" transform="matrix(5,0,0,5,536.4000244140625,113.7699966430664)" clip-path="none">
</path>
<text transform="matrix(1,0,0,1,0,0)" fill="red" fill-opacity="0.8" stroke="none" clip-path="none" style="font: 12px &quot;Microsoft YaHei&quot;;">
<tspan dominant-baseline="middle" text-anchor="start" x="546.4000244140625" y="113.7699966430664">15453</tspan>
</text>
<path d="M -1 -1 L 1 -1 L 1 1 L -1 1 L -1 -1 Z" fill="red" fill-opacity="0.8" stroke="none" transform="matrix(5,0,0,5,565.2000122070312,111.55333709716797)" clip-path="none">
</path>
<text transform="matrix(1,0,0,1,0,0)" fill="red" fill-opacity="0.8" stroke="none" clip-path="none" style="font: 12px &quot;Microsoft YaHei&quot;;">
<tspan dominant-baseline="middle" text-anchor="start" x="575.2000122070312" y="111.55333709716797">15558</tspan>
</text>
<path d="M -1 -1 L 1 -1 L 1 1 L -1 1 L -1 -1 Z" fill="red" fill-opacity="0.8" stroke="none" transform="matrix(5,0,0,5,594,109.88555908203125)" clip-path="none">
</path>
<text transform="matrix(1,0,0,1,0,0)" fill="red" fill-opacity="0.8" stroke="none" clip-path="none" style="font: 12px &quot;Microsoft YaHei&quot;;">
<tspan dominant-baseline="middle" text-anchor="start" x="604" y="109.88555908203125">15637</tspan>
</text>
<path d="M -1 -1 L 1 -1 L 1 1 L -1 1 L -1 -1 Z" fill="red" fill-opacity="0.8" stroke="none" transform="matrix(5,0,0,5,622.7999877929688,108.11222076416016)" clip-path="none">
</path>
<text transform="matrix(1,0,0,1,0,0)" fill="red" fill-opacity="0.8" stroke="none" clip-path="none" style="font: 12px &quot;Microsoft YaHei&quot;;">
<tspan dominant-baseline="middle" text-anchor="start" x="632.7999877929688" y="108.11222076416016">15721</tspan>
</text>
<path d="M -1 -1 L 1 -1 L 1 1 L -1 1 L -1 -1 Z" fill="red" fill-opacity="0.8" stroke="none" transform="matrix(5,0,0,5,651.5999755859375,106.82444763183594)" clip-path="none">
</path>
<text transform="matrix(1,0,0,1,0,0)" fill="red" fill-opacity="0.8" stroke="none" clip-path="none" style="font: 12px &quot;Microsoft YaHei&quot;;">
<tspan dominant-baseline="middle" text-anchor="start" x="661.5999755859375" y="106.82444763183594">15782</tspan>
</text>
<path d="M -1 -1 L 1 -1 L 1 1 L -1 1 L -1 -1 Z" fill="red" fill-opacity="0.8" stroke="none" transform="matrix(5,0,0,5,680.4000244140625,105.6844482421875)" clip-path="none">
</path>
<text transform="matrix(1,0,0,1,0,0)" fill="red" fill-opacity="0.8" stroke="none" clip-path="none" style="font: 12px &quot;Microsoft YaHei&quot;;">
<tspan dominant-baseline="middle" text-anchor="start" x="690.4000244140625" y="105.6844482421875">15836</tspan>
</text>
<path d="M -1 -1 L 1 -1 L 1 1 L -1 1 L -1 -1 Z" fill="red" fill-opacity="0.8" stroke="none" transform="matrix(5,0,0,5,709.2000122070312,104.39666748046875)" clip-path="none">
</path>
<text transform="matrix(1,0,0,1,0,0)" fill="red" fill-opacity="0.8" stroke="none" clip-path="none" style="font: 12px &quot;Microsoft YaHei&quot;;">
<tspan dominant-baseline="middle" text-anchor="start" x="719.2000122070312" y="104.39666748046875">15897</tspan>
</text>
<path d="M -1 -1 L 1 -1 L 1 1 L -1 1 L -1 -1 Z" fill="red" fill-opacity="0.8" stroke="none" transform="matrix(5,0,0,5,738,103.65777587890625)" clip-path="none">
</path>
<text transform="matrix(1,0,0,1,0,0)" fill="red" fill-opacity="0.8" stroke="none" clip-path="none" style="font: 12px &quot;Microsoft YaHei&quot;;">
<tspan dominant-baseline="middle" text-anchor="start" x="748" y="103.65777587890625">15932</tspan>
</text>
<path d="M -1 -1 L 1 -1 L 1 1 L -1 1 L -1 -1 Z" fill="red" fill-opacity="0.8" stroke="none" transform="matrix(5,0,0,5,766.7999877929688,103.06666564941406)" clip-path="none">
</path>
<text transform="matrix(1,0,0,1,0,0)" fill="red" fill-opacity="0.8" stroke="none" clip-path="none" style="font: 12px &quot;Microsoft YaHei&quot;;">
<tspan dominant-baseline="middle" text-anchor="start" x="776.7999877929688" y="103.06666564941406">15960</tspan>
</text>
<path d="M -1 -1 L 1 -1 L 1 1 L -1 1 L -1 -1 Z" fill="red" fill-opacity="0.8" stroke="none" transform="matrix(5,0,0,5,795.5999755859375,102.0955581665039)" clip-path="none">
</path>
<text transform="matrix(1,0,0,1,0,0)" fill="red" fill-opacity="0.8" stroke="none" clip-path="none" style="font: 12px &quot;Microsoft YaHei&quot;;">
<tspan dominant-baseline="middle" text-anchor="start" x="805.5999755859375" y="102.0955581665039">16006</tspan>
</text>
<path d="M -5 -5 L 253.5 -5 L 253.5 19 L -5 19 L -5 -5 Z" fill="#ffffff" fill-opacity="1" stroke="#ccc" stroke-width="0" paint-order="fill" stroke-opacity="1" stroke-dasharray="" stroke-linecap="butt" stroke-linejoin="miter" stroke-miterlimit="10" transform="matrix(1,0,0,1,325.75,5)" clip-path="none">
</path>
<path d="M 12.5 0 L 25 14 L 0 14 Z" fill="black" fill-opacity="1" stroke="none" transform="matrix(1,0,0,1,325.75,5)" clip-path="none">
</path>
<text transform="matrix(1,0,0,1,325.75,5)" fill="#333" fill-opacity="1" stroke="none" clip-path="none" style="font: 12px &quot;Microsoft YaHei&quot;;">
<tspan dominant-baseline="middle" text-anchor="start" x="30" y="7">死亡人数</tspan>
</text>
<path d="M 19.5 7 A 7 7 0 1 0 19.5 7.0007" fill="green" fill-opacity="1" stroke="none" transform="matrix(1,0,0,1,408.25,5)" clip-path="none">
</path>
<text transform="matrix(1,0,0,1,408.25,5)" fill="#333" fill-opacity="1" stroke="none" clip-path="none" style="font: 12px &quot;Microsoft YaHei&quot;;">
<tspan dominant-baseline="middle" text-anchor="start" x="30" y="7">治愈人数</tspan>
</text>
<path d="M 0 0 L 25 0 L 25 14 L 0 14 L 0 0 Z" fill="red" fill-opacity="1" stroke="none" transform="matrix(1,0,0,1,496.25,5)" clip-path="none">
</path>
<text transform="matrix(1,0,0,1,496.25,5)" fill="#333" fill-opacity="1" stroke="none" clip-path="none" style="font: 12px &quot;Microsoft YaHei&quot;;">
<tspan dominant-baseline="middle" text-anchor="start" x="30" y="7">确诊人数</tspan>
</text>
<path d="M -5 -5 L 131 -5 L 131 45 L -5 45 L -5 -5 Z" fill="#ffffff" fill-opacity="1" stroke="#ccc" stroke-width="0" paint-order="fill" stroke-opacity="1" stroke-dasharray="" stroke-linecap="butt" stroke-linejoin="miter" stroke-miterlimit="10" transform="matrix(1,0,0,1,5,5)" clip-path="none">
</path>
<text transform="matrix(1,0,0,1,5,5)" fill="#333" fill-opacity="1" stroke="none" clip-path="none" style="font: bolder 18px &quot;Microsoft YaHei&quot;;">
<tspan dominant-baseline="middle" text-anchor="start" x="0" y="9">台湾疫情散点图</tspan>
</text>
<text transform="matrix(1,0,0,1,5,5)" fill="#aaa" fill-opacity="1" stroke="none" clip-path="none" style="font: 12px &quot;Microsoft YaHei&quot;;">
<tspan dominant-baseline="middle" text-anchor="start" x="0" y="34">202-5-5到2021-9-2</tspan>
</text>
</g>
</svg>