<svg xmlns="http://www.w3.org/2000/svg" version="1.1" baseProfile="full" width="900" height="500" style="user-select: none; position: absolute; left: 0px; top: 0px;"><g><rect width="900" height="500" x="0" y="0" id="0" style="fill: rgb(255, 255, 255);"></rect></g><g><path d="M 90 440.5 L 810 440.5" fill="none" stroke="#ccc" stroke-width="1" paint-order="fill" stroke-opacity="1" stroke-dasharray="" stroke-linecap="butt" stroke-linejoin="miter" stroke-miterlimit="10" clip-path="none"></path><path d="M 90 376.5 L 810 376.5" fill="none" stroke="#ccc" stroke-width="1" paint-order="fill" stroke-opacity="1" stroke-dasharray="" stroke-linecap="butt" stroke-linejoin="miter" stroke-miterlimit="10" clip-path="none"></path><path d="M 90 313.5 L 810 313.5" fill="none" stroke="#ccc" stroke-width="1" paint-order="fill" stroke-opacity="1" stroke-dasharray="" stroke-linecap="butt" stroke-linejoin="miter" stroke-miterlimit="10" clip-path="none"></path><path d="M 90 250.5 L 810 250.5" fill="none" stroke="#ccc" stroke-width="1" paint-order="fill" stroke-opacity="1" stroke-dasharray="" stroke-linecap="butt" stroke-linejoin="miter" stroke-miterlimit="10" clip-path="none"></path><path d="M 90 186.5 L 810 186.5" fill="none" stroke="#ccc" stroke-width="1" paint-order="fill" stroke-opacity="1" stroke-dasharray="" stroke-linecap="butt" stroke-linejoin="miter" stroke-miterlimit="10" clip-path="none"></path><path d="M 90 123.5 L 810 123.5" fill="none" stroke="#ccc" stroke-width="1" paint-order="fill" stroke-opacity="1" stroke-dasharray="" stroke-linecap="butt" stroke-linejoin="miter" stroke-miterlimit="10" clip-path="none"></path><path d="M 90 60.5 L 810 60.5" fill="none" stroke="#ccc" stroke-width="1" paint-order="fill" stroke-opacity="1" stroke-dasharray="" stroke-linecap="butt" stroke-linejoin="miter" stroke-miterlimit="10" clip-path="none"></path><path d="M 90.5 440 L 90.5 60" fill="none" stroke="#333" stroke-width="1" paint-order="fill" stroke-opacity="1" stroke-dasharray="" stroke-linecap="round" stroke-linejoin="miter" stroke-miterlimit="10" clip-path="none"></path><path d="M 90 440.5 L 810 440.5" fill="none" stroke="#333" stroke-width="1" paint-order="fill" stroke-opacity="1" stroke-dasharray="" stroke-linecap="round" stroke-linejoin="miter" stroke-miterlimit="10" clip-path="none"></path><path d="M 90 440.5 L 85 440.5" fill="none" stroke="#333" stroke-width="1" paint-order="fill" stroke-opacity="1" stroke-dasharray="" stroke-linecap="butt" stroke-linejoin="miter" stroke-miterlimit="10" clip-path="none"></path><path d="M 90 376.5 L 85 376.5" fill="none" stroke="#333" stroke-width="1" paint-order="fill" stroke-opacity="1" stroke-dasharray="" stroke-linecap="butt" stroke-linejoin="miter" stroke-miterlimit="10" clip-path="none"></path><path d="M 90 313.5 L 85 313.5" fill="none" stroke="#333" stroke-width="1" paint-order="fill" stroke-opacity="1" stroke-dasharray="" stroke-linecap="butt" stroke-linejoin="miter" stroke-miterlimit="10" clip-path="none"></path><path d="M 90 250.5 L 85 250.5" fill="none" stroke="#333" stroke-width="1" paint-order="fill" stroke-opacity="1" stroke-dasharray="" stroke-linecap="butt" stroke-linejoin="miter" stroke-miterlimit="10" clip-path="none"></path><path d="M 90 186.5 L 85 186.5" fill="none" stroke="#333" stroke-width="1" paint-order="fill" stroke-opacity="1" stroke-dasharray="" stroke-linecap="butt" stroke-linejoin="miter" stroke-miterlimit="10" clip-path="none"></path><path d="M 90 123.5 L 85 123.5" fill="none" stroke="#333" stroke-width="1" paint-order="fill" stroke-opacity="1" stroke-dasharray="" stroke-linecap="butt" stroke-linejoin="miter" stroke-miterlimit="10" clip-path="none"></path><path d="M 90 60.5 L 85 60.5" fill="none" stroke="#333" stroke-width="1" paint-order="fill" stroke-opacity="1" stroke-dasharray="" stroke-linecap="butt" stroke-linejoin="miter" stroke-miterlimit="10" clip-path="none"></path><path d="M 90.5 440 L 90.5 445" fill="none" stroke="#333" stroke-width="1" paint-order="fill" stroke-opacity="1" stroke-dasharray="" stroke-linecap="butt" stroke-linejoin="miter" stroke-miterlimit="10" clip-path="none"></path><path d="M 128.5 440 L 128.5 445" fill="none" stroke="#333" stroke-width="1" paint-order="fill" stroke-opacity="1" stroke-dasharray="" stroke-linecap="butt" stroke-linejoin="miter" stroke-miterlimit="10" clip-path="none"></path><path d="M 166.5 440 L 166.5 445" fill="none" stroke="#333" stroke-width="1" paint-order="fill" stroke-opacity="1" stroke-dasharray="" stroke-linecap="butt" stroke-linejoin="miter" stroke-miterlimit="10" clip-path="none"></path><path d="M 203.5 440 L 203.5 445" fill="none" stroke="#333" stroke-width="1" paint-order="fill" stroke-opacity="1" stroke-dasharray="" stroke-linecap="butt" stroke-linejoin="miter" stroke-miterlimit="10" clip-path="none"></path><path d="M 241.5 440 L 241.5 445" fill="none" stroke="#333" stroke-width="1" paint-order="fill" stroke-opacity="1" stroke-dasharray="" stroke-linecap="butt" stroke-linejoin="miter" stroke-miterlimit="10" clip-path="none"></path><path d="M 279.5 440 L 279.5 445" fill="none" stroke="#333" stroke-width="1" paint-order="fill" stroke-opacity="1" stroke-dasharray="" stroke-linecap="butt" stroke-linejoin="miter" stroke-miterlimit="10" clip-path="none"></path><path d="M 317.5 440 L 317.5 445" fill="none" stroke="#333" stroke-width="1" paint-order="fill" stroke-opacity="1" stroke-dasharray="" stroke-linecap="butt" stroke-linejoin="miter" stroke-miterlimit="10" clip-path="none"></path><path d="M 355.5 440 L 355.5 445" fill="none" stroke="#333" stroke-width="1" paint-order="fill" stroke-opacity="1" stroke-dasharray="" stroke-linecap="butt" stroke-linejoin="miter" stroke-miterlimit="10" clip-path="none"></path><path d="M 393.5 440 L 393.5 445" fill="none" stroke="#333" stroke-width="1" paint-order="fill" stroke-opacity="1" stroke-dasharray="" stroke-linecap="butt" stroke-linejoin="miter" stroke-miterlimit="10" clip-path="none"></path><path d="M 431.5 440 L 431.5 445" fill="none" stroke="#333" stroke-width="1" paint-order="fill" stroke-opacity="1" stroke-dasharray="" stroke-linecap="butt" stroke-linejoin="miter" stroke-miterlimit="10" clip-path="none"></path><path d="M 469.5 440 L 469.5 445" fill="none" stroke="#333" stroke-width="1" paint-order="fill" stroke-opacity="1" stroke-dasharray="" stroke-linecap="butt" stroke-linejoin="miter" stroke-miterlimit="10" clip-path="none"></path><path d="M 507.5 440 L 507.5 445" fill="none" stroke="#333" stroke-width="1" paint-order="fill" stroke-opacity="1" stroke-dasharray="" stroke-linecap="butt" stroke-linejoin="miter" stroke-miterlimit="10" clip-path="none"></path><path d="M 544.5 440 L 544.5 445" fill="none" stroke="#333" stroke-width="1" paint-order="fill" stroke-opacity="1" stroke-dasharray="" stroke-linecap="butt" stroke-linejoin="miter" stroke-miterlimit="10" clip-path="none"></path><path d="M 582.5 440 L 582.5 445" fill="none" stroke="#333" stroke-width="1" paint-order="fill" stroke-opacity="1" stroke-dasharray="" stroke-linecap="butt" stroke-linejoin="miter" stroke-miterlimit="10" clip-path="none"></path><path d="M 620.5 440 L 620.5 445" fill="none" stroke="#333" stroke-width="1" paint-order="fill" stroke-opacity="1" stroke-dasharray="" stroke-linecap="butt" stroke-linejoin="miter" stroke-miterlimit="10" clip-path="none"></path><path d="M 658.5 440 L 658.5 445" fill="none" stroke="#333" stroke-width="1" paint-order="fill" stroke-opacity="1" stroke-dasharray="" stroke-linecap="butt" stroke-linejoin="miter" stroke-miterlimit="10" clip-path="none"></path><path d="M 696.5 440 L 696.5 445" fill="none" stroke="#333" stroke-width="1" paint-order="fill" stroke-opacity="1" stroke-dasharray="" stroke-linecap="butt" stroke-linejoin="miter" stroke-miterlimit="10" clip-path="none"></path><path d="M 734.5 440 L 734.5 445" fill="none" stroke="#333" stroke-width="1" paint-order="fill" stroke-opacity="1" stroke-dasharray="" stroke-linecap="butt" stroke-linejoin="miter" stroke-miterlimit="10" clip-path="none"></path><path d="M 772.5 440 L 772.5 445" fill="none" stroke="#333" stroke-width="1" paint-order="fill" stroke-opacity="1" stroke-dasharray="" stroke-linecap="butt" stroke-linejoin="miter" stroke-miterlimit="10" clip-path="none"></path><path d="M 810.5 440 L 810.5 445" fill="none" stroke="#333" stroke-width="1" paint-order="fill" stroke-opacity="1" stroke-dasharray="" stroke-linecap="butt" stroke-linejoin="miter" stroke-miterlimit="10" clip-path="none"></path><text transform="matrix(1,2.4492937051703357e-16,-2.4492937051703357e-16,1,82,440)" fill="#333" fill-opacity="1" stroke="none" clip-path="none" style="font: 12px &quot;Microsoft YaHei&quot;;"><tspan dominant-baseline="middle" text-anchor="end" x="0" y="0">0</tspan></text><text transform="matrix(1,2.4492937051703357e-16,-2.4492937051703357e-16,1,82,376.6666564941406)" fill="#333" fill-opacity="1" stroke="none" clip-path="none" style="font: 12px &quot;Microsoft YaHei&quot;;"><tspan dominant-baseline="middle" text-anchor="end" x="0" y="0">0.01</tspan></text><text transform="matrix(1,2.4492937051703357e-16,-2.4492937051703357e-16,1,82,313.3333435058594)" fill="#333" fill-opacity="1" stroke="none" clip-path="none" style="font: 12px &quot;Microsoft YaHei&quot;;"><tspan dominant-baseline="middle" text-anchor="end" x="0" y="0">0.02</tspan></text><text transform="matrix(1,2.4492937051703357e-16,-2.4492937051703357e-16,1,82,250)" fill="#333" fill-opacity="1" stroke="none" clip-path="none" style="font: 12px &quot;Microsoft YaHei&quot;;"><tspan dominant-baseline="middle" text-anchor="end" x="0" y="0">0.03</tspan></text><text transform="matrix(1,2.4492937051703357e-16,-2.4492937051703357e-16,1,82,186.6666717529297)" fill="#333" fill-opacity="1" stroke="none" clip-path="none" style="font: 12px &quot;Microsoft YaHei&quot;;"><tspan dominant-baseline="middle" text-anchor="end" x="0" y="0">0.04</tspan></text><text transform="matrix(1,2.4492937051703357e-16,-2.4492937051703357e-16,1,82,123.33334350585938)" fill="#333" fill-opacity="1" stroke="none" clip-path="none" style="font: 12px &quot;Microsoft YaHei&quot;;"><tspan dominant-baseline="middle" text-anchor="end" x="0" y="0">0.05</tspan></text><text transform="matrix(1,2.4492937051703357e-16,-2.4492937051703357e-16,1,82,60)" fill="#333" fill-opacity="1" stroke="none" clip-path="none" style="font: 12px &quot;Microsoft YaHei&quot;;"><tspan dominant-baseline="middle" text-anchor="end" x="0" y="0">0.06</tspan></text><text transform="matrix(0.8660253882408142,-0.5,0.5,0.8660253882408142,108.94737243652344,448)" fill="#333" fill-opacity="1" stroke="none" clip-path="none" style="font: 12px &quot;Microsoft YaHei&quot;;"><tspan dominant-baseline="middle" text-anchor="end" x="0" y="0">2020-01-22</tspan></text><text transform="matrix(0.8660253882408142,-0.5,0.5,0.8660253882408142,146.84210205078125,448)" fill="#333" fill-opacity="1" stroke="none" clip-path="none" style="font: 12px &quot;Microsoft YaHei&quot;;"><tspan dominant-baseline="middle" text-anchor="end" x="0" y="0">2020-03-07</tspan></text><text transform="matrix(0.8660253882408142,-0.5,0.5,0.8660253882408142,184.73684692382812,448)" fill="#333" fill-opacity="1" stroke="none" clip-path="none" style="font: 12px &quot;Microsoft YaHei&quot;;"><tspan dominant-baseline="middle" text-anchor="end" x="0" y="0">2020-04-21</tspan></text><text transform="matrix(0.8660253882408142,-0.5,0.5,0.8660253882408142,222.63157653808594,448)" fill="#333" fill-opacity="1" stroke="none" clip-path="none" style="font: 12px &quot;Microsoft YaHei&quot;;"><tspan dominant-baseline="middle" text-anchor="end" x="0" y="0">2020-06-05</tspan></text><text transform="matrix(0.8660253882408142,-0.5,0.5,0.8660253882408142,260.52630615234375,448)" fill="#333" fill-opacity="1" stroke="none" clip-path="none" style="font: 12px &quot;Microsoft YaHei&quot;;"><tspan dominant-baseline="middle" text-anchor="end" x="0" y="0">2020-07-20</tspan></text><text transform="matrix(0.8660253882408142,-0.5,0.5,0.8660253882408142,298.4210510253906,448)" fill="#333" fill-opacity="1" stroke="none" clip-path="none" style="font: 12px &quot;Microsoft YaHei&quot;;"><tspan dominant-baseline="middle" text-anchor="end" x="0" y="0">2020-09-09</tspan></text><text transform="matrix(0.8660253882408142,-0.5,0.5,0.8660253882408142,336.3157958984375,448)" fill="#333" fill-opacity="1" stroke="none" clip-path="none" style="font: 12px &quot;Microsoft YaHei&quot;;"><tspan dominant-baseline="middle" text-anchor="end" x="0" y="0">2020-10-30</tspan></text><text transform="matrix(0.8660253882408142,-0.5,0.5,0.8660253882408142,374.2105407714844,448)" fill="#333" fill-opacity="1" stroke="none" clip-path="none" style="font: 12px &quot;Microsoft YaHei&quot;;"><tspan dominant-baseline="middle" text-anchor="end" x="0" y="0">2020-12-18</tspan></text><text transform="matrix(0.8660253882408142,-0.5,0.5,0.8660253882408142,412.1052551269531,448)" fill="#333" fill-opacity="1" stroke="none" clip-path="none" style="font: 12px &quot;Microsoft YaHei&quot;;"><tspan dominant-baseline="middle" text-anchor="end" x="0" y="0">2021-02-01</tspan></text><text transform="matrix(0.8660253882408142,-0.5,0.5,0.8660253882408142,450,448)" fill="#333" fill-opacity="1" stroke="none" clip-path="none" style="font: 12px &quot;Microsoft YaHei&quot;;"><tspan dominant-baseline="middle" text-anchor="end" x="0" y="0">2021-03-18</tspan></text><text transform="matrix(0.8660253882408142,-0.5,0.5,0.8660253882408142,487.8947448730469,448)" fill="#333" fill-opacity="1" stroke="none" clip-path="none" style="font: 12px &quot;Microsoft YaHei&quot;;"><tspan dominant-baseline="middle" text-anchor="end" x="0" y="0">2021-05-02</tspan></text><text transform="matrix(0.8660253882408142,-0.5,0.5,0.8660253882408142,525.7894287109375,448)" fill="#333" fill-opacity="1" stroke="none" clip-path="none" style="font: 12px &quot;Microsoft YaHei&quot;;"><tspan dominant-baseline="middle" text-anchor="end" x="0" y="0">2021-06-16</tspan></text><text transform="matrix(0.8660253882408142,-0.5,0.5,0.8660253882408142,563.6842041015625,448)" fill="#333" fill-opacity="1" stroke="none" clip-path="none" style="font: 12px &quot;Microsoft YaHei&quot;;"><tspan dominant-baseline="middle" text-anchor="end" x="0" y="0">2021-07-31</tspan></text><text transform="matrix(0.8660253882408142,-0.5,0.5,0.8660253882408142,601.5789794921875,448)" fill="#333" fill-opacity="1" stroke="none" clip-path="none" style="font: 12px &quot;Microsoft YaHei&quot;;"><tspan dominant-baseline="middle" text-anchor="end" x="0" y="0">2021-09-14</tspan></text><text transform="matrix(0.8660253882408142,-0.5,0.5,0.8660253882408142,639.4736938476562,448)" fill="#333" fill-opacity="1" stroke="none" clip-path="none" style="font: 12px &quot;Microsoft YaHei&quot;;"><tspan dominant-baseline="middle" text-anchor="end" x="0" y="0">2021-10-29</tspan></text><text transform="matrix(0.8660253882408142,-0.5,0.5,0.8660253882408142,677.368408203125,448)" fill="#333" fill-opacity="1" stroke="none" clip-path="none" style="font: 12px &quot;Microsoft YaHei&quot;;"><tspan dominant-baseline="middle" text-anchor="end" x="0" y="0">2021-12-13</tspan></text><text transform="matrix(0.8660253882408142,-0.5,0.5,0.8660253882408142,715.26318359375,448)" fill="#333" fill-opacity="1" stroke="none" clip-path="none" style="font: 12px &quot;Microsoft YaHei&quot;;"><tspan dominant-baseline="middle" text-anchor="end" x="0" y="0">2022-01-27</tspan></text><text transform="matrix(0.8660253882408142,-0.5,0.5,0.8660253882408142,753.1578979492188,448)" fill="#333" fill-opacity="1" stroke="none" clip-path="none" style="font: 12px &quot;Microsoft YaHei&quot;;"><tspan dominant-baseline="middle" text-anchor="end" x="0" y="0">2022-03-13</tspan></text><text transform="matrix(0.8660253882408142,-0.5,0.5,0.8660253882408142,791.0526123046875,448)" fill="#333" fill-opacity="1" stroke="none" clip-path="none" style="font: 12px &quot;Microsoft YaHei&quot;;"><tspan dominant-baseline="middle" text-anchor="end" x="0" y="0">2022-04-27</tspan></text><path d="M 93.7895 440 L 124.1053 440 L 124.1053 440 L 93.7895 440 L 93.7895 440 Z" fill="#c23531" fill-opacity="undefined" stroke="none" clip-path="none"></path><text transform="matrix(1,0,0,1,0,0)" fill="#c23531" fill-opacity="undefined" stroke="none" clip-path="none" style="font: 12px &quot;Microsoft YaHei&quot;;"><tspan dominant-baseline="middle" text-anchor="middle" x="108.94736842105263" y="429">0</tspan></text><path d="M 131.6842 440 L 162 440 L 162 300.6667 L 131.6842 300.6667 L 131.6842 440 Z" fill="#c23531" fill-opacity="undefined" stroke="none" clip-path="none"></path><text transform="matrix(1,0,0,1,0,0)" fill="#c23531" fill-opacity="undefined" stroke="none" clip-path="none" style="font: 12px &quot;Microsoft YaHei&quot;;"><tspan dominant-baseline="middle" text-anchor="middle" x="146.8421052631579" y="289.6666666666667">0.022</tspan></text><path d="M 169.5789 440 L 199.8947 440 L 199.8947 351.3333 L 169.5789 351.3333 L 169.5789 440 Z" fill="#c23531" fill-opacity="undefined" stroke="none" clip-path="none"></path><text transform="matrix(1,0,0,1,0,0)" fill="#c23531" fill-opacity="undefined" stroke="none" clip-path="none" style="font: 12px &quot;Microsoft YaHei&quot;;"><tspan dominant-baseline="middle" text-anchor="middle" x="184.73684210526318" y="340.3333333333333">0.014</tspan></text><path d="M 207.4737 440 L 237.7895 440 L 237.7895 338.6667 L 207.4737 338.6667 L 207.4737 440 Z" fill="#c23531" fill-opacity="undefined" stroke="none" clip-path="none"></path><path d="M 245.3684 440 L 275.68420000000003 440 L 275.68420000000003 345 L 245.3684 345 L 245.3684 440 Z" fill="#c23531" fill-opacity="undefined" stroke="none" clip-path="none"></path><text transform="matrix(1,0,0,1,0,0)" fill="#c23531" fill-opacity="undefined" stroke="none" clip-path="none" style="font: 12px &quot;Microsoft YaHei&quot;;"><tspan dominant-baseline="middle" text-anchor="middle" x="260.5263157894737" y="334">0.015</tspan></text><text transform="matrix(1,0,0,1,0,0)" fill="#c23531" fill-opacity="undefined" stroke="none" clip-path="none" style="font: 12px &quot;Microsoft YaHei&quot;;"><tspan dominant-baseline="middle" text-anchor="middle" x="222.63157894736844" y="327.6666666666667">0.016</tspan></text><path d="M 283.2632 440 L 313.579 440 L 313.579 351.3333 L 283.2632 351.3333 L 283.2632 440 Z" fill="#c23531" fill-opacity="undefined" stroke="none" clip-path="none"></path><text transform="matrix(1,0,0,1,0,0)" fill="#c23531" fill-opacity="undefined" stroke="none" clip-path="none" style="font: 12px &quot;Microsoft YaHei&quot;;"><tspan dominant-baseline="middle" text-anchor="middle" x="298.42105263157896" y="340.3333333333333">0.014</tspan></text><path d="M 321.1579 440 L 351.4737 440 L 351.4737 357.6667 L 321.1579 357.6667 L 321.1579 440 Z" fill="#c23531" fill-opacity="undefined" stroke="none" clip-path="none"></path><text transform="matrix(1,0,0,1,0,0)" fill="#c23531" fill-opacity="undefined" stroke="none" clip-path="none" style="font: 12px &quot;Microsoft YaHei&quot;;"><tspan dominant-baseline="middle" text-anchor="middle" x="336.3157894736843" y="346.66666666666663">0.013</tspan></text><path d="M 359.0526 440 L 389.3684 440 L 389.3684 383 L 359.0526 383 L 359.0526 440 Z" fill="#c23531" fill-opacity="undefined" stroke="none" clip-path="none"></path><text transform="matrix(1,0,0,1,0,0)" fill="#c23531" fill-opacity="undefined" stroke="none" clip-path="none" style="font: 12px &quot;Microsoft YaHei&quot;;"><tspan dominant-baseline="middle" text-anchor="middle" x="374.2105263157895" y="372">0.009</tspan></text><path d="M 396.9474 440 L 427.26320000000004 440 L 427.26320000000004 383 L 396.9474 383 L 396.9474 440 Z" fill="#c23531" fill-opacity="undefined" stroke="none" clip-path="none"></path><text transform="matrix(1,0,0,1,0,0)" fill="#c23531" fill-opacity="undefined" stroke="none" clip-path="none" style="font: 12px &quot;Microsoft YaHei&quot;;"><tspan dominant-baseline="middle" text-anchor="middle" x="412.1052631578948" y="372">0.009</tspan></text><path d="M 434.8421 440 L 465.15790000000004 440 L 465.15790000000004 376.6667 L 434.8421 376.6667 L 434.8421 440 Z" fill="#c23531" fill-opacity="undefined" stroke="none" clip-path="none"></path><text transform="matrix(1,0,0,1,0,0)" fill="#c23531" fill-opacity="undefined" stroke="none" clip-path="none" style="font: 12px &quot;Microsoft YaHei&quot;;"><tspan dominant-baseline="middle" text-anchor="middle" x="450" y="365.66666666666663">0.01</tspan></text><path d="M 472.7368 440 L 503.05260000000004 440 L 503.05260000000004 370.3333 L 472.7368 370.3333 L 472.7368 440 Z" fill="#c23531" fill-opacity="undefined" stroke="none" clip-path="none"></path><text transform="matrix(1,0,0,1,0,0)" fill="#c23531" fill-opacity="undefined" stroke="none" clip-path="none" style="font: 12px &quot;Microsoft YaHei&quot;;"><tspan dominant-baseline="middle" text-anchor="middle" x="487.8947368421053" y="359.33333333333337">0.011</tspan></text><path d="M 510.6316 440 L 540.9474 440 L 540.9474 212 L 510.6316 212 L 510.6316 440 Z" fill="#c23531" fill-opacity="undefined" stroke="none" clip-path="none"></path><text transform="matrix(1,0,0,1,0,0)" fill="#c23531" fill-opacity="undefined" stroke="none" clip-path="none" style="font: 12px &quot;Microsoft YaHei&quot;;"><tspan dominant-baseline="middle" text-anchor="middle" x="525.7894736842106" y="201">0.036</tspan></text><path d="M 548.5263 440 L 578.8421 440 L 578.8421 123.33330000000001 L 548.5263 123.33330000000001 L 548.5263 440 Z" fill="#c23531" fill-opacity="undefined" stroke="none" clip-path="none"></path><text transform="matrix(1,0,0,1,0,0)" fill="#c23531" fill-opacity="undefined" stroke="none" clip-path="none" style="font: 12px &quot;Microsoft YaHei&quot;;"><tspan dominant-baseline="middle" text-anchor="middle" x="563.6842105263158" y="112.33333333333331">0.05</tspan></text><path d="M 586.4211 440 L 616.7369 440 L 616.7369 110.66669999999999 L 586.4211 110.66669999999999 L 586.4211 440 Z" fill="#c23531" fill-opacity="undefined" stroke="none" clip-path="none"></path><text transform="matrix(1,0,0,1,0,0)" fill="#c23531" fill-opacity="undefined" stroke="none" clip-path="none" style="font: 12px &quot;Microsoft YaHei&quot;;"><tspan dominant-baseline="middle" text-anchor="middle" x="601.578947368421" y="99.66666666666663">0.052</tspan></text><path d="M 624.3158 440 L 654.6315999999999 440 L 654.6315999999999 110.66669999999999 L 624.3158 110.66669999999999 L 624.3158 440 Z" fill="#c23531" fill-opacity="undefined" stroke="none" clip-path="none"></path><text transform="matrix(1,0,0,1,0,0)" fill="#c23531" fill-opacity="undefined" stroke="none" clip-path="none" style="font: 12px &quot;Microsoft YaHei&quot;;"><tspan dominant-baseline="middle" text-anchor="middle" x="639.4736842105264" y="99.66666666666663">0.052</tspan></text><path d="M 662.2105 440 L 692.5263 440 L 692.5263 117 L 662.2105 117 L 662.2105 440 Z" fill="#c23531" fill-opacity="undefined" stroke="none" clip-path="none"></path><text transform="matrix(1,0,0,1,0,0)" fill="#c23531" fill-opacity="undefined" stroke="none" clip-path="none" style="font: 12px &quot;Microsoft YaHei&quot;;"><tspan dominant-baseline="middle" text-anchor="middle" x="677.3684210526317" y="106">0.051</tspan></text><path d="M 700.1053 440 L 730.4211 440 L 730.4211 148.6667 L 700.1053 148.6667 L 700.1053 440 Z" fill="#c23531" fill-opacity="undefined" stroke="none" clip-path="none"></path><text transform="matrix(1,0,0,1,0,0)" fill="#c23531" fill-opacity="undefined" stroke="none" clip-path="none" style="font: 12px &quot;Microsoft YaHei&quot;;"><tspan dominant-baseline="middle" text-anchor="middle" x="715.2631578947369" y="137.66666666666663">0.046</tspan></text><path d="M 738 440 L 768.3158 440 L 768.3158 186.6667 L 738 186.6667 L 738 440 Z" fill="#c23531" fill-opacity="undefined" stroke="none" clip-path="none"></path><text transform="matrix(1,0,0,1,0,0)" fill="#c23531" fill-opacity="undefined" stroke="none" clip-path="none" style="font: 12px &quot;Microsoft YaHei&quot;;"><tspan dominant-baseline="middle" text-anchor="middle" x="753.1578947368421" y="175.66666666666663">0.04</tspan></text><path d="M 775.8947 440 L 806.2104999999999 440 L 806.2104999999999 370.3333 L 775.8947 370.3333 L 775.8947 440 Z" fill="#c23531" fill-opacity="undefined" stroke="none" clip-path="none"></path><text transform="matrix(1,0,0,1,0,0)" fill="#c23531" fill-opacity="undefined" stroke="none" clip-path="none" style="font: 12px &quot;Microsoft YaHei&quot;;"><tspan dominant-baseline="middle" text-anchor="middle" x="791.0526315789474" y="359.33333333333337">0.011</tspan></text><path d="M -5 -5 L 95 -5 L 95 19 L -5 19 L -5 -5 Z" fill="#ffffff" fill-opacity="1" stroke="#ccc" stroke-width="0" paint-order="fill" stroke-opacity="1" stroke-dasharray="" stroke-linecap="butt" stroke-linejoin="miter" stroke-miterlimit="10" transform="matrix(1,0,0,1,405,5)" clip-path="none"></path><path d="M 3.5 0 L 21.5 0 A 3.5 3.5 0 0 1 25 3.5 L 25 10.5 A 3.5 3.5 0 0 1 21.5 14 L 3.5 14 A 3.5 3.5 0 0 1 0 10.5 L 0 3.5 A 3.5 3.5 0 0 1 3.5 0 Z" fill="#c23531" fill-opacity="1" stroke="none" transform="matrix(1,0,0,1,405,5)" clip-path="none"></path><text transform="matrix(1,0,0,1,405,5)" fill="#333" fill-opacity="1" stroke="none" clip-path="none" style="font: 12px &quot;Microsoft YaHei&quot;;"><tspan dominant-baseline="middle" text-anchor="start" x="30" y="7">台湾死亡率</tspan></text><path d="M -5 -5 L 5 -5 L 5 5 L -5 5 L -5 -5 Z" fill="none" fill-opacity="1" stroke="#ccc" stroke-width="0" paint-order="fill" stroke-opacity="1" stroke-dasharray="" stroke-linecap="butt" stroke-linejoin="miter" stroke-miterlimit="10" transform="matrix(1,0,0,1,895,5)" clip-path="none"></path><path d="M -5 -5 L 131 -5 L 131 45 L -5 45 L -5 -5 Z" fill="#ffffff" fill-opacity="1" stroke="#ccc" stroke-width="0" paint-order="fill" stroke-opacity="1" stroke-dasharray="" stroke-linecap="butt" stroke-linejoin="miter" stroke-miterlimit="10" transform="matrix(1,0,0,1,5,5)" clip-path="none"></path><text transform="matrix(1,0,0,1,5,5)" fill="#333" fill-opacity="1" stroke="none" clip-path="none" style="font: bolder 18px &quot;Microsoft YaHei&quot;;"><tspan dominant-baseline="middle" text-anchor="start" x="0" y="9">台湾疫情死亡率</tspan></text><text transform="matrix(1,0,0,1,5,5)" fill="#aaa" fill-opacity="1" stroke="none" clip-path="none" style="font: 12px &quot;Microsoft YaHei&quot;;"><tspan dominant-baseline="middle" text-anchor="start" x="0" y="34">截至2022-05-30</tspan></text></g></svg>