<svg xmlns="http://www.w3.org/2000/svg" version="1.1" baseProfile="full" width="900" height="500" style="user-select: none; position: absolute; left: 0px; top: 0px;"><g><rect width="900" height="500" x="0" y="0" id="0" style="fill: rgb(255, 255, 255);"></rect></g><g><path d="M 90 440.5 L 810 440.5" fill="none" stroke="#ccc" stroke-width="1" paint-order="fill" stroke-opacity="1" stroke-dasharray="" stroke-linecap="butt" stroke-linejoin="miter" stroke-miterlimit="10" clip-path="none"></path><path d="M 90 385.5 L 810 385.5" fill="none" stroke="#ccc" stroke-width="1" paint-order="fill" stroke-opacity="1" stroke-dasharray="" stroke-linecap="butt" stroke-linejoin="miter" stroke-miterlimit="10" clip-path="none"></path><path d="M 90 331.5 L 810 331.5" fill="none" stroke="#ccc" stroke-width="1" paint-order="fill" stroke-opacity="1" stroke-dasharray="" stroke-linecap="butt" stroke-linejoin="miter" stroke-miterlimit="10" clip-path="none"></path><path d="M 90 277.5 L 810 277.5" fill="none" stroke="#ccc" stroke-width="1" paint-order="fill" stroke-opacity="1" stroke-dasharray="" stroke-linecap="butt" stroke-linejoin="miter" stroke-miterlimit="10" clip-path="none"></path><path d="M 90 223.5 L 810 223.5" fill="none" stroke="#ccc" stroke-width="1" paint-order="fill" stroke-opacity="1" stroke-dasharray="" stroke-linecap="butt" stroke-linejoin="miter" stroke-miterlimit="10" clip-path="none"></path><path d="M 90 168.5 L 810 168.5" fill="none" stroke="#ccc" stroke-width="1" paint-order="fill" stroke-opacity="1" stroke-dasharray="" stroke-linecap="butt" stroke-linejoin="miter" stroke-miterlimit="10" clip-path="none"></path><path d="M 90 114.5 L 810 114.5" fill="none" stroke="#ccc" stroke-width="1" paint-order="fill" stroke-opacity="1" stroke-dasharray="" stroke-linecap="butt" stroke-linejoin="miter" stroke-miterlimit="10" clip-path="none"></path><path d="M 90 60.5 L 810 60.5" fill="none" stroke="#ccc" stroke-width="1" paint-order="fill" stroke-opacity="1" stroke-dasharray="" stroke-linecap="butt" stroke-linejoin="miter" stroke-miterlimit="10" clip-path="none"></path><path d="M 90.5 440 L 90.5 60" fill="none" stroke="#333" stroke-width="1" paint-order="fill" stroke-opacity="1" stroke-dasharray="" stroke-linecap="round" stroke-linejoin="miter" stroke-miterlimit="10" clip-path="none"></path><path d="M 90 440.5 L 810 440.5" fill="none" stroke="#333" stroke-width="1" paint-order="fill" stroke-opacity="1" stroke-dasharray="" stroke-linecap="round" stroke-linejoin="miter" stroke-miterlimit="10" clip-path="none"></path><path d="M 90 440.5 L 85 440.5" fill="none" stroke="#333" stroke-width="1" paint-order="fill" stroke-opacity="1" stroke-dasharray="" stroke-linecap="butt" stroke-linejoin="miter" stroke-miterlimit="10" clip-path="none"></path><path d="M 90 385.5 L 85 385.5" fill="none" stroke="#333" stroke-width="1" paint-order="fill" stroke-opacity="1" stroke-dasharray="" stroke-linecap="butt" stroke-linejoin="miter" stroke-miterlimit="10" clip-path="none"></path><path d="M 90 331.5 L 85 331.5" fill="none" stroke="#333" stroke-width="1" paint-order="fill" stroke-opacity="1" stroke-dasharray="" stroke-linecap="butt" stroke-linejoin="miter" stroke-miterlimit="10" clip-path="none"></path><path d="M 90 277.5 L 85 277.5" fill="none" stroke="#333" stroke-width="1" paint-order="fill" stroke-opacity="1" stroke-dasharray="" stroke-linecap="butt" stroke-linejoin="miter" stroke-miterlimit="10" clip-path="none"></path><path d="M 90 223.5 L 85 223.5" fill="none" stroke="#333" stroke-width="1" paint-order="fill" stroke-opacity="1" stroke-dasharray="" stroke-linecap="butt" stroke-linejoin="miter" stroke-miterlimit="10" clip-path="none"></path><path d="M 90 168.5 L 85 168.5" fill="none" stroke="#333" stroke-width="1" paint-order="fill" stroke-opacity="1" stroke-dasharray="" stroke-linecap="butt" stroke-linejoin="miter" stroke-miterlimit="10" clip-path="none"></path><path d="M 90 114.5 L 85 114.5" fill="none" stroke="#333" stroke-width="1" paint-order="fill" stroke-opacity="1" stroke-dasharray="" stroke-linecap="butt" stroke-linejoin="miter" stroke-miterlimit="10" clip-path="none"></path><path d="M 90 60.5 L 85 60.5" fill="none" stroke="#333" stroke-width="1" paint-order="fill" stroke-opacity="1" stroke-dasharray="" stroke-linecap="butt" stroke-linejoin="miter" stroke-miterlimit="10" clip-path="none"></path><path d="M 90.5 440 L 90.5 445" fill="none" stroke="#333" stroke-width="1" paint-order="fill" stroke-opacity="1" stroke-dasharray="" stroke-linecap="butt" stroke-linejoin="miter" stroke-miterlimit="10" clip-path="none"></path><path d="M 128.5 440 L 128.5 445" fill="none" stroke="#333" stroke-width="1" paint-order="fill" stroke-opacity="1" stroke-dasharray="" stroke-linecap="butt" stroke-linejoin="miter" stroke-miterlimit="10" clip-path="none"></path><path d="M 166.5 440 L 166.5 445" fill="none" stroke="#333" stroke-width="1" paint-order="fill" stroke-opacity="1" stroke-dasharray="" stroke-linecap="butt" stroke-linejoin="miter" stroke-miterlimit="10" clip-path="none"></path><path d="M 203.5 440 L 203.5 445" fill="none" stroke="#333" stroke-width="1" paint-order="fill" stroke-opacity="1" stroke-dasharray="" stroke-linecap="butt" stroke-linejoin="miter" stroke-miterlimit="10" clip-path="none"></path><path d="M 241.5 440 L 241.5 445" fill="none" stroke="#333" stroke-width="1" paint-order="fill" stroke-opacity="1" stroke-dasharray="" stroke-linecap="butt" stroke-linejoin="miter" stroke-miterlimit="10" clip-path="none"></path><path d="M 279.5 440 L 279.5 445" fill="none" stroke="#333" stroke-width="1" paint-order="fill" stroke-opacity="1" stroke-dasharray="" stroke-linecap="butt" stroke-linejoin="miter" stroke-miterlimit="10" clip-path="none"></path><path d="M 317.5 440 L 317.5 445" fill="none" stroke="#333" stroke-width="1" paint-order="fill" stroke-opacity="1" stroke-dasharray="" stroke-linecap="butt" stroke-linejoin="miter" stroke-miterlimit="10" clip-path="none"></path><path d="M 355.5 440 L 355.5 445" fill="none" stroke="#333" stroke-width="1" paint-order="fill" stroke-opacity="1" stroke-dasharray="" stroke-linecap="butt" stroke-linejoin="miter" stroke-miterlimit="10" clip-path="none"></path><path d="M 393.5 440 L 393.5 445" fill="none" stroke="#333" stroke-width="1" paint-order="fill" stroke-opacity="1" stroke-dasharray="" stroke-linecap="butt" stroke-linejoin="miter" stroke-miterlimit="10" clip-path="none"></path><path d="M 431.5 440 L 431.5 445" fill="none" stroke="#333" stroke-width="1" paint-order="fill" stroke-opacity="1" stroke-dasharray="" stroke-linecap="butt" stroke-linejoin="miter" stroke-miterlimit="10" clip-path="none"></path><path d="M 469.5 440 L 469.5 445" fill="none" stroke="#333" stroke-width="1" paint-order="fill" stroke-opacity="1" stroke-dasharray="" stroke-linecap="butt" stroke-linejoin="miter" stroke-miterlimit="10" clip-path="none"></path><path d="M 507.5 440 L 507.5 445" fill="none" stroke="#333" stroke-width="1" paint-order="fill" stroke-opacity="1" stroke-dasharray="" stroke-linecap="butt" stroke-linejoin="miter" stroke-miterlimit="10" clip-path="none"></path><path d="M 544.5 440 L 544.5 445" fill="none" stroke="#333" stroke-width="1" paint-order="fill" stroke-opacity="1" stroke-dasharray="" stroke-linecap="butt" stroke-linejoin="miter" stroke-miterlimit="10" clip-path="none"></path><path d="M 582.5 440 L 582.5 445" fill="none" stroke="#333" stroke-width="1" paint-order="fill" stroke-opacity="1" stroke-dasharray="" stroke-linecap="butt" stroke-linejoin="miter" stroke-miterlimit="10" clip-path="none"></path><path d="M 620.5 440 L 620.5 445" fill="none" stroke="#333" stroke-width="1" paint-order="fill" stroke-opacity="1" stroke-dasharray="" stroke-linecap="butt" stroke-linejoin="miter" stroke-miterlimit="10" clip-path="none"></path><path d="M 658.5 440 L 658.5 445" fill="none" stroke="#333" stroke-width="1" paint-order="fill" stroke-opacity="1" stroke-dasharray="" stroke-linecap="butt" stroke-linejoin="miter" stroke-miterlimit="10" clip-path="none"></path><path d="M 696.5 440 L 696.5 445" fill="none" stroke="#333" stroke-width="1" paint-order="fill" stroke-opacity="1" stroke-dasharray="" stroke-linecap="butt" stroke-linejoin="miter" stroke-miterlimit="10" clip-path="none"></path><path d="M 734.5 440 L 734.5 445" fill="none" stroke="#333" stroke-width="1" paint-order="fill" stroke-opacity="1" stroke-dasharray="" stroke-linecap="butt" stroke-linejoin="miter" stroke-miterlimit="10" clip-path="none"></path><path d="M 772.5 440 L 772.5 445" fill="none" stroke="#333" stroke-width="1" paint-order="fill" stroke-opacity="1" stroke-dasharray="" stroke-linecap="butt" stroke-linejoin="miter" stroke-miterlimit="10" clip-path="none"></path><path d="M 810.5 440 L 810.5 445" fill="none" stroke="#333" stroke-width="1" paint-order="fill" stroke-opacity="1" stroke-dasharray="" stroke-linecap="butt" stroke-linejoin="miter" stroke-miterlimit="10" clip-path="none"></path><text transform="matrix(1,2.4492937051703357e-16,-2.4492937051703357e-16,1,82,440)" fill="#333" fill-opacity="1" stroke="none" clip-path="none" style="font: 12px &quot;Microsoft YaHei&quot;;"><tspan dominant-baseline="middle" text-anchor="end" x="0" y="0">0</tspan></text><text transform="matrix(1,2.4492937051703357e-16,-2.4492937051703357e-16,1,82,385.71429443359375)" fill="#333" fill-opacity="1" stroke="none" clip-path="none" style="font: 12px &quot;Microsoft YaHei&quot;;"><tspan dominant-baseline="middle" text-anchor="end" x="0" y="0">0.01</tspan></text><text transform="matrix(1,2.4492937051703357e-16,-2.4492937051703357e-16,1,82,331.4285888671875)" fill="#333" fill-opacity="1" stroke="none" clip-path="none" style="font: 12px &quot;Microsoft YaHei&quot;;"><tspan dominant-baseline="middle" text-anchor="end" x="0" y="0">0.02</tspan></text><text transform="matrix(1,2.4492937051703357e-16,-2.4492937051703357e-16,1,82,277.1428527832031)" fill="#333" fill-opacity="1" stroke="none" clip-path="none" style="font: 12px &quot;Microsoft YaHei&quot;;"><tspan dominant-baseline="middle" text-anchor="end" x="0" y="0">0.03</tspan></text><text transform="matrix(1,2.4492937051703357e-16,-2.4492937051703357e-16,1,82,222.85714721679688)" fill="#333" fill-opacity="1" stroke="none" clip-path="none" style="font: 12px &quot;Microsoft YaHei&quot;;"><tspan dominant-baseline="middle" text-anchor="end" x="0" y="0">0.04</tspan></text><text transform="matrix(1,2.4492937051703357e-16,-2.4492937051703357e-16,1,82,168.57144165039062)" fill="#333" fill-opacity="1" stroke="none" clip-path="none" style="font: 12px &quot;Microsoft YaHei&quot;;"><tspan dominant-baseline="middle" text-anchor="end" x="0" y="0">0.05</tspan></text><text transform="matrix(1,2.4492937051703357e-16,-2.4492937051703357e-16,1,82,114.28570556640625)" fill="#333" fill-opacity="1" stroke="none" clip-path="none" style="font: 12px &quot;Microsoft YaHei&quot;;"><tspan dominant-baseline="middle" text-anchor="end" x="0" y="0">0.06</tspan></text><text transform="matrix(1,2.4492937051703357e-16,-2.4492937051703357e-16,1,82,60)" fill="#333" fill-opacity="1" stroke="none" clip-path="none" style="font: 12px &quot;Microsoft YaHei&quot;;"><tspan dominant-baseline="middle" text-anchor="end" x="0" y="0">0.07</tspan></text><text transform="matrix(0.8660253882408142,-0.5,0.5,0.8660253882408142,108.94737243652344,448)" fill="#333" fill-opacity="1" stroke="none" clip-path="none" style="font: 12px &quot;Microsoft YaHei&quot;;"><tspan dominant-baseline="middle" text-anchor="end" x="0" y="0">2020-01-22</tspan></text><text transform="matrix(0.8660253882408142,-0.5,0.5,0.8660253882408142,146.84210205078125,448)" fill="#333" fill-opacity="1" stroke="none" clip-path="none" style="font: 12px &quot;Microsoft YaHei&quot;;"><tspan dominant-baseline="middle" text-anchor="end" x="0" y="0">2020-03-07</tspan></text><text transform="matrix(0.8660253882408142,-0.5,0.5,0.8660253882408142,184.73684692382812,448)" fill="#333" fill-opacity="1" stroke="none" clip-path="none" style="font: 12px &quot;Microsoft YaHei&quot;;"><tspan dominant-baseline="middle" text-anchor="end" x="0" y="0">2020-04-21</tspan></text><text transform="matrix(0.8660253882408142,-0.5,0.5,0.8660253882408142,222.63157653808594,448)" fill="#333" fill-opacity="1" stroke="none" clip-path="none" style="font: 12px &quot;Microsoft YaHei&quot;;"><tspan dominant-baseline="middle" text-anchor="end" x="0" y="0">2020-06-05</tspan></text><text transform="matrix(0.8660253882408142,-0.5,0.5,0.8660253882408142,260.52630615234375,448)" fill="#333" fill-opacity="1" stroke="none" clip-path="none" style="font: 12px &quot;Microsoft YaHei&quot;;"><tspan dominant-baseline="middle" text-anchor="end" x="0" y="0">2020-07-20</tspan></text><text transform="matrix(0.8660253882408142,-0.5,0.5,0.8660253882408142,298.4210510253906,448)" fill="#333" fill-opacity="1" stroke="none" clip-path="none" style="font: 12px &quot;Microsoft YaHei&quot;;"><tspan dominant-baseline="middle" text-anchor="end" x="0" y="0">2020-09-09</tspan></text><text transform="matrix(0.8660253882408142,-0.5,0.5,0.8660253882408142,336.3157958984375,448)" fill="#333" fill-opacity="1" stroke="none" clip-path="none" style="font: 12px &quot;Microsoft YaHei&quot;;"><tspan dominant-baseline="middle" text-anchor="end" x="0" y="0">2020-10-30</tspan></text><text transform="matrix(0.8660253882408142,-0.5,0.5,0.8660253882408142,374.2105407714844,448)" fill="#333" fill-opacity="1" stroke="none" clip-path="none" style="font: 12px &quot;Microsoft YaHei&quot;;"><tspan dominant-baseline="middle" text-anchor="end" x="0" y="0">2020-12-18</tspan></text><text transform="matrix(0.8660253882408142,-0.5,0.5,0.8660253882408142,412.1052551269531,448)" fill="#333" fill-opacity="1" stroke="none" clip-path="none" style="font: 12px &quot;Microsoft YaHei&quot;;"><tspan dominant-baseline="middle" text-anchor="end" x="0" y="0">2021-02-01</tspan></text><text transform="matrix(0.8660253882408142,-0.5,0.5,0.8660253882408142,450,448)" fill="#333" fill-opacity="1" stroke="none" clip-path="none" style="font: 12px &quot;Microsoft YaHei&quot;;"><tspan dominant-baseline="middle" text-anchor="end" x="0" y="0">2021-03-18</tspan></text><text transform="matrix(0.8660253882408142,-0.5,0.5,0.8660253882408142,487.8947448730469,448)" fill="#333" fill-opacity="1" stroke="none" clip-path="none" style="font: 12px &quot;Microsoft YaHei&quot;;"><tspan dominant-baseline="middle" text-anchor="end" x="0" y="0">2021-05-02</tspan></text><text transform="matrix(0.8660253882408142,-0.5,0.5,0.8660253882408142,525.7894287109375,448)" fill="#333" fill-opacity="1" stroke="none" clip-path="none" style="font: 12px &quot;Microsoft YaHei&quot;;"><tspan dominant-baseline="middle" text-anchor="end" x="0" y="0">2021-06-16</tspan></text><text transform="matrix(0.8660253882408142,-0.5,0.5,0.8660253882408142,563.6842041015625,448)" fill="#333" fill-opacity="1" stroke="none" clip-path="none" style="font: 12px &quot;Microsoft YaHei&quot;;"><tspan dominant-baseline="middle" text-anchor="end" x="0" y="0">2021-07-31</tspan></text><text transform="matrix(0.8660253882408142,-0.5,0.5,0.8660253882408142,601.5789794921875,448)" fill="#333" fill-opacity="1" stroke="none" clip-path="none" style="font: 12px &quot;Microsoft YaHei&quot;;"><tspan dominant-baseline="middle" text-anchor="end" x="0" y="0">2021-09-14</tspan></text><text transform="matrix(0.8660253882408142,-0.5,0.5,0.8660253882408142,639.4736938476562,448)" fill="#333" fill-opacity="1" stroke="none" clip-path="none" style="font: 12px &quot;Microsoft YaHei&quot;;"><tspan dominant-baseline="middle" text-anchor="end" x="0" y="0">2021-10-29</tspan></text><text transform="matrix(0.8660253882408142,-0.5,0.5,0.8660253882408142,677.368408203125,448)" fill="#333" fill-opacity="1" stroke="none" clip-path="none" style="font: 12px &quot;Microsoft YaHei&quot;;"><tspan dominant-baseline="middle" text-anchor="end" x="0" y="0">2021-12-13</tspan></text><text transform="matrix(0.8660253882408142,-0.5,0.5,0.8660253882408142,715.26318359375,448)" fill="#333" fill-opacity="1" stroke="none" clip-path="none" style="font: 12px &quot;Microsoft YaHei&quot;;"><tspan dominant-baseline="middle" text-anchor="end" x="0" y="0">2022-01-27</tspan></text><text transform="matrix(0.8660253882408142,-0.5,0.5,0.8660253882408142,753.1578979492188,448)" fill="#333" fill-opacity="1" stroke="none" clip-path="none" style="font: 12px &quot;Microsoft YaHei&quot;;"><tspan dominant-baseline="middle" text-anchor="end" x="0" y="0">2022-03-13</tspan></text><text transform="matrix(0.8660253882408142,-0.5,0.5,0.8660253882408142,791.0526123046875,448)" fill="#333" fill-opacity="1" stroke="none" clip-path="none" style="font: 12px &quot;Microsoft YaHei&quot;;"><tspan dominant-baseline="middle" text-anchor="end" x="0" y="0">2022-04-27</tspan></text><path d="M 93.7895 440 L 106.97030000000001 440 L 106.97030000000001 440 L 93.7895 440 L 93.7895 440 Z" fill="#c23531" fill-opacity="undefined" stroke="none" clip-path="none"></path><text transform="matrix(1,0,0,1,0,0)" fill="#c23531" fill-opacity="undefined" stroke="none" clip-path="none" style="font: 12px &quot;Microsoft YaHei&quot;;"><tspan dominant-baseline="middle" text-anchor="middle" x="100.37986270022883" y="429">0</tspan></text><path d="M 131.6842 440 L 144.865 440 L 144.865 320.5714 L 131.6842 320.5714 L 131.6842 440 Z" fill="#c23531" fill-opacity="undefined" stroke="none" clip-path="none"></path><text transform="matrix(1,0,0,1,0,0)" fill="#c23531" fill-opacity="undefined" stroke="none" clip-path="none" style="font: 12px &quot;Microsoft YaHei&quot;;"><tspan dominant-baseline="middle" text-anchor="middle" x="138.2745995423341" y="309.5714285714286">0.022</tspan></text><path d="M 169.5789 440 L 182.7597 440 L 182.7597 364 L 169.5789 364 L 169.5789 440 Z" fill="#c23531" fill-opacity="undefined" stroke="none" clip-path="none"></path><text transform="matrix(1,0,0,1,0,0)" fill="#c23531" fill-opacity="undefined" stroke="none" clip-path="none" style="font: 12px &quot;Microsoft YaHei&quot;;"><tspan dominant-baseline="middle" text-anchor="middle" x="176.16933638443936" y="353">0.014</tspan></text><path d="M 207.4737 440 L 220.6545 440 L 220.6545 353.1429 L 207.4737 353.1429 L 207.4737 440 Z" fill="#c23531" fill-opacity="undefined" stroke="none" clip-path="none"></path><text transform="matrix(1,0,0,1,0,0)" fill="#c23531" fill-opacity="undefined" stroke="none" clip-path="none" style="font: 12px &quot;Microsoft YaHei&quot;;"><tspan dominant-baseline="middle" text-anchor="middle" x="214.06407322654462" y="342.1428571428571">0.016</tspan></text><path d="M 245.3684 440 L 258.5492 440 L 258.5492 358.5714 L 245.3684 358.5714 L 245.3684 440 Z" fill="#c23531" fill-opacity="undefined" stroke="none" clip-path="none"></path><path d="M 283.2632 440 L 296.44399999999996 440 L 296.44399999999996 364 L 283.2632 364 L 283.2632 440 Z" fill="#c23531" fill-opacity="undefined" stroke="none" clip-path="none"></path><text transform="matrix(1,0,0,1,0,0)" fill="#c23531" fill-opacity="undefined" stroke="none" clip-path="none" style="font: 12px &quot;Microsoft YaHei&quot;;"><tspan dominant-baseline="middle" text-anchor="middle" x="289.8535469107552" y="353">0.014</tspan></text><text transform="matrix(1,0,0,1,0,0)" fill="#c23531" fill-opacity="undefined" stroke="none" clip-path="none" style="font: 12px &quot;Microsoft YaHei&quot;;"><tspan dominant-baseline="middle" text-anchor="middle" x="251.95881006864988" y="347.57142857142856">0.015</tspan></text><path d="M 321.1579 440 L 334.33869999999996 440 L 334.33869999999996 369.4286 L 321.1579 369.4286 L 321.1579 440 Z" fill="#c23531" fill-opacity="undefined" stroke="none" clip-path="none"></path><text transform="matrix(1,0,0,1,0,0)" fill="#c23531" fill-opacity="undefined" stroke="none" clip-path="none" style="font: 12px &quot;Microsoft YaHei&quot;;"><tspan dominant-baseline="middle" text-anchor="middle" x="327.7482837528604" y="358.42857142857144">0.013</tspan></text><path d="M 359.0526 440 L 372.23339999999996 440 L 372.23339999999996 391.1429 L 359.0526 391.1429 L 359.0526 440 Z" fill="#c23531" fill-opacity="undefined" stroke="none" clip-path="none"></path><text transform="matrix(1,0,0,1,0,0)" fill="#c23531" fill-opacity="undefined" stroke="none" clip-path="none" style="font: 12px &quot;Microsoft YaHei&quot;;"><tspan dominant-baseline="middle" text-anchor="middle" x="365.6430205949657" y="380.14285714285717">0.009</tspan></text><path d="M 396.9474 440 L 410.1282 440 L 410.1282 391.1429 L 396.9474 391.1429 L 396.9474 440 Z" fill="#c23531" fill-opacity="undefined" stroke="none" clip-path="none"></path><text transform="matrix(1,0,0,1,0,0)" fill="#c23531" fill-opacity="undefined" stroke="none" clip-path="none" style="font: 12px &quot;Microsoft YaHei&quot;;"><tspan dominant-baseline="middle" text-anchor="middle" x="403.53775743707104" y="380.14285714285717">0.009</tspan></text><path d="M 434.8421 440 L 448.0229 440 L 448.0229 385.7143 L 434.8421 385.7143 L 434.8421 440 Z" fill="#c23531" fill-opacity="undefined" stroke="none" clip-path="none"></path><text transform="matrix(1,0,0,1,0,0)" fill="#c23531" fill-opacity="undefined" stroke="none" clip-path="none" style="font: 12px &quot;Microsoft YaHei&quot;;"><tspan dominant-baseline="middle" text-anchor="middle" x="441.43249427917624" y="374.7142857142857">0.01</tspan></text><path d="M 472.7368 440 L 485.9176 440 L 485.9176 380.2857 L 472.7368 380.2857 L 472.7368 440 Z" fill="#c23531" fill-opacity="undefined" stroke="none" clip-path="none"></path><text transform="matrix(1,0,0,1,0,0)" fill="#c23531" fill-opacity="undefined" stroke="none" clip-path="none" style="font: 12px &quot;Microsoft YaHei&quot;;"><tspan dominant-baseline="middle" text-anchor="middle" x="479.32723112128156" y="369.2857142857143">0.011</tspan></text><path d="M 510.6316 440 L 523.8124 440 L 523.8124 244.5714 L 510.6316 244.5714 L 510.6316 440 Z" fill="#c23531" fill-opacity="undefined" stroke="none" clip-path="none"></path><text transform="matrix(1,0,0,1,0,0)" fill="#c23531" fill-opacity="undefined" stroke="none" clip-path="none" style="font: 12px &quot;Microsoft YaHei&quot;;"><tspan dominant-baseline="middle" text-anchor="middle" x="517.2219679633869" y="233.57142857142858">0.036</tspan></text><path d="M 548.5263 440 L 561.7071 440 L 561.7071 168.57139999999998 L 548.5263 168.57139999999998 L 548.5263 440 Z" fill="#c23531" fill-opacity="undefined" stroke="none" clip-path="none"></path><text transform="matrix(1,0,0,1,0,0)" fill="#c23531" fill-opacity="undefined" stroke="none" clip-path="none" style="font: 12px &quot;Microsoft YaHei&quot;;"><tspan dominant-baseline="middle" text-anchor="middle" x="555.1167048054921" y="157.57142857142856">0.05</tspan></text><path d="M 586.4211 440 L 599.6019 440 L 599.6019 157.71429999999998 L 586.4211 157.71429999999998 L 586.4211 440 Z" fill="#c23531" fill-opacity="undefined" stroke="none" clip-path="none"></path><text transform="matrix(1,0,0,1,0,0)" fill="#c23531" fill-opacity="undefined" stroke="none" clip-path="none" style="font: 12px &quot;Microsoft YaHei&quot;;"><tspan dominant-baseline="middle" text-anchor="middle" x="593.0114416475973" y="146.71428571428572">0.052</tspan></text><path d="M 624.3158 440 L 637.4966 440 L 637.4966 157.71429999999998 L 624.3158 157.71429999999998 L 624.3158 440 Z" fill="#c23531" fill-opacity="undefined" stroke="none" clip-path="none"></path><text transform="matrix(1,0,0,1,0,0)" fill="#c23531" fill-opacity="undefined" stroke="none" clip-path="none" style="font: 12px &quot;Microsoft YaHei&quot;;"><tspan dominant-baseline="middle" text-anchor="middle" x="630.9061784897026" y="146.71428571428572">0.052</tspan></text><path d="M 662.2105 440 L 675.3913 440 L 675.3913 163.1429 L 662.2105 163.1429 L 662.2105 440 Z" fill="#c23531" fill-opacity="undefined" stroke="none" clip-path="none"></path><text transform="matrix(1,0,0,1,0,0)" fill="#c23531" fill-opacity="undefined" stroke="none" clip-path="none" style="font: 12px &quot;Microsoft YaHei&quot;;"><tspan dominant-baseline="middle" text-anchor="middle" x="668.8009153318079" y="152.14285714285722">0.051</tspan></text><path d="M 700.1053 440 L 713.2861 440 L 713.2861 190.2857 L 700.1053 190.2857 L 700.1053 440 Z" fill="#c23531" fill-opacity="undefined" stroke="none" clip-path="none"></path><path d="M 738 440 L 751.1808 440 L 751.1808 222.8571 L 738 222.8571 L 738 440 Z" fill="#c23531" fill-opacity="undefined" stroke="none" clip-path="none"></path><text transform="matrix(1,0,0,1,0,0)" fill="#c23531" fill-opacity="undefined" stroke="none" clip-path="none" style="font: 12px &quot;Microsoft YaHei&quot;;"><tspan dominant-baseline="middle" text-anchor="middle" x="744.5903890160183" y="211.85714285714286">0.04</tspan></text><text transform="matrix(1,0,0,1,0,0)" fill="#c23531" fill-opacity="undefined" stroke="none" clip-path="none" style="font: 12px &quot;Microsoft YaHei&quot;;"><tspan dominant-baseline="middle" text-anchor="middle" x="706.6956521739131" y="179.28571428571433">0.046</tspan></text><path d="M 775.8947 440 L 789.0754999999999 440 L 789.0754999999999 380.2857 L 775.8947 380.2857 L 775.8947 440 Z" fill="#c23531" fill-opacity="undefined" stroke="none" clip-path="none"></path><text transform="matrix(1,0,0,1,0,0)" fill="#c23531" fill-opacity="undefined" stroke="none" clip-path="none" style="font: 12px &quot;Microsoft YaHei&quot;;"><tspan dominant-baseline="middle" text-anchor="middle" x="782.4851258581236" y="369.2857142857143">0.011</tspan></text><path d="M 110.9245 440 L 124.1053 440 L 124.1053 233.7143 L 110.9245 233.7143 L 110.9245 440 Z" fill="#2f4554" fill-opacity="undefined" stroke="none" clip-path="none"></path><text transform="matrix(1,0,0,1,0,0)" fill="#2f4554" fill-opacity="undefined" stroke="none" clip-path="none" style="font: 12px &quot;Microsoft YaHei&quot;;"><tspan dominant-baseline="middle" text-anchor="middle" x="117.51487414187643" y="222.71428571428572">0.038</tspan></text><path d="M 148.8192 440 L 162 440 L 162 201.1429 L 148.8192 201.1429 L 148.8192 440 Z" fill="#2f4554" fill-opacity="undefined" stroke="none" clip-path="none"></path><text transform="matrix(1,0,0,1,0,0)" fill="#2f4554" fill-opacity="undefined" stroke="none" clip-path="none" style="font: 12px &quot;Microsoft YaHei&quot;;"><tspan dominant-baseline="middle" text-anchor="middle" x="155.40961098398168" y="190.1428571428572">0.044</tspan></text><path d="M 186.714 440 L 199.8948 440 L 199.8948 81.71429999999998 L 186.714 81.71429999999998 L 186.714 440 Z" fill="#2f4554" fill-opacity="undefined" stroke="none" clip-path="none"></path><text transform="matrix(1,0,0,1,0,0)" fill="#2f4554" fill-opacity="undefined" stroke="none" clip-path="none" style="font: 12px &quot;Microsoft YaHei&quot;;"><tspan dominant-baseline="middle" text-anchor="middle" x="193.304347826087" y="70.71428571428572">0.066</tspan></text><path d="M 224.6087 440 L 237.7895 440 L 237.7895 81.71429999999998 L 224.6087 81.71429999999998 L 224.6087 440 Z" fill="#2f4554" fill-opacity="undefined" stroke="none" clip-path="none"></path><text transform="matrix(1,0,0,1,0,0)" fill="#2f4554" fill-opacity="undefined" stroke="none" clip-path="none" style="font: 12px &quot;Microsoft YaHei&quot;;"><tspan dominant-baseline="middle" text-anchor="middle" x="231.19908466819226" y="70.71428571428572">0.066</tspan></text><path d="M 262.5034 440 L 275.6842 440 L 275.6842 81.71429999999998 L 262.5034 81.71429999999998 L 262.5034 440 Z" fill="#2f4554" fill-opacity="undefined" stroke="none" clip-path="none"></path><text transform="matrix(1,0,0,1,0,0)" fill="#2f4554" fill-opacity="undefined" stroke="none" clip-path="none" style="font: 12px &quot;Microsoft YaHei&quot;;"><tspan dominant-baseline="middle" text-anchor="middle" x="269.0938215102975" y="70.71428571428572">0.066</tspan></text><path d="M 300.3982 440 L 313.57899999999995 440 L 313.57899999999995 81.71429999999998 L 300.3982 81.71429999999998 L 300.3982 440 Z" fill="#2f4554" fill-opacity="undefined" stroke="none" clip-path="none"></path><text transform="matrix(1,0,0,1,0,0)" fill="#2f4554" fill-opacity="undefined" stroke="none" clip-path="none" style="font: 12px &quot;Microsoft YaHei&quot;;"><tspan dominant-baseline="middle" text-anchor="middle" x="306.9885583524027" y="70.71428571428572">0.066</tspan></text><path d="M 338.2929 440 L 351.47369999999995 440 L 351.47369999999995 81.71429999999998 L 338.2929 81.71429999999998 L 338.2929 440 Z" fill="#2f4554" fill-opacity="undefined" stroke="none" clip-path="none"></path><path d="M 376.1876 440 L 389.36839999999995 440 L 389.36839999999995 81.71429999999998 L 376.1876 81.71429999999998 L 376.1876 440 Z" fill="#2f4554" fill-opacity="undefined" stroke="none" clip-path="none"></path><text transform="matrix(1,0,0,1,0,0)" fill="#2f4554" fill-opacity="undefined" stroke="none" clip-path="none" style="font: 12px &quot;Microsoft YaHei&quot;;"><tspan dominant-baseline="middle" text-anchor="middle" x="382.77803203661324" y="70.71428571428572">0.066</tspan></text><text transform="matrix(1,0,0,1,0,0)" fill="#2f4554" fill-opacity="undefined" stroke="none" clip-path="none" style="font: 12px &quot;Microsoft YaHei&quot;;"><tspan dominant-baseline="middle" text-anchor="middle" x="344.88329519450804" y="70.71428571428572">0.066</tspan></text><path d="M 414.0824 440 L 427.2632 440 L 427.2632 81.71429999999998 L 414.0824 81.71429999999998 L 414.0824 440 Z" fill="#2f4554" fill-opacity="undefined" stroke="none" clip-path="none"></path><text transform="matrix(1,0,0,1,0,0)" fill="#2f4554" fill-opacity="undefined" stroke="none" clip-path="none" style="font: 12px &quot;Microsoft YaHei&quot;;"><tspan dominant-baseline="middle" text-anchor="middle" x="420.67276887871856" y="70.71428571428572">0.066</tspan></text><path d="M 451.9771 440 L 465.1579 440 L 465.1579 81.71429999999998 L 451.9771 81.71429999999998 L 451.9771 440 Z" fill="#2f4554" fill-opacity="undefined" stroke="none" clip-path="none"></path><path d="M 489.8719 440 L 503.05269999999996 440 L 503.05269999999996 81.71429999999998 L 489.8719 81.71429999999998 L 489.8719 440 Z" fill="#2f4554" fill-opacity="undefined" stroke="none" clip-path="none"></path><text transform="matrix(1,0,0,1,0,0)" fill="#2f4554" fill-opacity="undefined" stroke="none" clip-path="none" style="font: 12px &quot;Microsoft YaHei&quot;;"><tspan dominant-baseline="middle" text-anchor="middle" x="496.4622425629291" y="70.71428571428572">0.066</tspan></text><text transform="matrix(1,0,0,1,0,0)" fill="#2f4554" fill-opacity="undefined" stroke="none" clip-path="none" style="font: 12px &quot;Microsoft YaHei&quot;;"><tspan dominant-baseline="middle" text-anchor="middle" x="458.56750572082376" y="70.71428571428572">0.066</tspan></text><path d="M 527.7666 440 L 540.9474 440 L 540.9474 81.71429999999998 L 527.7666 81.71429999999998 L 527.7666 440 Z" fill="#2f4554" fill-opacity="undefined" stroke="none" clip-path="none"></path><text transform="matrix(1,0,0,1,0,0)" fill="#2f4554" fill-opacity="undefined" stroke="none" clip-path="none" style="font: 12px &quot;Microsoft YaHei&quot;;"><tspan dominant-baseline="middle" text-anchor="middle" x="534.3569794050344" y="70.71428571428572">0.066</tspan></text><path d="M 565.6613 440 L 578.8421 440 L 578.8421 81.71429999999998 L 565.6613 81.71429999999998 L 565.6613 440 Z" fill="#2f4554" fill-opacity="undefined" stroke="none" clip-path="none"></path><text transform="matrix(1,0,0,1,0,0)" fill="#2f4554" fill-opacity="undefined" stroke="none" clip-path="none" style="font: 12px &quot;Microsoft YaHei&quot;;"><tspan dominant-baseline="middle" text-anchor="middle" x="572.2517162471396" y="70.71428571428572">0.066</tspan></text><path d="M 603.5561 440 L 616.7369 440 L 616.7369 81.71429999999998 L 603.5561 81.71429999999998 L 603.5561 440 Z" fill="#2f4554" fill-opacity="undefined" stroke="none" clip-path="none"></path><text transform="matrix(1,0,0,1,0,0)" fill="#2f4554" fill-opacity="undefined" stroke="none" clip-path="none" style="font: 12px &quot;Microsoft YaHei&quot;;"><tspan dominant-baseline="middle" text-anchor="middle" x="610.1464530892448" y="70.71428571428572">0.066</tspan></text><path d="M 641.4508 440 L 654.6315999999999 440 L 654.6315999999999 81.71429999999998 L 641.4508 81.71429999999998 L 641.4508 440 Z" fill="#2f4554" fill-opacity="undefined" stroke="none" clip-path="none"></path><text transform="matrix(1,0,0,1,0,0)" fill="#2f4554" fill-opacity="undefined" stroke="none" clip-path="none" style="font: 12px &quot;Microsoft YaHei&quot;;"><tspan dominant-baseline="middle" text-anchor="middle" x="648.0411899313501" y="70.71428571428572">0.066</tspan></text><path d="M 679.3455 440 L 692.5263 440 L 692.5263 81.71429999999998 L 679.3455 81.71429999999998 L 679.3455 440 Z" fill="#2f4554" fill-opacity="undefined" stroke="none" clip-path="none"></path><text transform="matrix(1,0,0,1,0,0)" fill="#2f4554" fill-opacity="undefined" stroke="none" clip-path="none" style="font: 12px &quot;Microsoft YaHei&quot;;"><tspan dominant-baseline="middle" text-anchor="middle" x="685.9359267734554" y="70.71428571428572">0.066</tspan></text><path d="M 717.2403 440 L 730.4211 440 L 730.4211 81.71429999999998 L 717.2403 81.71429999999998 L 717.2403 440 Z" fill="#2f4554" fill-opacity="undefined" stroke="none" clip-path="none"></path><text transform="matrix(1,0,0,1,0,0)" fill="#2f4554" fill-opacity="undefined" stroke="none" clip-path="none" style="font: 12px &quot;Microsoft YaHei&quot;;"><tspan dominant-baseline="middle" text-anchor="middle" x="723.8306636155606" y="70.71428571428572">0.066</tspan></text><path d="M 755.135 440 L 768.3158 440 L 768.3158 81.71429999999998 L 755.135 81.71429999999998 L 755.135 440 Z" fill="#2f4554" fill-opacity="undefined" stroke="none" clip-path="none"></path><text transform="matrix(1,0,0,1,0,0)" fill="#2f4554" fill-opacity="undefined" stroke="none" clip-path="none" style="font: 12px &quot;Microsoft YaHei&quot;;"><tspan dominant-baseline="middle" text-anchor="middle" x="761.7254004576658" y="70.71428571428572">0.066</tspan></text><path d="M 793.0297 440 L 806.2105 440 L 806.2105 81.71429999999998 L 793.0297 81.71429999999998 L 793.0297 440 Z" fill="#2f4554" fill-opacity="undefined" stroke="none" clip-path="none"></path><text transform="matrix(1,0,0,1,0,0)" fill="#2f4554" fill-opacity="undefined" stroke="none" clip-path="none" style="font: 12px &quot;Microsoft YaHei&quot;;"><tspan dominant-baseline="middle" text-anchor="middle" x="799.6201372997712" y="70.71428571428572">0.066</tspan></text><path d="M -5 -5 L 195 -5 L 195 19 L -5 19 L -5 -5 Z" fill="#ffffff" fill-opacity="1" stroke="#ccc" stroke-width="0" paint-order="fill" stroke-opacity="1" stroke-dasharray="" stroke-linecap="butt" stroke-linejoin="miter" stroke-miterlimit="10" transform="matrix(1,0,0,1,355,5)" clip-path="none"></path><path d="M 3.5 0 L 21.5 0 A 3.5 3.5 0 0 1 25 3.5 L 25 10.5 A 3.5 3.5 0 0 1 21.5 14 L 3.5 14 A 3.5 3.5 0 0 1 0 10.5 L 0 3.5 A 3.5 3.5 0 0 1 3.5 0 Z" fill="#c23531" fill-opacity="1" stroke="none" transform="matrix(1,0,0,1,355,5)" clip-path="none"></path><text transform="matrix(1,0,0,1,355,5)" fill="#333" fill-opacity="1" stroke="none" clip-path="none" style="font: 12px &quot;Microsoft YaHei&quot;;"><tspan dominant-baseline="middle" text-anchor="start" x="30" y="7">台湾死亡率</tspan></text><path d="M 3.5 0 L 21.5 0 A 3.5 3.5 0 0 1 25 3.5 L 25 10.5 A 3.5 3.5 0 0 1 21.5 14 L 3.5 14 A 3.5 3.5 0 0 1 0 10.5 L 0 3.5 A 3.5 3.5 0 0 1 3.5 0 Z" fill="#2f4554" fill-opacity="1" stroke="none" transform="matrix(1,0,0,1,455,5)" clip-path="none"></path><text transform="matrix(1,0,0,1,455,5)" fill="#333" fill-opacity="1" stroke="none" clip-path="none" style="font: 12px &quot;Microsoft YaHei&quot;;"><tspan dominant-baseline="middle" text-anchor="start" x="30" y="7">湖北死亡率</tspan></text><path d="M -5 -5 L 5 -5 L 5 5 L -5 5 L -5 -5 Z" fill="none" fill-opacity="1" stroke="#ccc" stroke-width="0" paint-order="fill" stroke-opacity="1" stroke-dasharray="" stroke-linecap="butt" stroke-linejoin="miter" stroke-miterlimit="10" transform="matrix(1,0,0,1,895,5)" clip-path="none"></path><path d="M -5 -5 L 203 -5 L 203 45 L -5 45 L -5 -5 Z" fill="#ffffff" fill-opacity="1" stroke="#ccc" stroke-width="0" paint-order="fill" stroke-opacity="1" stroke-dasharray="" stroke-linecap="butt" stroke-linejoin="miter" stroke-miterlimit="10" transform="matrix(1,0,0,1,5,5)" clip-path="none"></path><text transform="matrix(1,0,0,1,5,5)" fill="#333" fill-opacity="1" stroke="none" clip-path="none" style="font: bolder 18px &quot;Microsoft YaHei&quot;;"><tspan dominant-baseline="middle" text-anchor="start" x="0" y="9">台湾湖北疫情死亡率比较</tspan></text><text transform="matrix(1,0,0,1,5,5)" fill="#aaa" fill-opacity="1" stroke="none" clip-path="none" style="font: 12px &quot;Microsoft YaHei&quot;;"><tspan dominant-baseline="middle" text-anchor="start" x="0" y="34">截至2022-05-30</tspan></text></g></svg>