<svg xmlns="http://www.w3.org/2000/svg" version="1.1" baseProfile="full" width="1350" height="750" style="user-select: none; position: absolute; left: 0px; top: 0px;">
<g>
<rect width="1350" height="750" x="0" y="0" id="0" style="fill: white;">
</rect>
</g>
<g>
<path d="M 708.7737 176.9562 L 708.7737 176.9562 L 708.7737 176.9562" fill="none" stroke="#FAE927" stroke-width="1" paint-order="fill" stroke-opacity="undefined" stroke-dasharray="" stroke-linecap="butt" stroke-linejoin="miter" stroke-miterlimit="10" clip-path="none">
</path>
<path d="M 740.8782 291.9804 L 740.8782 291.9804 L 740.8782 291.9804" fill="none" stroke="#E9E416" stroke-width="1" paint-order="fill" stroke-opacity="undefined" stroke-dasharray="" stroke-linecap="butt" stroke-linejoin="miter" stroke-miterlimit="10" clip-path="none">
</path>
<path d="M 780.1873 312.6774 L 780.1873 312.6774 L 780.1873 312.6774" fill="none" stroke="#C9DA36" stroke-width="1" paint-order="fill" stroke-opacity="undefined" stroke-dasharray="" stroke-linecap="butt" stroke-linejoin="miter" stroke-miterlimit="10" clip-path="none">
</path>
<path d="M 814.8461 339.8662 L 814.8461 339.8662 L 814.8461 339.8662" fill="none" stroke="#9ECB3C" stroke-width="1" paint-order="fill" stroke-opacity="undefined" stroke-dasharray="" stroke-linecap="butt" stroke-linejoin="miter" stroke-miterlimit="10" clip-path="none">
</path>
<path d="M 841.5726 374.561 L 841.5726 374.561 L 841.5726 374.561" fill="none" stroke="#6DBC49" stroke-width="1" paint-order="fill" stroke-opacity="undefined" stroke-dasharray="" stroke-linecap="butt" stroke-linejoin="miter" stroke-miterlimit="10" clip-path="none">
</path>
<path d="M 860.8796 413.4388 L 860.8796 413.4388 L 860.8796 413.4388" fill="none" stroke="#37B44E" stroke-width="1" paint-order="fill" stroke-opacity="undefined" stroke-dasharray="" stroke-linecap="butt" stroke-linejoin="miter" stroke-miterlimit="10" clip-path="none">
</path>
<path d="M 868.3835 455.7964 L 868.3835 455.7964 L 868.3835 455.7964" fill="none" stroke="#3DBA78" stroke-width="1" paint-order="fill" stroke-opacity="undefined" stroke-dasharray="" stroke-linecap="butt" stroke-linejoin="miter" stroke-miterlimit="10" clip-path="none">
</path>
<path d="M 863.973 497.7458 L 863.973 497.7458 L 863.973 497.7458" fill="none" stroke="#14ADCF" stroke-width="1" paint-order="fill" stroke-opacity="undefined" stroke-dasharray="" stroke-linecap="butt" stroke-linejoin="miter" stroke-miterlimit="10" clip-path="none">
</path>
<path d="M 846.8814 535.2226 L 846.8814 535.2226 L 846.8814 535.2226" fill="none" stroke="#209AC9" stroke-width="1" paint-order="fill" stroke-opacity="undefined" stroke-dasharray="" stroke-linecap="butt" stroke-linejoin="miter" stroke-miterlimit="10" clip-path="none">
</path>
<path d="M 830.293 569.8311 L 830.293 569.8311 L 830.293 569.8311" fill="none" stroke="#1E91CA" stroke-width="1" paint-order="fill" stroke-opacity="undefined" stroke-dasharray="" stroke-linecap="butt" stroke-linejoin="miter" stroke-miterlimit="10" clip-path="none">
</path>
<path d="M 807.1756 599.7709 L 807.1756 599.7709 L 807.1756 599.7709" fill="none" stroke="#2C6BA0" stroke-width="1" paint-order="fill" stroke-opacity="undefined" stroke-dasharray="" stroke-linecap="butt" stroke-linejoin="miter" stroke-miterlimit="10" clip-path="none">
</path>
<path d="M 777.6005 622.4687 L 777.6005 622.4687 L 777.6005 622.4687" fill="none" stroke="#2B55A1" stroke-width="1" paint-order="fill" stroke-opacity="undefined" stroke-dasharray="" stroke-linecap="butt" stroke-linejoin="miter" stroke-miterlimit="10" clip-path="none">
</path>
<path d="M 745.8592 640.6596 L 745.8592 640.6596 L 745.8592 640.6596" fill="none" stroke="#2D3D8E" stroke-width="1" paint-order="fill" stroke-opacity="undefined" stroke-dasharray="" stroke-linecap="butt" stroke-linejoin="miter" stroke-miterlimit="10" clip-path="none">
</path>
<path d="M 709.9908 646.465 L 709.9908 646.465 L 709.9908 646.465" fill="none" stroke="#44388E" stroke-width="1" paint-order="fill" stroke-opacity="undefined" stroke-dasharray="" stroke-linecap="butt" stroke-linejoin="miter" stroke-miterlimit="10" clip-path="none">
</path>
<path d="M 675 648.1672 L 675 648.1672 L 675 648.1672" fill="none" stroke="#6A368B" stroke-width="1" paint-order="fill" stroke-opacity="undefined" stroke-dasharray="" stroke-linecap="butt" stroke-linejoin="miter" stroke-miterlimit="10" clip-path="none">
</path>
<path d="M 640.7106 643.2785 L 640.7106 643.2785 L 640.7106 643.2785" fill="none" stroke="#7D3990" stroke-width="1" paint-order="fill" stroke-opacity="undefined" stroke-dasharray="" stroke-linecap="butt" stroke-linejoin="miter" stroke-miterlimit="10" clip-path="none">
</path>
<path d="M 610.7305 626.4161 L 610.7305 626.4161 L 610.7305 626.4161" fill="none" stroke="#A63F98" stroke-width="1" paint-order="fill" stroke-opacity="undefined" stroke-dasharray="" stroke-linecap="butt" stroke-linejoin="miter" stroke-miterlimit="10" clip-path="none">
</path>
<path d="M 582.5335 609.1377 L 582.5335 609.1377 L 582.5335 609.1377" fill="none" stroke="#C31C88" stroke-width="1" paint-order="fill" stroke-opacity="undefined" stroke-dasharray="" stroke-linecap="butt" stroke-linejoin="miter" stroke-miterlimit="10" clip-path="none">
</path>
<path d="M 565.0823 580.8649 L 565.0823 580.8649 L 565.0823 580.8649" fill="none" stroke="#D52178" stroke-width="1" paint-order="fill" stroke-opacity="undefined" stroke-dasharray="" stroke-linecap="butt" stroke-linejoin="miter" stroke-miterlimit="10" clip-path="none">
</path>
<path d="M 548.9394 554.3331 L 548.9394 554.3331 L 548.9394 554.3331" fill="none" stroke="#D5225B" stroke-width="1" paint-order="fill" stroke-opacity="undefined" stroke-dasharray="" stroke-linecap="butt" stroke-linejoin="miter" stroke-miterlimit="10" clip-path="none">
</path>
<path d="M 545.2364 523.5287 L 545.2364 523.5287 L 545.2364 523.5287" fill="none" stroke="#D02C2A" stroke-width="1" paint-order="fill" stroke-opacity="undefined" stroke-dasharray="" stroke-linecap="butt" stroke-linejoin="miter" stroke-miterlimit="10" clip-path="none">
</path>
<path d="M 541.3328 494.7472 L 541.3328 494.7472 L 541.3328 494.7472" fill="none" stroke="#D44C2D" stroke-width="1" paint-order="fill" stroke-opacity="undefined" stroke-dasharray="" stroke-linecap="butt" stroke-linejoin="miter" stroke-miterlimit="10" clip-path="none">
</path>
<path d="M 549.8452 466.9819 L 549.8452 466.9819 L 549.8452 466.9819" fill="none" stroke="#F57A34" stroke-width="1" paint-order="fill" stroke-opacity="undefined" stroke-dasharray="" stroke-linecap="butt" stroke-linejoin="miter" stroke-miterlimit="10" clip-path="none">
</path>
<path d="M 560.4887 441.8745 L 560.4887 441.8745 L 560.4887 441.8745" fill="none" stroke="#FA8F2F" stroke-width="1" paint-order="fill" stroke-opacity="undefined" stroke-dasharray="" stroke-linecap="butt" stroke-linejoin="miter" stroke-miterlimit="10" clip-path="none">
</path>
<path d="M 575.2729 419.8833 L 575.2729 419.8833 L 575.2729 419.8833" fill="none" stroke="#D99D21" stroke-width="1" paint-order="fill" stroke-opacity="undefined" stroke-dasharray="" stroke-linecap="butt" stroke-linejoin="miter" stroke-miterlimit="10" clip-path="none">
</path>
<path d="M 592.8447 400.7697 L 592.8447 400.7697 L 592.8447 400.7697" fill="none" stroke="#CF7B25" stroke-width="1" paint-order="fill" stroke-opacity="undefined" stroke-dasharray="" stroke-linecap="butt" stroke-linejoin="miter" stroke-miterlimit="10" clip-path="none">
</path>
<path d="M 613.7575 385.7141 L 613.7575 385.7141 L 613.7575 385.7141" fill="none" stroke="#CF7B25" stroke-width="1" paint-order="fill" stroke-opacity="undefined" stroke-dasharray="" stroke-linecap="butt" stroke-linejoin="miter" stroke-miterlimit="10" clip-path="none">
</path>
<path d="M 637.406 375.9251 L 637.406 375.9251 L 637.406 375.9251" fill="none" stroke="#CF7B25" stroke-width="1" paint-order="fill" stroke-opacity="undefined" stroke-dasharray="" stroke-linecap="butt" stroke-linejoin="miter" stroke-miterlimit="10" clip-path="none">
</path>
<path d="M 662.5093 372.6503 L 662.5093 372.6503 L 662.5093 372.6503" fill="none" stroke="#FAE927" stroke-width="1" paint-order="fill" stroke-opacity="undefined" stroke-dasharray="" stroke-linecap="butt" stroke-linejoin="miter" stroke-miterlimit="10" clip-path="none">
</path>
<path d="M 675 375 L 675 -18.75 A 506.25 506.25 0 0 1 783.8288 -6.9142 L 699.1842 377.6302 A 112.5 112.5 0 0 0 675 375 Z" fill="#FAE927" fill-opacity="1" stroke="none" clip-path="none">
</path>
<path d="M 699.1842 377.6302 L 738.2313 200.2373 A 294.1395 294.1395 0 0 1 798.506 220.5462 L 722.2375 385.3978 A 112.5 112.5 0 0 0 699.1842 377.6302 Z" fill="#E9E416" fill-opacity="1" stroke="none" clip-path="none">
</path>
<path d="M 722.2375 385.3978 L 796.5811 224.7067 A 289.5554 289.5554 0 0 1 850.2314 256.987 L 743.0821 397.9395 A 112.5 112.5 0 0 0 722.2375 385.3978 Z" fill="#C9DA36" fill-opacity="1" stroke="none" clip-path="none">
</path>
<path d="M 743.0821 397.9395 L 849.4155 258.0603 A 288.2071 288.2071 0 0 1 894.6605 300.9187 L 760.7432 414.669 A 112.5 112.5 0 0 0 743.0821 397.9395 Z" fill="#9ECB3C" fill-opacity="1" stroke="none" clip-path="none">
</path>
<path d="M 760.7432 414.669 L 891.4544 303.642 A 284.0005 284.0005 0 0 1 925.9178 354.4718 L 774.3951 434.8041 A 112.5 112.5 0 0 0 760.7432 414.669 Z" fill="#6DBC49" fill-opacity="1" stroke="none" clip-path="none">
</path>
<path d="M 774.3951 434.8041 L 923.869 355.558 A 281.6814 281.6814 0 0 1 946.4142 412.1422 L 783.3994 457.4031 A 112.5 112.5 0 0 0 774.3951 434.8041 Z" fill="#37B44E" fill-opacity="1" stroke="none" clip-path="none">
</path>
<path d="M 783.3994 457.4031 L 938.4635 414.3497 A 273.43 273.43 0 0 1 948.029 472.6968 L 787.335 481.4094 A 112.5 112.5 0 0 0 783.3994 457.4031 Z" fill="#3DBA78" fill-opacity="1" stroke="none" clip-path="none">
</path>
<path d="M 787.335 481.4094 L 934.6199 473.4238 A 260.0012 260.0012 0 0 1 931.5761 529.5635 L 786.018 505.7005 A 112.5 112.5 0 0 0 787.335 481.4094 Z" fill="#14ADCF" fill-opacity="1" stroke="none" clip-path="none">
</path>
<path d="M 786.018 505.7005 L 910.1282 526.0473 A 238.267 238.267 0 0 1 896.3445 575.6917 L 779.5099 529.1405 A 112.5 112.5 0 0 0 786.018 505.7005 Z" fill="#209AC9" fill-opacity="1" stroke="none" clip-path="none">
</path>
<path d="M 779.5099 529.1405 L 891.4848 573.7554 A 233.0357 233.0357 0 0 1 867.8811 618.2766 L 768.115 550.6335 A 112.5 112.5 0 0 0 779.5099 529.1405 Z" fill="#1E91CA" fill-opacity="1" stroke="none" clip-path="none">
</path>
<path d="M 768.115 550.6335 L 863.9976 615.6435 A 228.3437 228.3437 0 0 1 832.0319 653.2765 L 752.3662 569.1745 A 112.5 112.5 0 0 0 768.115 550.6335 Z" fill="#2C6BA0" fill-opacity="1" stroke="none" clip-path="none">
</path>
<path d="M 752.3662 569.1745 L 826.6911 647.6384 A 220.5777 220.5777 0 0 1 788.7197 676.5036 L 732.9998 583.8964 A 112.5 112.5 0 0 0 752.3662 569.1745 Z" fill="#2B55A1" fill-opacity="1" stroke="none" clip-path="none">
</path>
<path d="M 732.9998 583.8964 L 787.9133 675.1634 A 219.0137 219.0137 0 0 1 744.9314 695.049 L 710.9214 594.111 A 112.5 112.5 0 0 0 732.9998 583.8964 Z" fill="#2D3D8E" fill-opacity="1" stroke="none" clip-path="none">
</path>
<path d="M 710.9214 594.111 L 741.1085 683.703 A 207.041 207.041 0 0 1 697.3851 693.3273 L 687.1634 599.3405 A 112.5 112.5 0 0 0 710.9214 594.111 Z" fill="#44388E" fill-opacity="1" stroke="none" clip-path="none">
</path>
<path d="M 687.1634 599.3405 L 696.9303 689.1453 A 202.8344 202.8344 0 0 1 653.0697 689.1453 L 662.8366 599.3405 A 112.5 112.5 0 0 0 687.1634 599.3405 Z" fill="#6A368B" fill-opacity="1" stroke="none" clip-path="none">
</path>
<path d="M 662.8366 599.3405 L 653.3205 686.8399 A 200.5153 200.5153 0 0 1 610.9751 677.519 L 639.0786 594.111 A 112.5 112.5 0 0 0 662.8366 599.3405 Z" fill="#7D3990" fill-opacity="1" stroke="none" clip-path="none">
</path>
<path d="M 639.0786 594.111 L 615.0908 665.3042 A 187.6258 187.6258 0 0 1 578.2688 648.2685 L 617.0002 583.8964 A 112.5 112.5 0 0 0 639.0786 594.111 Z" fill="#A63F98" fill-opacity="1" stroke="none" clip-path="none">
</path>
<path d="M 617.0002 583.8964 L 578.5468 647.8064 A 187.0865 187.0865 0 0 1 546.3407 623.324 L 597.6338 569.1745 A 112.5 112.5 0 0 0 617.0002 583.8964 Z" fill="#C31C88" fill-opacity="1" stroke="none" clip-path="none">
</path>
<path d="M 597.6338 569.1745 L 558.1348 610.8731 A 169.9365 169.9365 0 0 1 534.3454 582.8662 L 581.885 550.6335 A 112.5 112.5 0 0 0 597.6338 569.1745 Z" fill="#D52178" fill-opacity="1" stroke="none" clip-path="none">
</path>
<path d="M 581.885 550.6335 L 536.8898 581.141 A 166.8624 166.8624 0 0 1 519.9887 549.2621 L 570.4901 529.1405 A 112.5 112.5 0 0 0 581.885 550.6335 Z" fill="#D5225B" fill-opacity="1" stroke="none" clip-path="none">
</path>
<path d="M 570.4901 529.1405 L 534.8686 543.3335 A 150.8449 150.8449 0 0 1 526.1422 511.904 L 563.982 505.7005 A 112.5 112.5 0 0 0 570.4901 529.1405 Z" fill="#D02C2A" fill-opacity="1" stroke="none" clip-path="none">
</path>
<path d="M 563.982 505.7005 L 527.7388 511.6422 A 149.227 149.227 0 0 1 525.9919 479.421 L 562.665 481.4094 A 112.5 112.5 0 0 0 563.982 505.7005 Z" fill="#D44C2D" fill-opacity="1" stroke="none" clip-path="none">
</path>
<path d="M 562.665 481.4094 L 540.0472 480.1831 A 135.151 135.151 0 0 1 544.7752 451.3433 L 566.6006 457.4031 A 112.5 112.5 0 0 0 562.665 481.4094 Z" fill="#F57A34" fill-opacity="1" stroke="none" clip-path="none">
</path>
<path d="M 566.6006 457.4031 L 551.6347 453.2478 A 128.0321 128.0321 0 0 1 561.8821 427.5287 L 575.6049 434.8041 A 112.5 112.5 0 0 0 566.6006 457.4031 Z" fill="#FA8F2F" fill-opacity="1" stroke="none" clip-path="none">
</path>
<path d="M 575.6049 434.8041 L 566.7899 430.1306 A 122.4772 122.4772 0 0 1 581.6525 408.2099 L 589.2568 414.669 A 112.5 112.5 0 0 0 575.6049 434.8041 Z" fill="#D99D21" fill-opacity="1" stroke="none" clip-path="none">
</path>
<path d="M 589.2568 414.669 L 583.2145 409.5367 A 120.4279 120.4279 0 0 1 602.1202 391.6282 L 606.9179 397.9395 A 112.5 112.5 0 0 0 589.2568 414.669 Z" fill="#CF7B25" fill-opacity="1" stroke="none" clip-path="none">
</path>
<path d="M 606.9179 397.9395 L 602.9361 392.7016 A 119.0796 119.0796 0 0 1 624.9998 379.4263 L 627.7625 385.3978 A 112.5 112.5 0 0 0 606.9179 397.9395 Z" fill="#CF7B25" fill-opacity="1" stroke="none" clip-path="none">
</path>
<path d="M 627.7625 385.3978 L 625.8829 381.3352 A 116.9763 116.9763 0 0 1 649.8536 373.2586 L 650.8158 377.6302 A 112.5 112.5 0 0 0 627.7625 385.3978 Z" fill="#CF7B25" fill-opacity="1" stroke="none" clip-path="none">
</path>
<path d="M 650.8158 377.6302 L 650.8042 377.5775 A 112.5539 112.5539 0 0 1 675 374.9461 L 675 375 A 112.5 112.5 0 0 0 650.8158 377.6302 Z" fill="#FAE927" fill-opacity="1" stroke="none" clip-path="none">
</path>
<text transform="matrix(1,0,0,1,0,0)" fill="blue" fill-opacity="undefined" stroke="none" clip-path="none" style="font: italic bold 10px &quot;Microsoft YaHei&quot;;">
<tspan dominant-baseline="middle" text-anchor="middle" x="708.7736783801788" y="176.95615563390695">广东:7301人</tspan>
</text>
<text transform="matrix(1,0,0,1,0,0)" fill="blue" fill-opacity="undefined" stroke="none" clip-path="none" style="font: italic bold 10px &quot;Microsoft YaHei&quot;;">
<tspan dominant-baseline="middle" text-anchor="middle" x="740.8782121018761" y="291.9804339534189">北京:3368人</tspan>
</text>
<text transform="matrix(1,0,0,1,0,0)" fill="blue" fill-opacity="undefined" stroke="none" clip-path="none" style="font: italic bold 10px &quot;Microsoft YaHei&quot;;">
<tspan dominant-baseline="middle" text-anchor="middle" x="780.1872597477425" y="312.6774143446864">陕西:3283人</tspan>
</text>
<text transform="matrix(1,0,0,1,0,0)" fill="blue" fill-opacity="undefined" stroke="none" clip-path="none" style="font: italic bold 10px &quot;Microsoft YaHei&quot;;">
<tspan dominant-baseline="middle" text-anchor="middle" x="814.8461245436516" y="339.8662412780065">福建:3258人</tspan>
</text>
<text transform="matrix(1,0,0,1,0,0)" fill="blue" fill-opacity="undefined" stroke="none" clip-path="none" style="font: italic bold 10px &quot;Microsoft YaHei&quot;;">
<tspan dominant-baseline="middle" text-anchor="middle" x="841.5726092704928" y="374.56096858310116">河南:3180人</tspan>
</text>
<text transform="matrix(1,0,0,1,0,0)" fill="blue" fill-opacity="undefined" stroke="none" clip-path="none" style="font: italic bold 10px &quot;Microsoft YaHei&quot;;">
<tspan dominant-baseline="middle" text-anchor="middle" x="860.8796243297174" y="413.43878856485605">浙江:3137人</tspan>
</text>
<text transform="matrix(1,0,0,1,0,0)" fill="blue" fill-opacity="undefined" stroke="none" clip-path="none" style="font: italic bold 10px &quot;Microsoft YaHei&quot;;">
<tspan dominant-baseline="middle" text-anchor="middle" x="868.3834642205622" y="455.7963902699766">黑龙江:2984人</tspan>
</text>
<text transform="matrix(1,0,0,1,0,0)" fill="blue" fill-opacity="undefined" stroke="none" clip-path="none" style="font: italic bold 10px &quot;Microsoft YaHei&quot;;">
<tspan dominant-baseline="middle" text-anchor="middle" x="863.9730469254802" y="497.7458208916099">山东:2735人</tspan>
</text>
<text transform="matrix(1,0,0,1,0,0)" fill="blue" fill-opacity="undefined" stroke="none" clip-path="none" style="font: italic bold 10px &quot;Microsoft YaHei&quot;;">
<tspan dominant-baseline="middle" text-anchor="middle" x="846.8814288668951" y="535.2226438127667">四川:2332人</tspan>
</text>
<text transform="matrix(1,0,0,1,0,0)" fill="blue" fill-opacity="undefined" stroke="none" clip-path="none" style="font: italic bold 10px &quot;Microsoft YaHei&quot;;">
<tspan dominant-baseline="middle" text-anchor="middle" x="830.2930188121821" y="569.8311478894292">江苏:2235人</tspan>
</text>
<text transform="matrix(1,0,0,1,0,0)" fill="blue" fill-opacity="undefined" stroke="none" clip-path="none" style="font: italic bold 10px &quot;Microsoft YaHei&quot;;">
<tspan dominant-baseline="middle" text-anchor="middle" x="807.1755612362721" y="599.7709336577682">云南:2148人</tspan>
</text>
<text transform="matrix(1,0,0,1,0,0)" fill="blue" fill-opacity="undefined" stroke="none" clip-path="none" style="font: italic bold 10px &quot;Microsoft YaHei&quot;;">
<tspan dominant-baseline="middle" text-anchor="middle" x="777.6005285699887" y="622.4686871674625">河北:2004人</tspan>
</text>
<text transform="matrix(1,0,0,1,0,0)" fill="blue" fill-opacity="undefined" stroke="none" clip-path="none" style="font: italic bold 10px &quot;Microsoft YaHei&quot;;">
<tspan dominant-baseline="middle" text-anchor="middle" x="745.8591542582358" y="640.6595519494981">天津:1975人</tspan>
</text>
<text transform="matrix(1,0,0,1,0,0)" fill="blue" fill-opacity="undefined" stroke="none" clip-path="none" style="font: italic bold 10px &quot;Microsoft YaHei&quot;;">
<tspan dominant-baseline="middle" text-anchor="middle" x="709.9908446986677" y="646.4650100768869">内蒙古:1753人</tspan>
</text>
<text transform="matrix(1,0,0,1,0,0)" fill="blue" fill-opacity="undefined" stroke="none" clip-path="none" style="font: italic bold 10px &quot;Microsoft YaHei&quot;;">
<tspan dominant-baseline="middle" text-anchor="middle" x="674.9999999999999" y="648.1671860019176">辽宁:1675人</tspan>
</text>
<text transform="matrix(1,0,0,1,0,0)" fill="blue" fill-opacity="undefined" stroke="none" clip-path="none" style="font: italic bold 10px &quot;Microsoft YaHei&quot;;">
<tspan dominant-baseline="middle" text-anchor="middle" x="640.7105659239046" y="643.278469493329">广西:1632人</tspan>
</text>
<text transform="matrix(1,0,0,1,0,0)" fill="blue" fill-opacity="undefined" stroke="none" clip-path="none" style="font: italic bold 10px &quot;Microsoft YaHei&quot;;">
<tspan dominant-baseline="middle" text-anchor="middle" x="610.7305482644531" y="626.4161433677733">湖南:1393人</tspan>
</text>
<text transform="matrix(1,0,0,1,0,0)" fill="blue" fill-opacity="undefined" stroke="none" clip-path="none" style="font: italic bold 10px &quot;Microsoft YaHei&quot;;">
<tspan dominant-baseline="middle" text-anchor="middle" x="582.5334559959207" y="609.1376584515323">江西:1383人</tspan>
</text>
<text transform="matrix(1,0,0,1,0,0)" fill="blue" fill-opacity="undefined" stroke="none" clip-path="none" style="font: italic bold 10px &quot;Microsoft YaHei&quot;;">
<tspan dominant-baseline="middle" text-anchor="middle" x="565.0823293178058" y="580.8649110134475">安徽:1065人</tspan>
</text>
<text transform="matrix(1,0,0,1,0,0)" fill="blue" fill-opacity="undefined" stroke="none" clip-path="none" style="font: italic bold 10px &quot;Microsoft YaHei&quot;;">
<tspan dominant-baseline="middle" text-anchor="middle" x="548.9394341684548" y="554.3330821815917">新疆:1008人</tspan>
</text>
<text transform="matrix(1,0,0,1,0,0)" fill="blue" fill-opacity="undefined" stroke="none" clip-path="none" style="font: italic bold 10px &quot;Microsoft YaHei&quot;;">
<tspan dominant-baseline="middle" text-anchor="middle" x="545.2363528950385" y="523.5286992693736">重庆:711人</tspan>
</text>
<text transform="matrix(1,0,0,1,0,0)" fill="blue" fill-opacity="undefined" stroke="none" clip-path="none" style="font: italic bold 10px &quot;Microsoft YaHei&quot;;">
<tspan dominant-baseline="middle" text-anchor="middle" x="541.3328276204567" y="494.7472235039359">甘肃:681人</tspan>
</text>
<text transform="matrix(1,0,0,1,0,0)" fill="blue" fill-opacity="undefined" stroke="none" clip-path="none" style="font: italic bold 10px &quot;Microsoft YaHei&quot;;">
<tspan dominant-baseline="middle" text-anchor="middle" x="549.8452295539113" y="466.9819168533046">山西:420人</tspan>
</text>
<text transform="matrix(1,0,0,1,0,0)" fill="blue" fill-opacity="undefined" stroke="none" clip-path="none" style="font: italic bold 10px &quot;Microsoft YaHei&quot;;">
<tspan dominant-baseline="middle" text-anchor="middle" x="560.4887004330533" y="441.8745281414101">海南:288人</tspan>
</text>
<text transform="matrix(1,0,0,1,0,0)" fill="blue" fill-opacity="undefined" stroke="none" clip-path="none" style="font: italic bold 10px &quot;Microsoft YaHei&quot;;">
<tspan dominant-baseline="middle" text-anchor="middle" x="575.2728993144756" y="419.88334797800456">贵州:185人</tspan>
</text>
<text transform="matrix(1,0,0,1,0,0)" fill="blue" fill-opacity="undefined" stroke="none" clip-path="none" style="font: italic bold 10px &quot;Microsoft YaHei&quot;;">
<tspan dominant-baseline="middle" text-anchor="middle" x="592.8447226172935" y="400.7697281498776">青海:147人</tspan>
</text>
<text transform="matrix(1,0,0,1,0,0)" fill="blue" fill-opacity="undefined" stroke="none" clip-path="none" style="font: italic bold 10px &quot;Microsoft YaHei&quot;;">
<tspan dominant-baseline="middle" text-anchor="middle" x="613.7574660517216" y="385.7141167799444">宁夏:122人</tspan>
</text>
<text transform="matrix(1,0,0,1,0,0)" fill="blue" fill-opacity="undefined" stroke="none" clip-path="none" style="font: italic bold 10px &quot;Microsoft YaHei&quot;;">
<tspan dominant-baseline="middle" text-anchor="middle" x="637.4060332794468" y="375.9250828209272">澳门:83人</tspan>
</text>
<text transform="matrix(1,0,0,1,0,0)" fill="blue" fill-opacity="undefined" stroke="none" clip-path="none" style="font: italic bold 10px &quot;Microsoft YaHei&quot;;">
<tspan dominant-baseline="middle" text-anchor="middle" x="662.509337890354" y="372.65025853731487">西藏:1人</tspan>
</text>
<path d="M -5 -5 L 253.02730000000003 -5 L 253.02730000000003 23 L -5 23 L -5 -5 Z" fill="#ffffff" fill-opacity="1" stroke="#ccc" stroke-width="0" paint-order="fill" stroke-opacity="1" stroke-dasharray="" stroke-linecap="butt" stroke-linejoin="miter" stroke-miterlimit="10" transform="matrix(1,0,0,1,5,5)" clip-path="none">
</path>
<text transform="matrix(1,0,0,1,5,5)" fill="#333" fill-opacity="1" stroke="none" clip-path="none" style="font: bolder 18px &quot;Microsoft YaHei&quot;;">
<tspan dominant-baseline="middle" text-anchor="start" x="0" y="9">疫情数据玫瑰图(无前五名省份)</tspan>
</text>
<defs>
</defs>
</g>
</svg>