<svg xmlns="http://www.w3.org/2000/svg" version="1.1" baseProfile="full" width="1350" height="750" style="user-select: none; position: absolute; left: 0px; top: 0px;">
<g>
<rect width="1350" height="750" x="0" y="0" id="0" style="fill: white;">
</rect>
</g>
<g>
<path d="M 703.8223 176.4575 L 703.8223 176.4575 L 703.8223 176.4575" fill="none" stroke="#FAE927" stroke-width="1" paint-order="fill" stroke-opacity="undefined" stroke-dasharray="" stroke-linecap="butt" stroke-linejoin="miter" stroke-miterlimit="10" clip-path="none">
</path>
<path d="M 715.7792 344.1759 L 715.7792 344.1759 L 715.7792 344.1759" fill="none" stroke="#E9E416" stroke-width="1" paint-order="fill" stroke-opacity="undefined" stroke-dasharray="" stroke-linecap="butt" stroke-linejoin="miter" stroke-miterlimit="10" clip-path="none">
</path>
<path d="M 729.5572 377.9344 L 729.5572 377.9344 L 729.5572 377.9344" fill="none" stroke="#C9DA36" stroke-width="1" paint-order="fill" stroke-opacity="undefined" stroke-dasharray="" stroke-linecap="butt" stroke-linejoin="miter" stroke-miterlimit="10" clip-path="none">
</path>
<path d="M 748.433 390.259 L 748.433 390.259 L 748.433 390.259" fill="none" stroke="#9ECB3C" stroke-width="1" paint-order="fill" stroke-opacity="undefined" stroke-dasharray="" stroke-linecap="butt" stroke-linejoin="miter" stroke-miterlimit="10" clip-path="none">
</path>
<path d="M 763.3582 406.9508 L 763.3582 406.9508 L 763.3582 406.9508" fill="none" stroke="#6DBC49" stroke-width="1" paint-order="fill" stroke-opacity="undefined" stroke-dasharray="" stroke-linecap="butt" stroke-linejoin="miter" stroke-miterlimit="10" clip-path="none">
</path>
<path d="M 773.826 426.3095 L 773.826 426.3095 L 773.826 426.3095" fill="none" stroke="#37B44E" stroke-width="1" paint-order="fill" stroke-opacity="undefined" stroke-dasharray="" stroke-linecap="butt" stroke-linejoin="miter" stroke-miterlimit="10" clip-path="none">
</path>
<path d="M 783.0172 445.6539 L 783.0172 445.6539 L 783.0172 445.6539" fill="none" stroke="#3DBA78" stroke-width="1" paint-order="fill" stroke-opacity="undefined" stroke-dasharray="" stroke-linecap="butt" stroke-linejoin="miter" stroke-miterlimit="10" clip-path="none">
</path>
<path d="M 788.8588 466.2161 L 788.8588 466.2161 L 788.8588 466.2161" fill="none" stroke="#14ADCF" stroke-width="1" paint-order="fill" stroke-opacity="undefined" stroke-dasharray="" stroke-linecap="butt" stroke-linejoin="miter" stroke-miterlimit="10" clip-path="none">
</path>
<path d="M 790.8285 487.5 L 790.8285 487.5 L 790.8285 487.5" fill="none" stroke="#209AC9" stroke-width="1" paint-order="fill" stroke-opacity="undefined" stroke-dasharray="" stroke-linecap="butt" stroke-linejoin="miter" stroke-miterlimit="10" clip-path="none">
</path>
<path d="M 788.8486 508.782 L 788.8486 508.782 L 788.8486 508.782" fill="none" stroke="#1E91CA" stroke-width="1" paint-order="fill" stroke-opacity="undefined" stroke-dasharray="" stroke-linecap="butt" stroke-linejoin="miter" stroke-miterlimit="10" clip-path="none">
</path>
<path d="M 782.9955 529.3377 L 782.9955 529.3377 L 782.9955 529.3377" fill="none" stroke="#2C6BA0" stroke-width="1" paint-order="fill" stroke-opacity="undefined" stroke-dasharray="" stroke-linecap="butt" stroke-linejoin="miter" stroke-miterlimit="10" clip-path="none">
</path>
<path d="M 773.4559 548.4613 L 773.4559 548.4613 L 773.4559 548.4613" fill="none" stroke="#2B55A1" stroke-width="1" paint-order="fill" stroke-opacity="undefined" stroke-dasharray="" stroke-linecap="butt" stroke-linejoin="miter" stroke-miterlimit="10" clip-path="none">
</path>
<path d="M 760.5593 565.4976 L 760.5593 565.4976 L 760.5593 565.4976" fill="none" stroke="#2D3D8E" stroke-width="1" paint-order="fill" stroke-opacity="undefined" stroke-dasharray="" stroke-linecap="butt" stroke-linejoin="miter" stroke-miterlimit="10" clip-path="none">
</path>
<path d="M 744.746 579.8587 L 744.746 579.8587 L 744.746 579.8587" fill="none" stroke="#44388E" stroke-width="1" paint-order="fill" stroke-opacity="undefined" stroke-dasharray="" stroke-linecap="butt" stroke-linejoin="miter" stroke-miterlimit="10" clip-path="none">
</path>
<path d="M 726.5832 591.0931 L 726.5832 591.0931 L 726.5832 591.0931" fill="none" stroke="#6A368B" stroke-width="1" paint-order="fill" stroke-opacity="undefined" stroke-dasharray="" stroke-linecap="butt" stroke-linejoin="miter" stroke-miterlimit="10" clip-path="none">
</path>
<path d="M 706.6674 598.7992 L 706.6674 598.7992 L 706.6674 598.7992" fill="none" stroke="#7D3990" stroke-width="1" paint-order="fill" stroke-opacity="undefined" stroke-dasharray="" stroke-linecap="butt" stroke-linejoin="miter" stroke-miterlimit="10" clip-path="none">
</path>
<path d="M 685.6756 602.7085 L 685.6756 602.7085 L 685.6756 602.7085" fill="none" stroke="#A63F98" stroke-width="1" paint-order="fill" stroke-opacity="undefined" stroke-dasharray="" stroke-linecap="butt" stroke-linejoin="miter" stroke-miterlimit="10" clip-path="none">
</path>
<path d="M 664.3246 602.7056 L 664.3246 602.7056 L 664.3246 602.7056" fill="none" stroke="#C31C88" stroke-width="1" paint-order="fill" stroke-opacity="undefined" stroke-dasharray="" stroke-linecap="butt" stroke-linejoin="miter" stroke-miterlimit="10" clip-path="none">
</path>
<path d="M 643.3435 598.7609 L 643.3435 598.7609 L 643.3435 598.7609" fill="none" stroke="#D52178" stroke-width="1" paint-order="fill" stroke-opacity="undefined" stroke-dasharray="" stroke-linecap="butt" stroke-linejoin="miter" stroke-miterlimit="10" clip-path="none">
</path>
<path d="M 623.4419 591.0426 L 623.4419 591.0426 L 623.4419 591.0426" fill="none" stroke="#D5225B" stroke-width="1" paint-order="fill" stroke-opacity="undefined" stroke-dasharray="" stroke-linecap="butt" stroke-linejoin="miter" stroke-miterlimit="10" clip-path="none">
</path>
<path d="M 605.2965 579.8023 L 605.2965 579.8023 L 605.2965 579.8023" fill="none" stroke="#D02C2A" stroke-width="1" paint-order="fill" stroke-opacity="undefined" stroke-dasharray="" stroke-linecap="butt" stroke-linejoin="miter" stroke-miterlimit="10" clip-path="none">
</path>
<path d="M 589.5407 565.4065 L 589.5407 565.4065 L 589.5407 565.4065" fill="none" stroke="#D44C2D" stroke-width="1" paint-order="fill" stroke-opacity="undefined" stroke-dasharray="" stroke-linecap="butt" stroke-linejoin="miter" stroke-miterlimit="10" clip-path="none">
</path>
<path d="M 576.6813 548.3763 L 576.6813 548.3763 L 576.6813 548.3763" fill="none" stroke="#F57A34" stroke-width="1" paint-order="fill" stroke-opacity="undefined" stroke-dasharray="" stroke-linecap="butt" stroke-linejoin="miter" stroke-miterlimit="10" clip-path="none">
</path>
<path d="M 567.1993 529.2622 L 567.1993 529.2622 L 567.1993 529.2622" fill="none" stroke="#FA8F2F" stroke-width="1" paint-order="fill" stroke-opacity="undefined" stroke-dasharray="" stroke-linecap="butt" stroke-linejoin="miter" stroke-miterlimit="10" clip-path="none">
</path>
<path d="M 561.3667 508.7417 L 561.3667 508.7417 L 561.3667 508.7417" fill="none" stroke="#D99D21" stroke-width="1" paint-order="fill" stroke-opacity="undefined" stroke-dasharray="" stroke-linecap="butt" stroke-linejoin="miter" stroke-miterlimit="10" clip-path="none">
</path>
<path d="M 559.4283 487.5 L 559.4283 487.5 L 559.4283 487.5" fill="none" stroke="#CF7B25" stroke-width="1" paint-order="fill" stroke-opacity="undefined" stroke-dasharray="" stroke-linecap="butt" stroke-linejoin="miter" stroke-miterlimit="10" clip-path="none">
</path>
<path d="M 561.3991 466.2643 L 561.3991 466.2643 L 561.3991 466.2643" fill="none" stroke="#CF7B25" stroke-width="1" paint-order="fill" stroke-opacity="undefined" stroke-dasharray="" stroke-linecap="butt" stroke-linejoin="miter" stroke-miterlimit="10" clip-path="none">
</path>
<path d="M 567.26 445.7613 L 567.26 445.7613 L 567.26 445.7613" fill="none" stroke="#CF7B25" stroke-width="1" paint-order="fill" stroke-opacity="undefined" stroke-dasharray="" stroke-linecap="butt" stroke-linejoin="miter" stroke-miterlimit="10" clip-path="none">
</path>
<path d="M 576.7752 426.6818 L 576.7752 426.6818 L 576.7752 426.6818" fill="none" stroke="#FAE927" stroke-width="1" paint-order="fill" stroke-opacity="undefined" stroke-dasharray="" stroke-linecap="butt" stroke-linejoin="miter" stroke-miterlimit="10" clip-path="none">
</path>
<path d="M 589.6307 409.6756 L 589.6307 409.6756 L 589.6307 409.6756" fill="none" stroke="#E9E416" stroke-width="1" paint-order="fill" stroke-opacity="undefined" stroke-dasharray="" stroke-linecap="butt" stroke-linejoin="miter" stroke-miterlimit="10" clip-path="none">
</path>
<path d="M 605.3868 395.3172 L 605.3868 395.3172 L 605.3868 395.3172" fill="none" stroke="#C9DA36" stroke-width="1" paint-order="fill" stroke-opacity="undefined" stroke-dasharray="" stroke-linecap="butt" stroke-linejoin="miter" stroke-miterlimit="10" clip-path="none">
</path>
<path d="M 623.5117 384.0976 L 623.5117 384.0976 L 623.5117 384.0976" fill="none" stroke="#9ECB3C" stroke-width="1" paint-order="fill" stroke-opacity="undefined" stroke-dasharray="" stroke-linecap="butt" stroke-linejoin="miter" stroke-miterlimit="10" clip-path="none">
</path>
<path d="M 643.3896 376.4011 L 643.3896 376.4011 L 643.3896 376.4011" fill="none" stroke="#6DBC49" stroke-width="1" paint-order="fill" stroke-opacity="undefined" stroke-dasharray="" stroke-linecap="butt" stroke-linejoin="miter" stroke-miterlimit="10" clip-path="none">
</path>
<path d="M 664.343 372.4926 L 664.343 372.4926 L 664.343 372.4926" fill="none" stroke="#37B44E" stroke-width="1" paint-order="fill" stroke-opacity="undefined" stroke-dasharray="" stroke-linecap="butt" stroke-linejoin="miter" stroke-miterlimit="10" clip-path="none">
</path>
<path d="M 675 375 L 675 -18.75 A 506.25 506.25 0 0 1 768.0232 -10.1301 L 695.6718 376.9155 A 112.5 112.5 0 0 0 675 375 Z" fill="#FAE927" fill-opacity="1" stroke="none" clip-path="none">
</path>
<path d="M 695.6718 376.9155 L 707.9877 311.0316 A 179.5252 179.5252 0 0 1 739.852 320.0978 L 715.6397 382.5969 A 112.5 112.5 0 0 0 695.6718 376.9155 Z" fill="#E9E416" fill-opacity="1" stroke="none" clip-path="none">
</path>
<path d="M 715.6397 382.5969 L 720.6229 369.7337 A 126.2947 126.2947 0 0 1 741.4856 380.1221 L 734.2236 391.8506 A 112.5 112.5 0 0 0 715.6397 382.5969 Z" fill="#C9DA36" fill-opacity="1" stroke="none" clip-path="none">
</path>
<path d="M 734.2236 391.8506 L 740.9127 381.0474 A 125.2064 125.2064 0 0 1 759.351 394.9713 L 750.7908 404.3615 A 112.5 112.5 0 0 0 734.2236 391.8506 Z" fill="#9ECB3C" fill-opacity="1" stroke="none" clip-path="none">
</path>
<path d="M 750.7908 404.3615 L 756.2654 398.3561 A 120.6263 120.6263 0 0 1 771.2618 414.8064 L 764.7769 419.7036 A 112.5 112.5 0 0 0 750.7908 404.3615 Z" fill="#6DBC49" fill-opacity="1" stroke="none" clip-path="none">
</path>
<path d="M 764.7769 419.7036 L 765.952 418.8162 A 113.9725 113.9725 0 0 1 777.024 436.6981 L 775.7059 437.3544 A 112.5 112.5 0 0 0 764.7769 419.7036 Z" fill="#37B44E" fill-opacity="1" stroke="none" clip-path="none">
</path>
<path d="M 775.7059 437.3544 L 776.3139 437.0517 A 113.1793 113.1793 0 0 1 783.8587 456.527 L 783.2054 456.7129 A 112.5 112.5 0 0 0 775.7059 437.3544 Z" fill="#3DBA78" fill-opacity="1" stroke="none" clip-path="none">
</path>
<path d="M 783.2054 456.7129 L 783.8422 456.5317 A 113.1621 113.1621 0 0 1 787.6794 477.0587 L 787.0201 477.1198 A 112.5 112.5 0 0 0 783.2054 456.7129 Z" fill="#14ADCF" fill-opacity="1" stroke="none" clip-path="none">
</path>
<path d="M 787.0201 477.1198 L 787.6744 477.0592 A 113.1571 113.1571 0 0 1 787.6744 497.9408 L 787.0201 497.8802 A 112.5 112.5 0 0 0 787.0201 477.1198 Z" fill="#209AC9" fill-opacity="1" stroke="none" clip-path="none">
</path>
<path d="M 787.0201 497.8802 L 787.6587 497.9394 A 113.1413 113.1413 0 0 1 783.8222 518.4626 L 783.2054 518.2871 A 112.5 112.5 0 0 0 787.0201 497.8802 Z" fill="#1E91CA" fill-opacity="1" stroke="none" clip-path="none">
</path>
<path d="M 783.2054 518.2871 L 783.8139 518.4602 A 113.1327 113.1327 0 0 1 776.2722 537.9276 L 775.7059 537.6456 A 112.5 112.5 0 0 0 783.2054 518.2871 Z" fill="#2C6BA0" fill-opacity="1" stroke="none" clip-path="none">
</path>
<path d="M 775.7059 537.6456 L 776.2446 537.9138 A 113.1018 113.1018 0 0 1 765.2572 555.6591 L 764.7769 555.2964 A 112.5 112.5 0 0 0 775.7059 537.6456 Z" fill="#2B55A1" fill-opacity="1" stroke="none" clip-path="none">
</path>
<path d="M 764.7769 555.2964 L 765.2171 555.6288 A 113.0516 113.0516 0 0 1 751.1624 571.0461 L 750.7908 570.6385 A 112.5 112.5 0 0 0 764.7769 555.2964 Z" fill="#2D3D8E" fill-opacity="1" stroke="none" clip-path="none">
</path>
<path d="M 750.7908 570.6385 L 751.1076 570.9861 A 112.9703 112.9703 0 0 1 734.4712 583.5493 L 734.2236 583.1494 A 112.5 112.5 0 0 0 750.7908 570.6385 Z" fill="#44388E" fill-opacity="1" stroke="none" clip-path="none">
</path>
<path d="M 734.2236 583.1494 L 734.4609 583.5327 A 112.9508 112.9508 0 0 1 715.8025 592.8234 L 715.6397 592.4031 A 112.5 112.5 0 0 0 734.2236 583.1494 Z" fill="#6A368B" fill-opacity="1" stroke="none" clip-path="none">
</path>
<path d="M 715.6397 592.4031 L 715.7962 592.8071 A 112.9332 112.9332 0 0 1 695.7514 598.5103 L 695.6718 598.0845 A 112.5 112.5 0 0 0 715.6397 592.4031 Z" fill="#7D3990" fill-opacity="1" stroke="none" clip-path="none">
</path>
<path d="M 695.6718 598.0845 L 695.7461 598.4818 A 112.9042 112.9042 0 0 1 675 600.4042 L 675 600 A 112.5 112.5 0 0 0 695.6718 598.0845 Z" fill="#A63F98" fill-opacity="1" stroke="none" clip-path="none">
</path>
<path d="M 675 600 L 675 600.3983 A 112.8983 112.8983 0 0 1 654.255 598.476 L 654.3282 598.0845 A 112.5 112.5 0 0 0 675 600 Z" fill="#C31C88" fill-opacity="1" stroke="none" clip-path="none">
</path>
<path d="M 654.3282 598.0845 L 654.2632 598.432 A 112.8535 112.8535 0 0 1 634.2326 592.7328 L 634.3603 592.4031 A 112.5 112.5 0 0 0 654.3282 598.0845 Z" fill="#D52178" fill-opacity="1" stroke="none" clip-path="none">
</path>
<path d="M 634.3603 592.4031 L 634.2383 592.7181 A 112.8378 112.8378 0 0 1 615.5985 583.4366 L 615.7764 583.1494 A 112.5 112.5 0 0 0 634.3603 592.4031 Z" fill="#D5225B" fill-opacity="1" stroke="none" clip-path="none">
</path>
<path d="M 615.7764 583.1494 L 615.6031 583.4293 A 112.8291 112.8291 0 0 1 598.9875 570.8817 L 599.2092 570.6385 A 112.5 112.5 0 0 0 615.7764 583.1494 Z" fill="#D02C2A" fill-opacity="1" stroke="none" clip-path="none">
</path>
<path d="M 599.2092 570.6385 L 599.02 570.8461 A 112.7809 112.7809 0 0 1 584.9989 555.4657 L 585.2231 555.2964 A 112.5 112.5 0 0 0 599.2092 570.6385 Z" fill="#D44C2D" fill-opacity="1" stroke="none" clip-path="none">
</path>
<path d="M 585.2231 555.2964 L 585.0005 555.4645 A 112.7789 112.7789 0 0 1 574.0444 537.7699 L 574.2941 537.6456 A 112.5 112.5 0 0 0 585.2231 555.2964 Z" fill="#F57A34" fill-opacity="1" stroke="none" clip-path="none">
</path>
<path d="M 574.2941 537.6456 L 574.1019 537.7413 A 112.7148 112.7148 0 0 1 566.588 518.3459 L 566.7946 518.2871 A 112.5 112.5 0 0 0 574.2941 537.6456 Z" fill="#FA8F2F" fill-opacity="1" stroke="none" clip-path="none">
</path>
<path d="M 566.7946 518.2871 L 566.5991 518.3427 A 112.7033 112.7033 0 0 1 562.7775 497.8989 L 562.9799 497.8802 A 112.5 112.5 0 0 0 566.7946 518.2871 Z" fill="#D99D21" fill-opacity="1" stroke="none" clip-path="none">
</path>
<path d="M 562.9799 497.8802 L 562.8371 497.8934 A 112.6434 112.6434 0 0 1 562.8371 477.1066 L 562.9799 477.1198 A 112.5 112.5 0 0 0 562.9799 497.8802 Z" fill="#CF7B25" fill-opacity="1" stroke="none" clip-path="none">
</path>
<path d="M 562.9799 477.1198 L 562.8431 477.1071 A 112.6373 112.6373 0 0 1 566.6625 456.6753 L 566.7946 456.7129 A 112.5 112.5 0 0 0 562.9799 477.1198 Z" fill="#CF7B25" fill-opacity="1" stroke="none" clip-path="none">
</path>
<path d="M 566.7946 456.7129 L 566.7131 456.6897 A 112.5847 112.5847 0 0 1 574.2183 437.3167 L 574.2941 437.3544 A 112.5 112.5 0 0 0 566.7946 456.7129 Z" fill="#CF7B25" fill-opacity="1" stroke="none" clip-path="none">
</path>
<path d="M 574.2941 437.3544 L 574.2421 437.3285 A 112.5581 112.5581 0 0 1 585.1767 419.6686 L 585.2231 419.7036 A 112.5 112.5 0 0 0 574.2941 437.3544 Z" fill="#FAE927" fill-opacity="1" stroke="none" clip-path="none">
</path>
<path d="M 585.2231 419.7036 L 585.1933 419.6811 A 112.5373 112.5373 0 0 1 599.1841 404.3339 L 599.2092 404.3615 A 112.5 112.5 0 0 0 585.2231 419.7036 Z" fill="#E9E416" fill-opacity="1" stroke="none" clip-path="none">
</path>
<path d="M 599.2092 404.3615 L 599.1893 404.3396 A 112.5296 112.5296 0 0 1 615.7608 391.8254 L 615.7764 391.8506 A 112.5 112.5 0 0 0 599.2092 404.3615 Z" fill="#C9DA36" fill-opacity="1" stroke="none" clip-path="none">
</path>
<path d="M 615.7764 391.8506 L 615.7634 391.8297 A 112.5246 112.5246 0 0 1 634.3514 382.5739 L 634.3603 382.5969 A 112.5 112.5 0 0 0 615.7764 391.8506 Z" fill="#9ECB3C" fill-opacity="1" stroke="none" clip-path="none">
</path>
<path d="M 634.3603 382.5969 L 634.3543 382.5813 A 112.5167 112.5167 0 0 1 654.3251 376.8991 L 654.3282 376.9155 A 112.5 112.5 0 0 0 634.3603 382.5969 Z" fill="#6DBC49" fill-opacity="1" stroke="none" clip-path="none">
</path>
<path d="M 654.3282 376.9155 L 654.3281 376.9153 A 112.5002 112.5002 0 0 1 675 374.9998 L 675 375 A 112.5 112.5 0 0 0 654.3282 376.9155 Z" fill="#37B44E" fill-opacity="1" stroke="none" clip-path="none">
</path>
<text transform="matrix(1,0,0,1,0,0)" fill="blue" fill-opacity="undefined" stroke="none" clip-path="none" style="font: italic bold 10px &quot;Microsoft YaHei&quot;;">
<tspan dominant-baseline="middle" text-anchor="middle" x="703.822328787349" y="176.45753667983863">台湾:1952355人</tspan>
</text>
<text transform="matrix(1,0,0,1,0,0)" fill="blue" fill-opacity="undefined" stroke="none" clip-path="none" style="font: italic bold 10px &quot;Microsoft YaHei&quot;;">
<tspan dominant-baseline="middle" text-anchor="middle" x="715.7792282010292" y="344.17587940110224">香港:332335人</tspan>
</text>
<text transform="matrix(1,0,0,1,0,0)" fill="blue" fill-opacity="undefined" stroke="none" clip-path="none" style="font: italic bold 10px &quot;Microsoft YaHei&quot;;">
<tspan dominant-baseline="middle" text-anchor="middle" x="729.557188372824" y="377.9343956987649">湖北:68399人</tspan>
</text>
<text transform="matrix(1,0,0,1,0,0)" fill="blue" fill-opacity="undefined" stroke="none" clip-path="none" style="font: italic bold 10px &quot;Microsoft YaHei&quot;;">
<tspan dominant-baseline="middle" text-anchor="middle" x="748.4329631453415" y="390.2590415441401">上海:63003人</tspan>
</text>
<text transform="matrix(1,0,0,1,0,0)" fill="blue" fill-opacity="undefined" stroke="none" clip-path="none" style="font: italic bold 10px &quot;Microsoft YaHei&quot;;">
<tspan dominant-baseline="middle" text-anchor="middle" x="763.3582238602361" y="406.95083596709236">吉林:40293人</tspan>
</text>
<text transform="matrix(1,0,0,1,0,0)" fill="blue" fill-opacity="undefined" stroke="none" clip-path="none" style="font: italic bold 10px &quot;Microsoft YaHei&quot;;">
<tspan dominant-baseline="middle" text-anchor="middle" x="773.8260354328074" y="426.3095094827258">广东:7301人</tspan>
</text>
<text transform="matrix(1,0,0,1,0,0)" fill="blue" fill-opacity="undefined" stroke="none" clip-path="none" style="font: italic bold 10px &quot;Microsoft YaHei&quot;;">
<tspan dominant-baseline="middle" text-anchor="middle" x="783.0172364496656" y="445.65389966419235">北京:3368人</tspan>
</text>
<text transform="matrix(1,0,0,1,0,0)" fill="blue" fill-opacity="undefined" stroke="none" clip-path="none" style="font: italic bold 10px &quot;Microsoft YaHei&quot;;">
<tspan dominant-baseline="middle" text-anchor="middle" x="788.8588130562636" y="466.2160991435236">陕西:3283人</tspan>
</text>
<text transform="matrix(1,0,0,1,0,0)" fill="blue" fill-opacity="undefined" stroke="none" clip-path="none" style="font: italic bold 10px &quot;Microsoft YaHei&quot;;">
<tspan dominant-baseline="middle" text-anchor="middle" x="790.828535922002" y="487.5">福建:3258人</tspan>
</text>
<text transform="matrix(1,0,0,1,0,0)" fill="blue" fill-opacity="undefined" stroke="none" clip-path="none" style="font: italic bold 10px &quot;Microsoft YaHei&quot;;">
<tspan dominant-baseline="middle" text-anchor="middle" x="788.848603411303" y="508.7819923430703">河南:3180人</tspan>
</text>
<text transform="matrix(1,0,0,1,0,0)" fill="blue" fill-opacity="undefined" stroke="none" clip-path="none" style="font: italic bold 10px &quot;Microsoft YaHei&quot;;">
<tspan dominant-baseline="middle" text-anchor="middle" x="782.9955154570142" y="529.3376855784248">浙江:3137人</tspan>
</text>
<text transform="matrix(1,0,0,1,0,0)" fill="blue" fill-opacity="undefined" stroke="none" clip-path="none" style="font: italic bold 10px &quot;Microsoft YaHei&quot;;">
<tspan dominant-baseline="middle" text-anchor="middle" x="773.4559144689242" y="548.4613213187776">黑龙江:2984人</tspan>
</text>
<text transform="matrix(1,0,0,1,0,0)" fill="blue" fill-opacity="undefined" stroke="none" clip-path="none" style="font: italic bold 10px &quot;Microsoft YaHei&quot;;">
<tspan dominant-baseline="middle" text-anchor="middle" x="760.5593461818725" y="565.4976498967796">山东:2735人</tspan>
</text>
<text transform="matrix(1,0,0,1,0,0)" fill="blue" fill-opacity="undefined" stroke="none" clip-path="none" style="font: italic bold 10px &quot;Microsoft YaHei&quot;;">
<tspan dominant-baseline="middle" text-anchor="middle" x="744.7460150437264" y="579.8586501324374">四川:2332人</tspan>
</text>
<text transform="matrix(1,0,0,1,0,0)" fill="blue" fill-opacity="undefined" stroke="none" clip-path="none" style="font: italic bold 10px &quot;Microsoft YaHei&quot;;">
<tspan dominant-baseline="middle" text-anchor="middle" x="726.5832391998849" y="591.0931092366518">江苏:2235人</tspan>
</text>
<text transform="matrix(1,0,0,1,0,0)" fill="blue" fill-opacity="undefined" stroke="none" clip-path="none" style="font: italic bold 10px &quot;Microsoft YaHei&quot;;">
<tspan dominant-baseline="middle" text-anchor="middle" x="706.6673517952197" y="598.7991968698226">云南:2148人</tspan>
</text>
<text transform="matrix(1,0,0,1,0,0)" fill="blue" fill-opacity="undefined" stroke="none" clip-path="none" style="font: italic bold 10px &quot;Microsoft YaHei&quot;;">
<tspan dominant-baseline="middle" text-anchor="middle" x="685.6756413728235" y="602.7085181813331">河北:2004人</tspan>
</text>
<text transform="matrix(1,0,0,1,0,0)" fill="blue" fill-opacity="undefined" stroke="none" clip-path="none" style="font: italic bold 10px &quot;Microsoft YaHei&quot;;">
<tspan dominant-baseline="middle" text-anchor="middle" x="664.3246284524208" y="602.7056063032102">天津:1975人</tspan>
</text>
<text transform="matrix(1,0,0,1,0,0)" fill="blue" fill-opacity="undefined" stroke="none" clip-path="none" style="font: italic bold 10px &quot;Microsoft YaHei&quot;;">
<tspan dominant-baseline="middle" text-anchor="middle" x="643.3435486677917" y="598.7608857162248">内蒙古:1753人</tspan>
</text>
<text transform="matrix(1,0,0,1,0,0)" fill="blue" fill-opacity="undefined" stroke="none" clip-path="none" style="font: italic bold 10px &quot;Microsoft YaHei&quot;;">
<tspan dominant-baseline="middle" text-anchor="middle" x="623.4419317622221" y="591.0425591303075">辽宁:1675人</tspan>
</text>
<text transform="matrix(1,0,0,1,0,0)" fill="blue" fill-opacity="undefined" stroke="none" clip-path="none" style="font: italic bold 10px &quot;Microsoft YaHei&quot;;">
<tspan dominant-baseline="middle" text-anchor="middle" x="605.296523626662" y="579.8023198292218">广西:1632人</tspan>
</text>
<text transform="matrix(1,0,0,1,0,0)" fill="blue" fill-opacity="undefined" stroke="none" clip-path="none" style="font: italic bold 10px &quot;Microsoft YaHei&quot;;">
<tspan dominant-baseline="middle" text-anchor="middle" x="589.5406616418766" y="565.4064807192227">湖南:1393人</tspan>
</text>
<text transform="matrix(1,0,0,1,0,0)" fill="blue" fill-opacity="undefined" stroke="none" clip-path="none" style="font: italic bold 10px &quot;Microsoft YaHei&quot;;">
<tspan dominant-baseline="middle" text-anchor="middle" x="576.6813483671141" y="548.3763317689065">江西:1383人</tspan>
</text>
<text transform="matrix(1,0,0,1,0,0)" fill="blue" fill-opacity="undefined" stroke="none" clip-path="none" style="font: italic bold 10px &quot;Microsoft YaHei&quot;;">
<tspan dominant-baseline="middle" text-anchor="middle" x="567.1993152649497" y="529.2622077546279">安徽:1065人</tspan>
</text>
<text transform="matrix(1,0,0,1,0,0)" fill="blue" fill-opacity="undefined" stroke="none" clip-path="none" style="font: italic bold 10px &quot;Microsoft YaHei&quot;;">
<tspan dominant-baseline="middle" text-anchor="middle" x="561.3666912377689" y="508.74174679823483">新疆:1008人</tspan>
</text>
<text transform="matrix(1,0,0,1,0,0)" fill="blue" fill-opacity="undefined" stroke="none" clip-path="none" style="font: italic bold 10px &quot;Microsoft YaHei&quot;;">
<tspan dominant-baseline="middle" text-anchor="middle" x="559.4283029341487" y="487.5000000000001">重庆:711人</tspan>
</text>
<text transform="matrix(1,0,0,1,0,0)" fill="blue" fill-opacity="undefined" stroke="none" clip-path="none" style="font: italic bold 10px &quot;Microsoft YaHei&quot;;">
<tspan dominant-baseline="middle" text-anchor="middle" x="561.3991043824495" y="466.2643122685983">甘肃:681人</tspan>
</text>
<text transform="matrix(1,0,0,1,0,0)" fill="blue" fill-opacity="undefined" stroke="none" clip-path="none" style="font: italic bold 10px &quot;Microsoft YaHei&quot;;">
<tspan dominant-baseline="middle" text-anchor="middle" x="567.2599647898853" y="445.76128799650616">山西:420人</tspan>
</text>
<text transform="matrix(1,0,0,1,0,0)" fill="blue" fill-opacity="undefined" stroke="none" clip-path="none" style="font: italic bold 10px &quot;Microsoft YaHei&quot;;">
<tspan dominant-baseline="middle" text-anchor="middle" x="576.7752289451664" y="426.681796624041">海南:288人</tspan>
</text>
<text transform="matrix(1,0,0,1,0,0)" fill="blue" fill-opacity="undefined" stroke="none" clip-path="none" style="font: italic bold 10px &quot;Microsoft YaHei&quot;;">
<tspan dominant-baseline="middle" text-anchor="middle" x="589.6306835875462" y="409.67558512763947">贵州:185人</tspan>
</text>
<text transform="matrix(1,0,0,1,0,0)" fill="blue" fill-opacity="undefined" stroke="none" clip-path="none" style="font: italic bold 10px &quot;Microsoft YaHei&quot;;">
<tspan dominant-baseline="middle" text-anchor="middle" x="605.3867663774143" y="395.3171808854571">青海:147人</tspan>
</text>
<text transform="matrix(1,0,0,1,0,0)" fill="blue" fill-opacity="undefined" stroke="none" clip-path="none" style="font: italic bold 10px &quot;Microsoft YaHei&quot;;">
<tspan dominant-baseline="middle" text-anchor="middle" x="623.5117362339221" y="384.09762714675105">宁夏:122人</tspan>
</text>
<text transform="matrix(1,0,0,1,0,0)" fill="blue" fill-opacity="undefined" stroke="none" clip-path="none" style="font: italic bold 10px &quot;Microsoft YaHei&quot;;">
<tspan dominant-baseline="middle" text-anchor="middle" x="643.3896341696366" y="376.40108802177076">澳门:83人</tspan>
</text>
<text transform="matrix(1,0,0,1,0,0)" fill="blue" fill-opacity="undefined" stroke="none" clip-path="none" style="font: italic bold 10px &quot;Microsoft YaHei&quot;;">
<tspan dominant-baseline="middle" text-anchor="middle" x="664.3429951776698" y="372.49260222833306">西藏:1人</tspan>
</text>
<path d="M -5 -5 L 131 -5 L 131 23 L -5 23 L -5 -5 Z" fill="#ffffff" fill-opacity="1" stroke="#ccc" stroke-width="0" paint-order="fill" stroke-opacity="1" stroke-dasharray="" stroke-linecap="butt" stroke-linejoin="miter" stroke-miterlimit="10" transform="matrix(1,0,0,1,5,5)" clip-path="none">
</path>
<text transform="matrix(1,0,0,1,5,5)" fill="#333" fill-opacity="1" stroke="none" clip-path="none" style="font: bolder 18px &quot;Microsoft YaHei&quot;;">
<tspan dominant-baseline="middle" text-anchor="start" x="0" y="9">疫情数据玫瑰图</tspan>
</text>
<defs>
</defs>
</g>
</svg>